<svg width="141" height="115" viewBox="0 0 141 115" fill="none" xmlns="http://www.w3.org/2000/svg">
<g filter="url(#filter0_dd)">
<path d="M51.4462 69H77.5538L81 101H48L51.4462 69Z" fill="#7040C0"/>
</g>
<g filter="url(#filter1_dd)">
<rect x="10" y="6" width="108" height="69" rx="10" fill="#9761F3"/>
</g>
<g filter="url(#filter2_dd)">
<rect x="14" y="10" width="100" height="55" rx="5" fill="#14142B"/>
</g>
<g filter="url(#filter3_dd)">
<rect x="45" y="98" width="39" height="3" fill="#9761F3"/>
</g>
<g filter="url(#filter4_dd)">
<rect x="92" y="49" width="39" height="46" rx="6" fill="#9761F3"/>
</g>
<g filter="url(#filter5_dd)">
<rect x="95" y="52" width="33" height="40" rx="4" fill="#14142B"/>
</g>
<path d="M53.7059 28.4244L55.7557 30.4742L58.3064 27.9235L57.3027 26.9198L55.7557 28.4687L53.7059 26.4189L51.6561 28.4687L50.1072 26.9198L49.1035 27.9235L51.6561 30.4742L53.7059 28.4244Z" fill="#58D6EB"/>
<path d="M74.2946 52.7969H53.7061V54.3323H74.2946V52.7969Z" fill="#58D6EB"/>
<path d="M74.2943 32.16C71.7378 32.16 69.2834 33.3582 66.8214 35.0805L65.5422 36.0149C65.4805 36.0611 65.4189 36.1112 65.3572 36.1574C65.8504 34.8783 66.1394 33.5162 66.1953 32.1253H68.9887V30.4743H66.1509C66.1124 30.062 66.0565 29.6574 65.9795 29.2567H71.6415V27.6057H65.5441C65.4035 27.1896 65.2436 26.7831 65.0625 26.3881H74.2943V24.7371H64.1512C63.8738 24.3133 63.5733 23.9068 63.2477 23.5196H76.9471V21.8686H62.2556H61.6641H61.5774C60.9898 21.3869 60.3599 20.9554 59.6933 20.5836H79.6018V19H53.7057V20.5874C59.7357 20.6568 64.6213 25.5809 64.6213 31.6282C64.6213 34.5488 63.5059 37.2652 61.5158 39.3092C59.0132 41.4207 55.3741 44.4588 53.7057 44.4588C52.2743 44.4588 51.1107 43.2951 51.1107 41.8638C51.1107 40.4324 52.2743 39.2688 53.7057 39.2688H57.4663L59.0498 37.6852H53.7057C51.4016 37.6852 49.5271 39.5597 49.5271 41.8638C49.5271 44.1679 51.4016 46.0423 53.7057 46.0423C55.5109 46.0423 58.0153 44.2584 61.0727 41.7405L62.7295 40.3572C66.7578 36.955 70.5646 33.7416 74.2962 33.7416C78.7734 33.7416 82.4164 37.3846 82.4164 41.8618C82.4164 46.339 78.7734 49.982 74.2962 49.982C72.4468 49.982 70.6378 49.3405 69.1987 48.1769C67.9676 47.1809 67.0506 45.8381 66.5671 44.347C66.883 44.0792 67.2163 43.7999 67.5611 43.5128C68.3048 46.5432 71.0385 48.8011 74.2962 48.8011C78.1242 48.8011 81.2374 45.6879 81.2374 41.8599C81.2374 38.0319 78.1222 34.9187 74.2962 34.9187C70.9961 34.9187 67.3512 37.9973 63.4904 41.255C60.0189 44.1871 56.4279 47.2175 53.7077 47.2175C50.7524 47.2175 48.35 44.8132 48.35 41.8599C48.35 38.9432 50.5713 36.5639 53.4707 36.5042H53.7077H60.2289L61.011 35.7221L57.4104 32.1214H44.0039V33.7724H48.3578C47.8337 34.1192 47.3463 34.5161 46.8994 34.9572V34.9399H44.0039V36.5235H45.6048C44.5914 38.0551 44 39.8891 44 41.8599C44 47.2117 48.3539 51.5656 53.7057 51.5656H74.2943C79.6461 51.5656 84 47.2117 84 41.8599C83.9981 36.5139 79.6442 32.16 74.2943 32.16ZM45.5836 41.8657C45.5836 37.6254 48.8509 34.1365 53.0006 33.7782L53.7057 33.7108H56.9153L58.1309 34.9264H53.7038L52.9698 34.963C49.4848 35.331 46.7626 38.2862 46.7626 41.8657C46.7626 45.6936 49.8758 48.8088 53.7038 48.8088C57.0039 48.8088 60.6488 45.7302 64.5096 42.4725C67.9811 39.5404 71.5721 36.51 74.2923 36.51C77.2476 36.51 79.65 38.9143 79.65 41.8676C79.65 44.8229 77.2457 47.2252 74.2923 47.2252C71.5105 47.2252 69.2179 45.0926 68.9598 42.3762C69.3489 42.066 69.7419 41.7616 70.133 41.4707C70.1195 41.6017 70.1118 41.7328 70.1118 41.8676C70.1118 44.1717 71.9863 46.0462 74.2904 46.0462C76.5945 46.0462 78.469 44.1717 78.469 41.8676C78.469 39.5635 76.5945 37.689 74.2904 37.689C73.462 37.689 72.6895 37.9337 72.0403 38.3517C70.1793 39.2938 67.8964 41.1529 65.2686 43.3741C61.2403 46.7763 57.4335 49.9897 53.7038 49.9897C49.2266 49.9859 45.5836 46.3429 45.5836 41.8657ZM71.6973 41.8657C71.6973 40.9795 72.1443 40.1993 72.8244 39.7292C73.3946 39.4441 73.9013 39.2707 74.2923 39.2707C75.7237 39.2707 76.8873 40.4343 76.8873 41.8657C76.8873 43.2971 75.7237 44.4607 74.2923 44.4607C72.8629 44.4607 71.6973 43.2971 71.6973 41.8657ZM59.0576 49.9859C61.1247 48.8435 63.1764 47.1963 65.2763 45.4374C65.8909 46.9786 66.8965 48.3599 68.2007 49.4137C68.457 49.6199 68.7228 49.8087 68.9964 49.9878H59.0576V49.9859Z" fill="#58D6EB"/>
<defs>
<filter id="filter0_dd" x="38" y="63" width="53" height="52" filterUnits="userSpaceOnUse" color-interpolation-filters="sRGB">
<feFlood flood-opacity="0" result="BackgroundImageFix"/>
<feColorMatrix in="SourceAlpha" type="matrix" values="0 0 0 0 0 0 0 0 0 0 0 0 0 0 0 0 0 0 127 0"/>
<feOffset dy="1"/>
<feGaussianBlur stdDeviation="1"/>
<feColorMatrix type="matrix" values="0 0 0 0 0 0 0 0 0 0 0 0 0 0 0 0 0 0 0.05 0"/>
<feBlend mode="normal" in2="BackgroundImageFix" result="effect1_dropShadow"/>
<feColorMatrix in="SourceAlpha" type="matrix" values="0 0 0 0 0 0 0 0 0 0 0 0 0 0 0 0 0 0 127 0"/>
<feOffset dy="4"/>
<feGaussianBlur stdDeviation="5"/>
<feColorMatrix type="matrix" values="0 0 0 0 0 0 0 0 0 0 0 0 0 0 0 0 0 0 0.25 0"/>
<feBlend mode="normal" in2="effect1_dropShadow" result="effect2_dropShadow"/>
<feBlend mode="normal" in="SourceGraphic" in2="effect2_dropShadow" result="shape"/>
</filter>
<filter id="filter1_dd" x="0" y="0" width="128" height="89" filterUnits="userSpaceOnUse" color-interpolation-filters="sRGB">
<feFlood flood-opacity="0" result="BackgroundImageFix"/>
<feColorMatrix in="SourceAlpha" type="matrix" values="0 0 0 0 0 0 0 0 0 0 0 0 0 0 0 0 0 0 127 0"/>
<feOffset dy="1"/>
<feGaussianBlur stdDeviation="1"/>
<feColorMatrix type="matrix" values="0 0 0 0 0 0 0 0 0 0 0 0 0 0 0 0 0 0 0.05 0"/>
<feBlend mode="normal" in2="BackgroundImageFix" result="effect1_dropShadow"/>
<feColorMatrix in="SourceAlpha" type="matrix" values="0 0 0 0 0 0 0 0 0 0 0 0 0 0 0 0 0 0 127 0"/>
<feOffset dy="4"/>
<feGaussianBlur stdDeviation="5"/>
<feColorMatrix type="matrix" values="0 0 0 0 0 0 0 0 0 0 0 0 0 0 0 0 0 0 0.25 0"/>
<feBlend mode="normal" in2="effect1_dropShadow" result="effect2_dropShadow"/>
<feBlend mode="normal" in="SourceGraphic" in2="effect2_dropShadow" result="shape"/>
</filter>
<filter id="filter2_dd" x="4" y="4" width="120" height="75" filterUnits="userSpaceOnUse" color-interpolation-filters="sRGB">
<feFlood flood-opacity="0" result="BackgroundImageFix"/>
<feColorMatrix in="SourceAlpha" type="matrix" values="0 0 0 0 0 0 0 0 0 0 0 0 0 0 0 0 0 0 127 0"/>
<feOffset dy="1"/>
<feGaussianBlur stdDeviation="1"/>
<feColorMatrix type="matrix" values="0 0 0 0 0 0 0 0 0 0 0 0 0 0 0 0 0 0 0.15 0"/>
<feBlend mode="normal" in2="BackgroundImageFix" result="effect1_dropShadow"/>
<feColorMatrix in="SourceAlpha" type="matrix" values="0 0 0 0 0 0 0 0 0 0 0 0 0 0 0 0 0 0 127 0"/>
<feOffset dy="4"/>
<feGaussianBlur stdDeviation="5"/>
<feColorMatrix type="matrix" values="0 0 0 0 0 0 0 0 0 0 0 0 0 0 0 0 0 0 0.4 0"/>
<feBlend mode="normal" in2="effect1_dropShadow" result="effect2_dropShadow"/>
<feBlend mode="normal" in="SourceGraphic" in2="effect2_dropShadow" result="shape"/>
</filter>
<filter id="filter3_dd" x="35" y="92" width="59" height="23" filterUnits="userSpaceOnUse" color-interpolation-filters="sRGB">
<feFlood flood-opacity="0" result="BackgroundImageFix"/>
<feColorMatrix in="SourceAlpha" type="matrix" values="0 0 0 0 0 0 0 0 0 0 0 0 0 0 0 0 0 0 127 0"/>
<feOffset dy="1"/>
<feGaussianBlur stdDeviation="1"/>
<feColorMatrix type="matrix" values="0 0 0 0 0 0 0 0 0 0 0 0 0 0 0 0 0 0 0.05 0"/>
<feBlend mode="normal" in2="BackgroundImageFix" result="effect1_dropShadow"/>
<feColorMatrix in="SourceAlpha" type="matrix" values="0 0 0 0 0 0 0 0 0 0 0 0 0 0 0 0 0 0 127 0"/>
<feOffset dy="4"/>
<feGaussianBlur stdDeviation="5"/>
<feColorMatrix type="matrix" values="0 0 0 0 0 0 0 0 0 0 0 0 0 0 0 0 0 0 0.25 0"/>
<feBlend mode="normal" in2="effect1_dropShadow" result="effect2_dropShadow"/>
<feBlend mode="normal" in="SourceGraphic" in2="effect2_dropShadow" result="shape"/>
</filter>
<filter id="filter4_dd" x="82" y="43" width="59" height="66" filterUnits="userSpaceOnUse" color-interpolation-filters="sRGB">
<feFlood flood-opacity="0" result="BackgroundImageFix"/>
<feColorMatrix in="SourceAlpha" type="matrix" values="0 0 0 0 0 0 0 0 0 0 0 0 0 0 0 0 0 0 127 0"/>
<feOffset dy="1"/>
<feGaussianBlur stdDeviation="1"/>
<feColorMatrix type="matrix" values="0 0 0 0 0 0 0 0 0 0 0 0 0 0 0 0 0 0 0.05 0"/>
<feBlend mode="normal" in2="BackgroundImageFix" result="effect1_dropShadow"/>
<feColorMatrix in="SourceAlpha" type="matrix" values="0 0 0 0 0 0 0 0 0 0 0 0 0 0 0 0 0 0 127 0"/>
<feOffset dy="4"/>
<feGaussianBlur stdDeviation="5"/>
<feColorMatrix type="matrix" values="0 0 0 0 0 0 0 0 0 0 0 0 0 0 0 0 0 0 0.25 0"/>
<feBlend mode="normal" in2="effect1_dropShadow" result="effect2_dropShadow"/>
<feBlend mode="normal" in="SourceGraphic" in2="effect2_dropShadow" result="shape"/>
</filter>
<filter id="filter5_dd" x="85" y="46" width="53" height="60" filterUnits="userSpaceOnUse" color-interpolation-filters="sRGB">
<feFlood flood-opacity="0" result="BackgroundImageFix"/>
<feColorMatrix in="SourceAlpha" type="matrix" values="0 0 0 0 0 0 0 0 0 0 0 0 0 0 0 0 0 0 127 0"/>
<feOffset dy="1"/>
<feGaussianBlur stdDeviation="1"/>
<feColorMatrix type="matrix" values="0 0 0 0 0 0 0 0 0 0 0 0 0 0 0 0 0 0 0.15 0"/>
<feBlend mode="normal" in2="BackgroundImageFix" result="effect1_dropShadow"/>
<feColorMatrix in="SourceAlpha" type="matrix" values="0 0 0 0 0 0 0 0 0 0 0 0 0 0 0 0 0 0 127 0"/>
<feOffset dy="4"/>
<feGaussianBlur stdDeviation="5"/>
<feColorMatrix type="matrix" values="0 0 0 0 0 0 0 0 0 0 0 0 0 0 0 0 0 0 0.4 0"/>
<feBlend mode="normal" in2="effect1_dropShadow" result="effect2_dropShadow"/>
<feBlend mode="normal" in="SourceGraphic" in2="effect2_dropShadow" result="shape"/>
</filter>
</defs>
</svg>
