<svg width="150" height="144" viewBox="0 0 150 144" fill="none" xmlns="http://www.w3.org/2000/svg">
<g filter="url(#filter0_dd)">
<path d="M55.1709 115C55.1709 91.804 73.9749 73 97.1709 73C120.367 73 139.171 91.804 139.171 115V130H55.1709V115Z" fill="#9761F3"/>
<path d="M55.1709 115C55.1709 91.804 73.9749 73 97.1709 73C120.367 73 139.171 91.804 139.171 115V130H55.1709V115Z" fill="url(#paint0_linear)" fill-opacity="0.2"/>
</g>
<g filter="url(#filter1_dd)">
<path d="M122.171 54C122.171 67.8071 110.978 80 97.1709 80C83.3638 80 72.1709 67.8071 72.1709 54C72.1709 40.1929 83.3638 29 97.1709 29C110.978 29 122.171 40.1929 122.171 54Z" fill="#58D6EB"/>
<path d="M122.171 54C122.171 67.8071 110.978 80 97.1709 80C83.3638 80 72.1709 67.8071 72.1709 54C72.1709 40.1929 83.3638 29 97.1709 29C110.978 29 122.171 40.1929 122.171 54Z" fill="url(#paint1_linear)" fill-opacity="0.2"/>
</g>
<g filter="url(#filter2_dd)">
<path d="M10 16C10 10.4772 14.4772 6 20 6H63.1707C68.6936 6 73.1707 10.4772 73.1707 16V41H20C14.4771 41 10 36.5228 10 31V16Z" fill="#9761F3"/>
<path d="M10 16C10 10.4772 14.4772 6 20 6H63.1707C68.6936 6 73.1707 10.4772 73.1707 16V41H20C14.4771 41 10 36.5228 10 31V16Z" fill="url(#paint2_linear)" fill-opacity="0.2"/>
</g>
<g filter="url(#filter3_dd)">
<path d="M25.1709 18L26.6592 21.9516L30.8772 22.1459L27.579 24.7824L28.6976 28.8541L25.1709 26.532L21.6442 28.8541L22.7628 24.7824L19.4646 22.1459L23.6826 21.9516L25.1709 18Z" fill="#14142B"/>
<path d="M25.1709 18L26.6592 21.9516L30.8772 22.1459L27.579 24.7824L28.6976 28.8541L25.1709 26.532L21.6442 28.8541L22.7628 24.7824L19.4646 22.1459L23.6826 21.9516L25.1709 18Z" fill="url(#paint3_linear)" fill-opacity="0.2"/>
<path d="M42.1709 18L43.6592 21.9516L47.8772 22.1459L44.579 24.7824L45.6976 28.8541L42.1709 26.532L38.6442 28.8541L39.7628 24.7824L36.4646 22.1459L40.6826 21.9516L42.1709 18Z" fill="#14142B"/>
<path d="M42.1709 18L43.6592 21.9516L47.8772 22.1459L44.579 24.7824L45.6976 28.8541L42.1709 26.532L38.6442 28.8541L39.7628 24.7824L36.4646 22.1459L40.6826 21.9516L42.1709 18Z" fill="url(#paint4_linear)" fill-opacity="0.2"/>
<path d="M59.1709 18L60.6592 21.9516L64.8772 22.1459L61.579 24.7824L62.6976 28.8541L59.1709 26.532L55.6442 28.8541L56.7628 24.7824L53.4646 22.1459L57.6826 21.9516L59.1709 18Z" fill="#14142B"/>
<path d="M59.1709 18L60.6592 21.9516L64.8772 22.1459L61.579 24.7824L62.6976 28.8541L59.1709 26.532L55.6442 28.8541L56.7628 24.7824L53.4646 22.1459L57.6826 21.9516L59.1709 18Z" fill="url(#paint5_linear)" fill-opacity="0.2"/>
</g>
<g filter="url(#filter4_dd)">
<circle cx="86.6709" cy="59.5" r="2.5" fill="#14142B"/>
<circle cx="86.6709" cy="59.5" r="2.5" fill="url(#paint6_linear)" fill-opacity="0.2"/>
</g>
<g filter="url(#filter5_dd)">
<circle cx="106.671" cy="59.5" r="2.5" fill="#14142B"/>
<circle cx="106.671" cy="59.5" r="2.5" fill="url(#paint7_linear)" fill-opacity="0.2"/>
</g>
<g filter="url(#filter6_dd)">
<path fill-rule="evenodd" clip-rule="evenodd" d="M77.0433 52C89.1936 52 99.0433 42.1503 99.0433 30C99.0433 29.6909 99.0369 29.3833 99.0243 29.0773C98.3707 29.0261 97.7101 29 97.0433 29C84.0941 29 73.4444 38.8451 72.1709 51.4586C73.7382 51.8129 75.3689 52 77.0433 52Z" fill="#7040C0"/>
<path fill-rule="evenodd" clip-rule="evenodd" d="M77.0433 52C89.1936 52 99.0433 42.1503 99.0433 30C99.0433 29.6909 99.0369 29.3833 99.0243 29.0773C98.3707 29.0261 97.7101 29 97.0433 29C84.0941 29 73.4444 38.8451 72.1709 51.4586C73.7382 51.8129 75.3689 52 77.0433 52Z" fill="url(#paint8_linear)" fill-opacity="0.2"/>
</g>
<g filter="url(#filter7_dd)">
<path fill-rule="evenodd" clip-rule="evenodd" d="M85.1709 32.1882C88.7854 30.1579 92.9558 29 97.3966 29C110.083 29 120.562 38.4494 122.18 50.6937C119.402 51.543 116.453 52 113.397 52C100.405 52 89.3419 43.7417 85.1709 32.1882Z" fill="#9761F3"/>
<path fill-rule="evenodd" clip-rule="evenodd" d="M85.1709 32.1882C88.7854 30.1579 92.9558 29 97.3966 29C110.083 29 120.562 38.4494 122.18 50.6937C119.402 51.543 116.453 52 113.397 52C100.405 52 89.3419 43.7417 85.1709 32.1882Z" fill="url(#paint9_linear)" fill-opacity="0.2"/>
</g>
<defs>
<filter id="filter0_dd" x="45.1709" y="67" width="104" height="77" filterUnits="userSpaceOnUse" color-interpolation-filters="sRGB">
<feFlood flood-opacity="0" result="BackgroundImageFix"/>
<feColorMatrix in="SourceAlpha" type="matrix" values="0 0 0 0 0 0 0 0 0 0 0 0 0 0 0 0 0 0 127 0"/>
<feOffset dy="1"/>
<feGaussianBlur stdDeviation="1"/>
<feColorMatrix type="matrix" values="0 0 0 0 0 0 0 0 0 0 0 0 0 0 0 0 0 0 0.05 0"/>
<feBlend mode="normal" in2="BackgroundImageFix" result="effect1_dropShadow"/>
<feColorMatrix in="SourceAlpha" type="matrix" values="0 0 0 0 0 0 0 0 0 0 0 0 0 0 0 0 0 0 127 0"/>
<feOffset dy="4"/>
<feGaussianBlur stdDeviation="5"/>
<feColorMatrix type="matrix" values="0 0 0 0 0 0 0 0 0 0 0 0 0 0 0 0 0 0 0.25 0"/>
<feBlend mode="normal" in2="effect1_dropShadow" result="effect2_dropShadow"/>
<feBlend mode="normal" in="SourceGraphic" in2="effect2_dropShadow" result="shape"/>
</filter>
<filter id="filter1_dd" x="62.1709" y="23" width="70" height="71" filterUnits="userSpaceOnUse" color-interpolation-filters="sRGB">
<feFlood flood-opacity="0" result="BackgroundImageFix"/>
<feColorMatrix in="SourceAlpha" type="matrix" values="0 0 0 0 0 0 0 0 0 0 0 0 0 0 0 0 0 0 127 0"/>
<feOffset dy="1"/>
<feGaussianBlur stdDeviation="1"/>
<feColorMatrix type="matrix" values="0 0 0 0 0 0 0 0 0 0 0 0 0 0 0 0 0 0 0.05 0"/>
<feBlend mode="normal" in2="BackgroundImageFix" result="effect1_dropShadow"/>
<feColorMatrix in="SourceAlpha" type="matrix" values="0 0 0 0 0 0 0 0 0 0 0 0 0 0 0 0 0 0 127 0"/>
<feOffset dy="4"/>
<feGaussianBlur stdDeviation="5"/>
<feColorMatrix type="matrix" values="0 0 0 0 0 0 0 0 0 0 0 0 0 0 0 0 0 0 0.25 0"/>
<feBlend mode="normal" in2="effect1_dropShadow" result="effect2_dropShadow"/>
<feBlend mode="normal" in="SourceGraphic" in2="effect2_dropShadow" result="shape"/>
</filter>
<filter id="filter2_dd" x="0" y="0" width="83.1707" height="55" filterUnits="userSpaceOnUse" color-interpolation-filters="sRGB">
<feFlood flood-opacity="0" result="BackgroundImageFix"/>
<feColorMatrix in="SourceAlpha" type="matrix" values="0 0 0 0 0 0 0 0 0 0 0 0 0 0 0 0 0 0 127 0"/>
<feOffset dy="1"/>
<feGaussianBlur stdDeviation="1"/>
<feColorMatrix type="matrix" values="0 0 0 0 0 0 0 0 0 0 0 0 0 0 0 0 0 0 0.15 0"/>
<feBlend mode="normal" in2="BackgroundImageFix" result="effect1_dropShadow"/>
<feColorMatrix in="SourceAlpha" type="matrix" values="0 0 0 0 0 0 0 0 0 0 0 0 0 0 0 0 0 0 127 0"/>
<feOffset dy="4"/>
<feGaussianBlur stdDeviation="5"/>
<feColorMatrix type="matrix" values="0 0 0 0 0 0 0 0 0 0 0 0 0 0 0 0 0 0 0.4 0"/>
<feBlend mode="normal" in2="effect1_dropShadow" result="effect2_dropShadow"/>
<feBlend mode="normal" in="SourceGraphic" in2="effect2_dropShadow" result="shape"/>
</filter>
<filter id="filter3_dd" x="9.46484" y="12" width="65.4127" height="30.8541" filterUnits="userSpaceOnUse" color-interpolation-filters="sRGB">
<feFlood flood-opacity="0" result="BackgroundImageFix"/>
<feColorMatrix in="SourceAlpha" type="matrix" values="0 0 0 0 0 0 0 0 0 0 0 0 0 0 0 0 0 0 127 0"/>
<feOffset dy="1"/>
<feGaussianBlur stdDeviation="1"/>
<feColorMatrix type="matrix" values="0 0 0 0 0 0 0 0 0 0 0 0 0 0 0 0 0 0 0.15 0"/>
<feBlend mode="normal" in2="BackgroundImageFix" result="effect1_dropShadow"/>
<feColorMatrix in="SourceAlpha" type="matrix" values="0 0 0 0 0 0 0 0 0 0 0 0 0 0 0 0 0 0 127 0"/>
<feOffset dy="4"/>
<feGaussianBlur stdDeviation="5"/>
<feColorMatrix type="matrix" values="0 0 0 0 0 0 0 0 0 0 0 0 0 0 0 0 0 0 0.4 0"/>
<feBlend mode="normal" in2="effect1_dropShadow" result="effect2_dropShadow"/>
<feBlend mode="normal" in="SourceGraphic" in2="effect2_dropShadow" result="shape"/>
</filter>
<filter id="filter4_dd" x="74.1709" y="51" width="25" height="25" filterUnits="userSpaceOnUse" color-interpolation-filters="sRGB">
<feFlood flood-opacity="0" result="BackgroundImageFix"/>
<feColorMatrix in="SourceAlpha" type="matrix" values="0 0 0 0 0 0 0 0 0 0 0 0 0 0 0 0 0 0 127 0"/>
<feOffset dy="1"/>
<feGaussianBlur stdDeviation="1"/>
<feColorMatrix type="matrix" values="0 0 0 0 0 0 0 0 0 0 0 0 0 0 0 0 0 0 0.15 0"/>
<feBlend mode="normal" in2="BackgroundImageFix" result="effect1_dropShadow"/>
<feColorMatrix in="SourceAlpha" type="matrix" values="0 0 0 0 0 0 0 0 0 0 0 0 0 0 0 0 0 0 127 0"/>
<feOffset dy="4"/>
<feGaussianBlur stdDeviation="5"/>
<feColorMatrix type="matrix" values="0 0 0 0 0 0 0 0 0 0 0 0 0 0 0 0 0 0 0.4 0"/>
<feBlend mode="normal" in2="effect1_dropShadow" result="effect2_dropShadow"/>
<feBlend mode="normal" in="SourceGraphic" in2="effect2_dropShadow" result="shape"/>
</filter>
<filter id="filter5_dd" x="94.1709" y="51" width="25" height="25" filterUnits="userSpaceOnUse" color-interpolation-filters="sRGB">
<feFlood flood-opacity="0" result="BackgroundImageFix"/>
<feColorMatrix in="SourceAlpha" type="matrix" values="0 0 0 0 0 0 0 0 0 0 0 0 0 0 0 0 0 0 127 0"/>
<feOffset dy="1"/>
<feGaussianBlur stdDeviation="1"/>
<feColorMatrix type="matrix" values="0 0 0 0 0 0 0 0 0 0 0 0 0 0 0 0 0 0 0.15 0"/>
<feBlend mode="normal" in2="BackgroundImageFix" result="effect1_dropShadow"/>
<feColorMatrix in="SourceAlpha" type="matrix" values="0 0 0 0 0 0 0 0 0 0 0 0 0 0 0 0 0 0 127 0"/>
<feOffset dy="4"/>
<feGaussianBlur stdDeviation="5"/>
<feColorMatrix type="matrix" values="0 0 0 0 0 0 0 0 0 0 0 0 0 0 0 0 0 0 0.4 0"/>
<feBlend mode="normal" in2="effect1_dropShadow" result="effect2_dropShadow"/>
<feBlend mode="normal" in="SourceGraphic" in2="effect2_dropShadow" result="shape"/>
</filter>
<filter id="filter6_dd" x="62.1709" y="23" width="46.8724" height="43" filterUnits="userSpaceOnUse" color-interpolation-filters="sRGB">
<feFlood flood-opacity="0" result="BackgroundImageFix"/>
<feColorMatrix in="SourceAlpha" type="matrix" values="0 0 0 0 0 0 0 0 0 0 0 0 0 0 0 0 0 0 127 0"/>
<feOffset dy="1"/>
<feGaussianBlur stdDeviation="1"/>
<feColorMatrix type="matrix" values="0 0 0 0 0 0 0 0 0 0 0 0 0 0 0 0 0 0 0.05 0"/>
<feBlend mode="normal" in2="BackgroundImageFix" result="effect1_dropShadow"/>
<feColorMatrix in="SourceAlpha" type="matrix" values="0 0 0 0 0 0 0 0 0 0 0 0 0 0 0 0 0 0 127 0"/>
<feOffset dy="4"/>
<feGaussianBlur stdDeviation="5"/>
<feColorMatrix type="matrix" values="0 0 0 0 0 0 0 0 0 0 0 0 0 0 0 0 0 0 0.25 0"/>
<feBlend mode="normal" in2="effect1_dropShadow" result="effect2_dropShadow"/>
<feBlend mode="normal" in="SourceGraphic" in2="effect2_dropShadow" result="shape"/>
</filter>
<filter id="filter7_dd" x="75.1709" y="23" width="57.009" height="43" filterUnits="userSpaceOnUse" color-interpolation-filters="sRGB">
<feFlood flood-opacity="0" result="BackgroundImageFix"/>
<feColorMatrix in="SourceAlpha" type="matrix" values="0 0 0 0 0 0 0 0 0 0 0 0 0 0 0 0 0 0 127 0"/>
<feOffset dy="1"/>
<feGaussianBlur stdDeviation="1"/>
<feColorMatrix type="matrix" values="0 0 0 0 0 0 0 0 0 0 0 0 0 0 0 0 0 0 0.05 0"/>
<feBlend mode="normal" in2="BackgroundImageFix" result="effect1_dropShadow"/>
<feColorMatrix in="SourceAlpha" type="matrix" values="0 0 0 0 0 0 0 0 0 0 0 0 0 0 0 0 0 0 127 0"/>
<feOffset dy="4"/>
<feGaussianBlur stdDeviation="5"/>
<feColorMatrix type="matrix" values="0 0 0 0 0 0 0 0 0 0 0 0 0 0 0 0 0 0 0.25 0"/>
<feBlend mode="normal" in2="effect1_dropShadow" result="effect2_dropShadow"/>
<feBlend mode="normal" in="SourceGraphic" in2="effect2_dropShadow" result="shape"/>
</filter>
<linearGradient id="paint0_linear" x1="97.1709" y1="73" x2="97.1709" y2="130" gradientUnits="userSpaceOnUse">
<stop stop-color="white"/>
<stop offset="1" stop-color="white" stop-opacity="0"/>
</linearGradient>
<linearGradient id="paint1_linear" x1="97.1709" y1="29" x2="97.1709" y2="80" gradientUnits="userSpaceOnUse">
<stop stop-color="white"/>
<stop offset="1" stop-color="white" stop-opacity="0"/>
</linearGradient>
<linearGradient id="paint2_linear" x1="41.5854" y1="6" x2="41.5854" y2="41" gradientUnits="userSpaceOnUse">
<stop stop-color="white"/>
<stop offset="1" stop-color="white" stop-opacity="0"/>
</linearGradient>
<linearGradient id="paint3_linear" x1="25.1709" y1="18" x2="25.1709" y2="30" gradientUnits="userSpaceOnUse">
<stop stop-color="white"/>
<stop offset="1" stop-color="white" stop-opacity="0"/>
</linearGradient>
<linearGradient id="paint4_linear" x1="42.1709" y1="18" x2="42.1709" y2="30" gradientUnits="userSpaceOnUse">
<stop stop-color="white"/>
<stop offset="1" stop-color="white" stop-opacity="0"/>
</linearGradient>
<linearGradient id="paint5_linear" x1="59.1709" y1="18" x2="59.1709" y2="30" gradientUnits="userSpaceOnUse">
<stop stop-color="white"/>
<stop offset="1" stop-color="white" stop-opacity="0"/>
</linearGradient>
<linearGradient id="paint6_linear" x1="86.6709" y1="57" x2="86.6709" y2="62" gradientUnits="userSpaceOnUse">
<stop stop-color="white"/>
<stop offset="1" stop-color="white" stop-opacity="0"/>
</linearGradient>
<linearGradient id="paint7_linear" x1="106.671" y1="57" x2="106.671" y2="62" gradientUnits="userSpaceOnUse">
<stop stop-color="white"/>
<stop offset="1" stop-color="white" stop-opacity="0"/>
</linearGradient>
<linearGradient id="paint8_linear" x1="85.6071" y1="29" x2="85.6071" y2="52" gradientUnits="userSpaceOnUse">
<stop stop-color="white"/>
<stop offset="1" stop-color="white" stop-opacity="0"/>
</linearGradient>
<linearGradient id="paint9_linear" x1="103.675" y1="29" x2="103.675" y2="52" gradientUnits="userSpaceOnUse">
<stop stop-color="white"/>
<stop offset="1" stop-color="white" stop-opacity="0"/>
</linearGradient>
</defs>
</svg>
