<svg width="180" height="180" viewBox="0 0 180 180" fill="none" xmlns="http://www.w3.org/2000/svg">
<path d="M77 83.9022C77 68.2852 89.6601 55.625 105.277 55.625V55.625C120.894 55.625 133.554 68.2852 133.554 83.9022V94.0012H77V83.9022Z" fill="#5624AB"/>
<path d="M122.109 42.8317C122.109 52.1276 114.573 60.3366 105.277 60.3366C95.9811 60.3366 88.4453 52.1276 88.4453 42.8317C88.4453 33.5358 95.9811 26 105.277 26C114.573 26 122.109 33.5358 122.109 42.8317Z" fill="#9761F3"/>
<path d="M122.109 42.8317C122.109 52.1276 114.573 60.3366 105.277 60.3366C95.9811 60.3366 88.4453 52.1276 88.4453 42.8317C88.4453 33.5358 95.9811 26 105.277 26C114.573 26 122.109 33.5358 122.109 42.8317Z" fill="url(#paint0_linear_1103_3128)" fill-opacity="0.2"/>
<path d="M51 104L51 77.7369C51 71.6616 54.0646 65.9962 59.1495 62.6715L64 59.5" stroke="#7040C0" stroke-width="10" stroke-linecap="round"/>
<circle cx="69" cy="56" r="11" fill="#9761F3"/>
<path d="M35.0763 107.05C33.6728 101.524 32.971 98.7608 33.6579 96.5882C34.2345 94.7648 35.4451 93.2082 37.0705 92.2006C39.0071 91 41.8581 91 47.56 91H131.44C137.142 91 139.993 91 141.929 92.2006C143.555 93.2082 144.766 94.7648 145.342 96.5882C146.029 98.7608 145.327 101.524 143.924 107.05L134.466 144.29C133.575 147.8 133.129 149.554 132.137 150.854C131.298 151.953 130.189 152.816 128.917 153.358C127.413 154 125.603 154 121.982 154H57.0178C53.3973 154 51.5871 154 50.083 153.358C48.8113 152.816 47.7019 151.953 46.863 150.854C45.8709 149.554 45.4253 147.8 44.5341 144.29L35.0763 107.05Z" fill="#7040C0"/>
<rect x="27" y="89" width="125" height="21" rx="8" fill="#9761F3"/>
<rect x="27" y="89" width="125" height="21" rx="8" fill="url(#paint1_linear_1103_3128)" fill-opacity="0.2"/>
<defs>
<linearGradient id="paint0_linear_1103_3128" x1="96.1638" y1="34.2123" x2="114.537" y2="52.2846" gradientUnits="userSpaceOnUse">
<stop stop-color="white"/>
<stop offset="1" stop-color="white" stop-opacity="0"/>
</linearGradient>
<linearGradient id="paint1_linear_1103_3128" x1="55.6604" y1="94.0226" x2="59.3213" y2="115.886" gradientUnits="userSpaceOnUse">
<stop stop-color="white"/>
<stop offset="1" stop-color="white" stop-opacity="0"/>
</linearGradient>
</defs>
</svg>
