<svg width="180" height="180" viewBox="0 0 180 180" fill="none" xmlns="http://www.w3.org/2000/svg">
<path d="M85.8301 65.708C85.8301 79.5151 97.023 91.708 110.83 91.708C124.637 91.708 135.83 79.5151 135.83 65.708C135.83 51.9009 124.637 40.708 110.83 40.708C97.023 40.708 85.8301 51.9009 85.8301 65.708Z" fill="#9761F3"/>
<path d="M85.8301 65.708C85.8301 79.5151 97.023 91.708 110.83 91.708C124.637 91.708 135.83 79.5151 135.83 65.708C135.83 51.9009 124.637 40.708 110.83 40.708C97.023 40.708 85.8301 51.9009 85.8301 65.708Z" fill="url(#paint0_linear_1103_3128)" fill-opacity="0.2"/>
<path d="M98 103.413L83.5267 114.211C77.2087 118.924 74.0497 121.281 70.5739 122.954C67.4896 124.439 64.2274 125.522 60.8674 126.176C57.0808 126.913 53.1396 126.913 45.2571 126.913H39" stroke="#7040C0" stroke-width="15" stroke-linecap="round"/>
<path d="M141 121.708C141 105.139 127.569 91.708 111 91.708V91.708C94.4315 91.708 81 105.139 81 121.708V140.846C81 145.188 84.52 148.708 88.8621 148.708H133.138C137.48 148.708 141 145.188 141 140.846V121.708Z" fill="#9761F3"/>
<path d="M141 121.708C141 105.139 127.569 91.708 111 91.708V91.708C94.4315 91.708 81 105.139 81 121.708V140.846C81 145.188 84.52 148.708 88.8621 148.708H133.138C137.48 148.708 141 145.188 141 140.846V121.708Z" fill="url(#paint1_linear_1103_3128)" fill-opacity="0.2"/>
<path d="M83.6188 39.9366C81.8354 42.2718 79.3169 47.1595 82.4774 53.6835C84.4284 57.7105 89.0484 59.4129 93.5232 59.4129H109.77C112.687 59.4129 115.374 61.0011 116.78 63.5575L118.134 66.0206C119.079 67.7386 121.391 68.1033 122.819 66.7595L126.097 63.6742C127.191 62.6449 128.987 63.1433 129.393 64.5891L133 77.4126C146 60.9126 142 45.9124 133 44.4125C130.5 31.4126 111.5 28.4132 99.5 36.4126C92.7936 40.8835 88.7395 40.4591 86.6856 39.5689C85.6506 39.1203 84.3035 39.0401 83.6188 39.9366Z" fill="#5624AB"/>
<defs>
<linearGradient id="paint0_linear_1103_3128" x1="103.5" y1="59.9131" x2="107.479" y2="91.4787" gradientUnits="userSpaceOnUse">
<stop stop-color="white"/>
<stop offset="1" stop-color="white" stop-opacity="0"/>
</linearGradient>
<linearGradient id="paint1_linear_1103_3128" x1="127.243" y1="105.341" x2="96.7848" y2="137.508" gradientUnits="userSpaceOnUse">
<stop stop-color="white"/>
<stop offset="1" stop-color="white" stop-opacity="0"/>
</linearGradient>
</defs>
</svg>
