<svg width="180" height="180" viewBox="0 0 180 180" fill="none" xmlns="http://www.w3.org/2000/svg">
<g clip-path="url(#clip0_1103_3128)">
<path d="M123.604 67H157.5C164.956 67 171 73.0442 171 80.5V80.5C171 87.9558 164.956 94 157.5 94H106" stroke="#9761F3" stroke-width="10"/>
<path d="M123.604 67H157.5C164.956 67 171 73.0442 171 80.5V80.5C171 87.9558 164.956 94 157.5 94H106" stroke="url(#paint0_linear_1103_3128)" stroke-opacity="0.2" stroke-width="10"/>
<ellipse cx="77" cy="125" rx="73" ry="16" fill="#5624AB"/>
<path fill-rule="evenodd" clip-rule="evenodd" d="M4 54C4 94.3168 36.6832 127 77 127C117.317 127 150 94.3168 150 54H4Z" fill="#9761F3"/>
<path fill-rule="evenodd" clip-rule="evenodd" d="M4 54C4 94.3168 36.6832 127 77 127C117.317 127 150 94.3168 150 54H4Z" fill="url(#paint1_linear_1103_3128)" fill-opacity="0.2"/>
<ellipse cx="77" cy="54" rx="73" ry="16" fill="#9761F3"/>
<ellipse cx="77" cy="54" rx="73" ry="16" fill="url(#paint2_linear_1103_3128)" fill-opacity="0.2"/>
<path fill-rule="evenodd" clip-rule="evenodd" d="M124.806 66.092C111.998 68.5266 95.2837 70 76.9991 70C59.1551 70 42.8065 68.5968 30.125 66.2663C31.9094 61.086 52.4377 57 77.4991 57C102.279 57 122.627 60.9946 124.806 66.092Z" fill="#7040C0"/>
</g>
<defs>
<linearGradient id="paint0_linear_1103_3128" x1="120.903" y1="73.4576" x2="131.117" y2="98.1273" gradientUnits="userSpaceOnUse">
<stop stop-color="white"/>
<stop offset="1" stop-color="white" stop-opacity="0"/>
</linearGradient>
<linearGradient id="paint1_linear_1103_3128" x1="37.4754" y1="71.4594" x2="68.666" y2="134.048" gradientUnits="userSpaceOnUse">
<stop stop-color="white"/>
<stop offset="1" stop-color="white" stop-opacity="0"/>
</linearGradient>
<linearGradient id="paint2_linear_1103_3128" x1="37.4754" y1="45.6535" x2="44.6165" y2="78.3431" gradientUnits="userSpaceOnUse">
<stop stop-color="white"/>
<stop offset="1" stop-color="white" stop-opacity="0"/>
</linearGradient>
<clipPath id="clip0_1103_3128">
<rect width="180" height="180" fill="white"/>
</clipPath>
</defs>
</svg>
