<svg width="180" height="180" viewBox="0 0 180 180" fill="none" xmlns="http://www.w3.org/2000/svg">
<path d="M20 121.295C20 104.726 33.4315 91.2949 50 91.2949V91.2949C66.5685 91.2949 80 104.726 80 121.295V140.433C80 144.775 76.48 148.295 72.1379 148.295H27.8621C23.52 148.295 20 144.775 20 140.433V121.295Z" fill="#5624AB"/>
<path d="M160 121.295C160 104.726 146.569 91.2949 130 91.2949V91.2949C113.431 91.2949 100 104.726 100 121.295V140.433C100 144.775 103.52 148.295 107.862 148.295H152.138C156.48 148.295 160 144.775 160 140.433V121.295Z" fill="#9761F3"/>
<path d="M160 121.295C160 104.726 146.569 91.2949 130 91.2949V91.2949C113.431 91.2949 100 104.726 100 121.295V140.433C100 144.775 103.52 148.295 107.862 148.295H152.138C156.48 148.295 160 144.775 160 140.433V121.295Z" fill="url(#paint0_linear_1103_3128)" fill-opacity="0.2"/>
<path d="M75.1699 65.2949C75.1699 79.102 63.977 91.2949 50.1699 91.2949C36.3628 91.2949 25.1699 79.102 25.1699 65.2949C25.1699 51.4878 36.3628 40.2949 50.1699 40.2949C63.977 40.2949 75.1699 51.4878 75.1699 65.2949Z" fill="#9761F3"/>
<path d="M75.1699 65.2949C75.1699 79.102 63.977 91.2949 50.1699 91.2949C36.3628 91.2949 25.1699 79.102 25.1699 65.2949C25.1699 51.4878 36.3628 40.2949 50.1699 40.2949C63.977 40.2949 75.1699 51.4878 75.1699 65.2949Z" fill="url(#paint1_linear_1103_3128)" fill-opacity="0.2"/>
<path d="M104.83 65.2949C104.83 79.102 116.023 91.2949 129.83 91.2949C143.637 91.2949 154.83 79.102 154.83 65.2949C154.83 51.4878 143.637 40.2949 129.83 40.2949C116.023 40.2949 104.83 51.4878 104.83 65.2949Z" fill="#5624AB"/>
<path fill-rule="evenodd" clip-rule="evenodd" d="M139.128 32.2954C155.012 37.4339 164.347 54.3584 154.085 73.2799C152.909 75.4479 150.005 75.7502 148.219 74.0493L145.675 71.6266C143.087 69.1621 143.443 65.0811 143.239 61.5134C142.989 57.1589 137.987 55.2063 133.96 60.2933C132.997 61.5096 131.035 61.6591 130.174 60.3684L127.486 56.3355C126.011 54.122 123.532 52.7867 120.872 52.7728L111.204 52.7222C109.094 52.7111 107.104 51.3706 107.011 49.2629C106.498 37.6246 123.643 27.286 139.128 32.2954Z" fill="#9761F3"/>
<path fill-rule="evenodd" clip-rule="evenodd" d="M139.128 32.2954C155.012 37.4339 164.347 54.3584 154.085 73.2799C152.909 75.4479 150.005 75.7502 148.219 74.0493L145.675 71.6266C143.087 69.1621 143.443 65.0811 143.239 61.5134C142.989 57.1589 137.987 55.2063 133.96 60.2933C132.997 61.5096 131.035 61.6591 130.174 60.3684L127.486 56.3355C126.011 54.122 123.532 52.7867 120.872 52.7728L111.204 52.7222C109.094 52.7111 107.104 51.3706 107.011 49.2629C106.498 37.6246 123.643 27.286 139.128 32.2954Z" fill="url(#paint2_linear_1103_3128)" fill-opacity="0.2"/>
<circle cx="64" cy="66.2949" r="5" fill="#5624AB"/>
<circle cx="5" cy="5" r="5" transform="matrix(-1 0 0 1 121 61.2949)" fill="#9761F3"/>
<circle cx="5" cy="5" r="5" transform="matrix(-1 0 0 1 121 61.2949)" fill="url(#paint3_linear_1103_3128)" fill-opacity="0.2"/>
<path fill-rule="evenodd" clip-rule="evenodd" d="M40.4993 32.2954C24.6153 37.4339 15.2798 54.3584 25.5423 73.2799C26.7182 75.4479 29.6223 75.7502 31.4083 74.0493L33.9521 71.6266C36.5399 69.1621 36.1836 65.0811 36.3882 61.5134C36.6378 57.1589 41.6404 55.2063 45.6673 60.2933C46.6301 61.5096 48.5921 61.6591 49.4525 60.3684L52.1406 56.3355C53.616 54.122 56.0953 52.7867 58.7554 52.7728L68.4227 52.7222C70.5325 52.7111 72.5226 51.3706 72.6155 49.2629C73.1287 37.6246 55.984 27.286 40.4993 32.2954Z" fill="#7040C0"/>
<defs>
<linearGradient id="paint0_linear_1103_3128" x1="130" y1="91.2949" x2="130" y2="148.295" gradientUnits="userSpaceOnUse">
<stop stop-color="white"/>
<stop offset="1" stop-color="white" stop-opacity="0"/>
</linearGradient>
<linearGradient id="paint1_linear_1103_3128" x1="58.5" y1="53" x2="67.4181" y2="78.3529" gradientUnits="userSpaceOnUse">
<stop stop-color="white"/>
<stop offset="1" stop-color="white" stop-opacity="0"/>
</linearGradient>
<linearGradient id="paint2_linear_1103_3128" x1="146.605" y1="42.0723" x2="121.973" y2="69.504" gradientUnits="userSpaceOnUse">
<stop stop-color="white"/>
<stop offset="1" stop-color="white" stop-opacity="0"/>
</linearGradient>
<linearGradient id="paint3_linear_1103_3128" x1="2.29283" y1="2.3917" x2="7.64432" y2="7.76095" gradientUnits="userSpaceOnUse">
<stop stop-color="white"/>
<stop offset="1" stop-color="white" stop-opacity="0"/>
</linearGradient>
</defs>
</svg>
