<svg width="180" height="180" viewBox="0 0 180 180" fill="none" xmlns="http://www.w3.org/2000/svg">
<path fill-rule="evenodd" clip-rule="evenodd" d="M76.4676 92.3601C76.4679 92.3599 76.4682 92.3598 76.4686 92.3597L90.4662 101.829L105.458 91.687C107.281 90.4537 109.469 92.641 108.235 94.4642L108.201 94.5144C108.202 94.5144 108.202 94.5145 108.202 94.5146L99.1371 107.915C98.9335 108.216 98.6651 108.441 98.3649 108.589C97.6271 108.952 96.6972 108.84 96.0655 108.209L92.5867 104.73C91.6547 103.798 90.2619 103.607 89.1414 104.158C88.9955 104.23 88.8542 104.314 88.7192 104.411C88.5881 104.506 88.4628 104.612 88.345 104.729L84.8662 108.208C84.7056 108.369 84.5257 108.496 84.3345 108.59C83.4683 109.017 82.3715 108.768 81.7946 107.915L72.6955 94.4642C71.4621 92.641 73.6494 90.4537 75.4727 91.687L76.4676 92.3601ZM52 127.88C52 115.354 58.0602 104.244 67.4085 97.3215C67.5075 97.4902 67.6135 97.6583 67.7267 97.8257L76.8258 111.276C79.2495 114.859 83.9666 115.777 87.5 113.698V146.88H59.8621C55.52 146.88 52 143.36 52 139.018V127.88ZM120.138 146.88H93.5V113.738C97.0258 115.766 101.698 114.837 104.107 111.276L113.206 97.8257L113.223 97.7997C122.212 104.75 128 115.639 128 127.88V139.018C128 143.36 124.48 146.88 120.138 146.88Z" fill="#9761F3"/>
<path fill-rule="evenodd" clip-rule="evenodd" d="M76.4676 92.3601C76.4679 92.3599 76.4682 92.3598 76.4686 92.3597L90.4662 101.829L105.458 91.687C107.281 90.4537 109.469 92.641 108.235 94.4642L108.201 94.5144C108.202 94.5144 108.202 94.5145 108.202 94.5146L99.1371 107.915C98.9335 108.216 98.6651 108.441 98.3649 108.589C97.6271 108.952 96.6972 108.84 96.0655 108.209L92.5867 104.73C91.6547 103.798 90.2619 103.607 89.1414 104.158C88.9955 104.23 88.8542 104.314 88.7192 104.411C88.5881 104.506 88.4628 104.612 88.345 104.729L84.8662 108.208C84.7056 108.369 84.5257 108.496 84.3345 108.59C83.4683 109.017 82.3715 108.768 81.7946 107.915L72.6955 94.4642C71.4621 92.641 73.6494 90.4537 75.4727 91.687L76.4676 92.3601ZM52 127.88C52 115.354 58.0602 104.244 67.4085 97.3215C67.5075 97.4902 67.6135 97.6583 67.7267 97.8257L76.8258 111.276C79.2495 114.859 83.9666 115.777 87.5 113.698V146.88H59.8621C55.52 146.88 52 143.36 52 139.018V127.88ZM120.138 146.88H93.5V113.738C97.0258 115.766 101.698 114.837 104.107 111.276L113.206 97.8257L113.223 97.7997C122.212 104.75 128 115.639 128 127.88V139.018C128 143.36 124.48 146.88 120.138 146.88Z" fill="url(#paint0_linear_1103_3128)" fill-opacity="0.2"/>
<path d="M64.8301 64.1748C64.8301 77.9819 76.023 90.1748 89.8301 90.1748C103.637 90.1748 114.83 77.9819 114.83 64.1748C114.83 50.3677 103.637 39.1748 89.8301 39.1748C76.023 39.1748 64.8301 50.3677 64.8301 64.1748Z" fill="#9761F3"/>
<path d="M64.8301 64.1748C64.8301 77.9819 76.023 90.1748 89.8301 90.1748C103.637 90.1748 114.83 77.9819 114.83 64.1748C114.83 50.3677 103.637 39.1748 89.8301 39.1748C76.023 39.1748 64.8301 50.3677 64.8301 64.1748Z" fill="url(#paint1_linear_1103_3128)" fill-opacity="0.2"/>
<path d="M112.511 63.3385C100.107 62.9268 87.7498 59.4406 84.0008 52.8798C82.1437 57.0582 76.5794 62.5299 66.8274 63.2906C65.4624 63.3971 64.2472 62.4481 63.9877 61.1038C60.8825 45.0177 70.3996 35.9243 79.0015 36.88C93.9606 26.2626 117.771 38.4699 115.365 60.9129C115.211 62.3483 113.954 63.3864 112.511 63.3385Z" fill="#5624AB"/>
<defs>
<linearGradient id="paint0_linear_1103_3128" x1="69.4255" y1="104.614" x2="97.7235" y2="143.456" gradientUnits="userSpaceOnUse">
<stop stop-color="white"/>
<stop offset="1" stop-color="white" stop-opacity="0"/>
</linearGradient>
<linearGradient id="paint1_linear_1103_3128" x1="87.5" y1="56.8799" x2="76.1634" y2="78.4783" gradientUnits="userSpaceOnUse">
<stop stop-color="white"/>
<stop offset="1" stop-color="white" stop-opacity="0"/>
</linearGradient>
</defs>
</svg>
