<?xml version="1.0" encoding="UTF-8"?>
<svg id="Layer_1" data-name="Layer 1" xmlns="http://www.w3.org/2000/svg" viewBox="0 0 35 35">
  <defs>
    <style>
      .cls-1 {
        fill-rule: evenodd;
      }
    </style>
  </defs>
  <path class="cls-1" d="M4,17.5c0-7.46,6.04-13.5,13.5-13.5s13.5,6.04,13.5,13.5-6.04,13.5-13.5,13.5-13.5-6.04-13.5-13.5ZM17.5,0C7.84,0,0,7.84,0,17.5s7.84,17.5,17.5,17.5,17.5-7.83,17.5-17.5S27.17,0,17.5,0Zm.5,10c0-1.1-.9-2-2-2s-2,.9-2,2v9c0,2.21,1.79,4,4,4h7c1.1,0,2-.9,2-2s-.9-2-2-2h-7V10Z"/>
</svg>