<svg id="Layer_1" data-name="Layer 1" xmlns="http://www.w3.org/2000/svg" viewBox="0 0 623.61 319.78"><defs><style>.cls-1{fill:#9761f3;fill-rule:evenodd;}</style></defs><path class="cls-1" d="M10.61,0l97.74,97.74a85.49,85.49,0,0,0,120.91,0l32-32a100.5,100.5,0,0,1,142.13,0l32,32a85.49,85.49,0,0,0,120.91,0L613,41l10.61,10.61-56.74,56.74a100.52,100.52,0,0,1-142.13,0l-32-32a85.49,85.49,0,0,0-120.91,0l-32,32a100.52,100.52,0,0,1-142.13,0L0,10.61Z"/><path class="cls-1" d="M10.61,45.5l97.74,97.74a85.49,85.49,0,0,0,120.91,0l32-32a100.5,100.5,0,0,1,142.13,0l32,32a85.49,85.49,0,0,0,120.91,0L613,86.5l10.61,10.61-56.74,56.74a100.52,100.52,0,0,1-142.13,0l-32-32a85.49,85.49,0,0,0-120.91,0l-32,32a100.52,100.52,0,0,1-142.13,0L0,56.11Z"/><path class="cls-1" d="M10.61,91l97.74,97.74a85.49,85.49,0,0,0,120.91,0l32-32a100.5,100.5,0,0,1,142.13,0l32,32a85.49,85.49,0,0,0,120.91,0L613,132l10.61,10.61-56.74,56.74a100.52,100.52,0,0,1-142.13,0l-32-32a85.49,85.49,0,0,0-120.91,0l-32,32a100.52,100.52,0,0,1-142.13,0L0,101.61Z"/><path class="cls-1" d="M10.61,136.5l97.74,97.74a85.49,85.49,0,0,0,120.91,0l32-32a100.5,100.5,0,0,1,142.13,0l32,32a85.49,85.49,0,0,0,120.91,0L613,177.5l10.61,10.61-56.74,56.74a100.52,100.52,0,0,1-142.13,0l-32-32a85.49,85.49,0,0,0-120.91,0l-32,32a100.52,100.52,0,0,1-142.13,0L0,147.11Z"/><path class="cls-1" d="M10.61,182l97.74,97.74a85.49,85.49,0,0,0,120.91,0l32-32a100.5,100.5,0,0,1,142.13,0l32,32a85.49,85.49,0,0,0,120.91,0L613,223l10.61,10.61-56.74,56.74a100.52,100.52,0,0,1-142.13,0l-32-32a85.49,85.49,0,0,0-120.91,0l-32,32a100.52,100.52,0,0,1-142.13,0L0,192.61Z"/></svg>