<svg width="417" height="324" viewBox="0 0 417 324" fill="none" xmlns="http://www.w3.org/2000/svg">
<g opacity="0.5">
<path d="M106.52 39.3462L129.017 61.8428L157.011 33.8489L145.995 22.8332L129.017 39.8325L106.52 17.3359L84.0236 39.8325L67.0243 22.8332L56.0086 33.8489L84.0236 61.8428L106.52 39.3462Z" fill="#9761F3"/>
<path d="M332.479 306.837H106.52V323.688H332.479V306.837Z" fill="#9761F3"/>
<path d="M332.48 80.3465C304.422 80.3465 277.486 93.4976 250.465 112.4L236.425 122.654C235.749 123.162 235.072 123.712 234.396 124.219C239.808 110.18 242.98 95.2314 243.593 79.9659H274.251V61.846H243.107C242.684 57.3213 242.071 52.8812 241.225 48.4834H303.365V30.3635H236.446C234.903 25.7966 233.148 21.3353 231.161 17.0009H332.48V-1.119H221.16C218.115 -5.77054 214.817 -10.2318 211.244 -14.4816H361.594V-32.6015H200.355H193.864H192.912C186.464 -37.8873 179.55 -42.6234 172.234 -46.7041H390.73V-64.084H106.52V-46.6618C172.699 -45.9007 226.319 8.14182 226.319 74.5109C226.319 106.564 214.077 136.376 192.236 158.81C164.77 181.983 124.831 215.326 106.52 215.326C90.8108 215.326 78.0402 202.555 78.0402 186.846C78.0402 171.136 90.8108 158.366 106.52 158.366H147.792L165.172 140.986H106.52C81.2329 140.986 60.6604 161.558 60.6604 186.846C60.6604 212.133 81.2329 232.706 106.52 232.706C126.332 232.706 153.818 213.127 187.373 185.493L205.556 170.312C249.767 132.972 291.546 97.7052 332.501 97.7052C381.638 97.7052 421.62 137.687 421.62 186.825C421.62 235.962 381.638 275.944 332.501 275.944C312.203 275.944 292.35 268.903 276.555 256.133C263.045 245.201 252.981 230.464 247.674 214.1C251.141 211.161 254.799 208.095 258.584 204.944C266.745 238.203 296.747 262.983 332.501 262.983C374.513 262.983 408.68 228.815 408.68 186.803C408.68 144.791 374.492 110.624 332.501 110.624C296.282 110.624 256.279 144.411 213.908 180.164C175.807 212.345 136.396 245.603 106.541 245.603C74.1076 245.603 47.7418 219.216 47.7418 186.803C47.7418 154.792 72.1201 128.68 103.941 128.025H106.541H178.112L186.696 119.441L147.179 79.9236H0.0422958V98.0435H47.8263C42.0753 101.849 36.7261 106.205 31.8208 111.047V110.856H0.0422958V128.236H17.6124C6.49102 145.045 0 165.174 0 186.803C0 245.54 47.784 293.324 106.52 293.324H332.48C391.216 293.324 439 245.54 439 186.803C438.979 128.131 391.195 80.3465 332.48 80.3465ZM17.3799 186.867C17.3799 140.33 53.239 102.04 98.7819 98.1069L106.52 97.3669H141.745L155.087 110.708H106.499L98.4436 111.11C60.1952 115.148 30.3196 147.582 30.3196 186.867C30.3196 228.879 64.4873 263.068 106.499 263.068C142.718 263.068 182.721 229.28 225.092 193.527C263.193 161.347 302.604 128.088 332.459 128.088C364.892 128.088 391.258 154.475 391.258 186.888C391.258 219.322 364.871 245.688 332.459 245.688C301.927 245.688 276.767 222.282 273.934 192.47C278.205 189.066 282.518 185.725 286.81 182.532C286.662 183.97 286.577 185.408 286.577 186.888C286.577 212.175 307.15 232.748 332.437 232.748C357.725 232.748 378.297 212.175 378.297 186.888C378.297 161.6 357.725 141.028 332.437 141.028C323.346 141.028 314.867 143.713 307.742 148.301C287.317 158.64 262.263 179.044 233.423 203.422C189.212 240.761 147.433 276.028 106.499 276.028C57.362 275.986 17.3799 236.004 17.3799 186.867ZM303.978 186.867C303.978 177.141 308.884 168.578 316.347 163.419C322.606 160.29 328.166 158.387 332.459 158.387C348.168 158.387 360.939 171.157 360.939 186.867C360.939 202.576 348.168 215.347 332.459 215.347C316.77 215.347 303.978 202.576 303.978 186.867ZM165.257 275.986C187.944 263.448 210.461 245.371 233.508 226.067C240.252 242.981 251.289 258.141 265.603 269.707C268.415 271.969 271.333 274.041 274.335 276.007H165.257V275.986Z" fill="#9761F3"/>
</g>
</svg>
