<svg id="Layer_1" data-name="Layer 1" xmlns="http://www.w3.org/2000/svg" viewBox="0 0 859 300"><defs><style>.cls-1{fill:#eff4f5;fill-rule:evenodd;}</style></defs><path class="cls-1" d="M665.57,0l3.78,3.78,90.93,90.94L850.92,3.79l7.56,7.54L764.07,106l-3.78,3.79-3.78-3.78L665.58,15.12,575,106l-3.78,3.79-3.78-3.78L476.45,15.12,385.82,106,382,109.83l-3.78-3.78L287.33,15.12,196.69,106l-3.78,3.79-3.78-3.78L98.2,15.12,7.56,106,0,98.5,94.41,3.79,98.19,0,102,3.78,192.9,94.72,283.54,3.79,287.31,0l3.79,3.78L382,94.72,472.67,3.79,476.44,0l3.78,3.78,90.94,90.94L661.79,3.79ZM98.19,47.36,102,51.14l90.93,90.93,90.64-90.93,3.77-3.78,3.79,3.78L382,142.07l90.64-90.93,3.77-3.78,3.78,3.78,90.94,90.93,90.63-90.93,3.78-3.78,3.78,3.78,90.93,90.93,90.64-90.93,7.56,7.54L764.07,153.4l-3.78,3.79-3.78-3.78L665.58,62.47,575,153.4l-3.78,3.79-3.78-3.78L476.45,62.47,385.82,153.4,382,157.19l-3.78-3.78L287.33,62.47,196.69,153.4l-3.78,3.79-3.78-3.78L98.2,62.47,7.56,153.4,0,145.86,94.41,51.14ZM665.57,94.72l3.78,3.78,90.93,90.9,90.64-90.9,7.56,7.54-94.41,94.69-3.78,3.78-3.78-3.78-90.93-90.9-90.64,90.9-3.77,3.78-3.78-3.78-90.94-90.9-90.63,90.9L382,204.51l-3.78-3.78-90.93-90.9-90.64,90.9-3.78,3.78-3.78-3.78L98.2,109.83,7.56,200.73,0,193.19,94.41,98.5l3.78-3.78L102,98.5l90.93,90.9,90.64-90.9,3.77-3.78,3.79,3.78L382,189.4l90.64-90.9,3.77-3.78,3.78,3.78,90.94,90.9,90.63-90.9ZM98.19,142.07l3.78,3.78,90.93,90.91,90.64-90.9,3.77-3.79,3.79,3.78L382,236.76l90.64-90.9,3.77-3.79,3.78,3.78,90.94,90.91,90.63-90.9,3.78-3.79,3.78,3.78,90.93,90.91,90.64-90.9,7.56,7.54-94.41,94.69-3.78,3.78-3.78-3.78-90.93-90.9-90.64,90.9-3.77,3.78-3.78-3.78-90.94-90.9-90.63,90.9L382,251.87l-3.78-3.78-90.93-90.9-90.64,90.9-3.78,3.78-3.78-3.78L98.2,157.19,7.56,248.09,0,240.55l94.41-94.69Zm0,47.33,3.78,3.78,90.93,90.94,90.64-90.93,3.77-3.79,3.79,3.78L382,284.12l90.64-90.93,3.77-3.79,3.78,3.78,90.94,90.94,90.63-90.93,3.78-3.79,3.78,3.78,90.93,90.94,90.64-90.93,7.56,7.54-94.41,94.72-3.78,3.78-3.78-3.78-90.93-90.93L575,295.45l-3.78,3.78-3.78-3.78-90.94-90.93-90.63,90.93L382,299.23l-3.78-3.78-90.93-90.93-90.64,90.93-3.78,3.78-3.78-3.78L98.2,204.52,7.56,295.45,0,287.9l94.41-94.71Z"/></svg>