<svg id="Layer_1" data-name="Layer 1" xmlns="http://www.w3.org/2000/svg" xmlns:xlink="http://www.w3.org/1999/xlink" viewBox="0 0 29 29"><defs><style>.cls-1{fill:#fff;}.cls-2{fill:url(#linear-gradient);}</style><linearGradient id="linear-gradient" x1="6.57" y1="26.83" x2="22.46" y2="4.13" gradientTransform="matrix(1, 0, 0, -1, 0, 30)" gradientUnits="userSpaceOnUse"><stop offset="0.22" stop-color="#b2bdda"/><stop offset="0.33" stop-color="#9aa9ce"/><stop offset="0.56" stop-color="#637eb2"/><stop offset="0.88" stop-color="#004d8f"/><stop offset="0.9" stop-color="#004b8d"/></linearGradient></defs><path class="cls-1" d="M29,14.5A14.5,14.5,0,1,1,14.5,0,14.5,14.5,0,0,1,29,14.5Z"/><path class="cls-2" d="M28.38,14.49A13.88,13.88,0,0,1,1,17.83a18.84,18.84,0,0,0,7.62-1.7v-5.4a1.08,1.08,0,0,0-.44-1,3.16,3.16,0,0,0-1.59-.29V9c1,0,1.93-.1,2.77-.18a12.57,12.57,0,0,0,2.17-.38l0,7.84v1.46c0,.51,0,1,0,1.51s0,1-.07,1.38a8.83,8.83,0,0,1-.13,1.09,14,14,0,0,0,2.75,1.19,9.66,9.66,0,0,0,2.82.47A7.12,7.12,0,0,0,19.07,23a5.69,5.69,0,0,0,1.84-1,4.92,4.92,0,0,0,1.3-1.59,4.47,4.47,0,0,0,.5-2.13,5.24,5.24,0,0,0-.38-2,4.62,4.62,0,0,0-1-1.59,4.91,4.91,0,0,0-1.58-1.05,5.14,5.14,0,0,0-2-.39A5.24,5.24,0,0,0,16,13.6a7.61,7.61,0,0,0-1.55.71V12a18.81,18.81,0,0,0,4.93-9.65A13.5,13.5,0,0,0,1.49,10,13.79,13.79,0,0,1,19.54,1.56h0A13.86,13.86,0,0,1,28.38,14.49ZM14.89,21.6a2.05,2.05,0,0,0,1.93,1,2.05,2.05,0,0,0,1.93-1,6.32,6.32,0,0,0,.57-3.08,6.26,6.26,0,0,0-.57-3.08,2,2,0,0,0-1.93-1,2.06,2.06,0,0,0-1.93,1,6.37,6.37,0,0,0-.57,3.08A6.32,6.32,0,0,0,14.89,21.6ZM11.27,6.87a1.86,1.86,0,0,0,.58-1.41,1.87,1.87,0,0,0-.58-1.41,1.89,1.89,0,0,0-1.39-.56,1.95,1.95,0,0,0-2,2,1.95,1.95,0,0,0,2,2A1.89,1.89,0,0,0,11.27,6.87Z"/></svg>