<svg id="Layer_1" data-name="Layer 1" xmlns="http://www.w3.org/2000/svg" viewBox="0 0 104 30"><defs><style>.cls-1{fill:#fff;}.cls-2{fill:#7089c3;}.cls-3{fill:#20201e;}.cls-4{fill:#657fbc;}.cls-5{fill:#b1c63b;}.cls-6{fill:#64ab87;}.cls-7{fill:#c03470;}.cls-8{fill:#68b8eb;}.cls-9{fill:#ecc143;}</style></defs><path class="cls-1" d="M103.17,14.65A14.71,14.71,0,0,1,88.41,29.22H14.76A14.71,14.71,0,0,1,0,14.65v-.08A14.71,14.71,0,0,1,14.76,0H88.41a14.71,14.71,0,0,1,14.76,14.57Z"/><path class="cls-2" d="M97.4,14.63a12.88,12.88,0,0,1-.54,3.8A16.59,16.59,0,0,1,95.19,22a4.63,4.63,0,0,1-1,1.28,1.7,1.7,0,0,1-1,.26c-.31,0-.47-.09-.47-.25a5.57,5.57,0,0,1,.39-.9c.27-.54.54-1.19.83-1.93a18,18,0,0,0,.74-2.65A15.61,15.61,0,0,0,95,14.63a15.78,15.78,0,0,0-.32-3.2,17.66,17.66,0,0,0-.74-2.63c-.29-.75-.56-1.39-.82-1.94A7.59,7.59,0,0,1,92.72,6c0-.17.15-.26.47-.26a1.69,1.69,0,0,1,1,.25,4.79,4.79,0,0,1,1,1.27,17.6,17.6,0,0,1,1,1.8,12.44,12.44,0,0,1,.69,1.77,11.76,11.76,0,0,1,.42,1.84A12.6,12.6,0,0,1,97.4,14.63Z"/><path class="cls-3" d="M49.69,12.54h.85l1.79,4.15h-1L51,15.77H49.23l-.38.92h-.94Zm1,2.42-.55-1.33L49.55,15Z"/><path class="cls-3" d="M52.43,14.64h0a2.11,2.11,0,0,1,2.18-2.13,2.18,2.18,0,0,1,1.64.63l-.58.67a1.55,1.55,0,0,0-1.07-.47,1.23,1.23,0,0,0-1.21,1.28v0a1.23,1.23,0,0,0,1.21,1.29,1.5,1.5,0,0,0,1.1-.48l.58.58a2.13,2.13,0,0,1-1.71.74A2.09,2.09,0,0,1,52.43,14.64Z"/><path class="cls-3" d="M57,14.64h0a2.1,2.1,0,0,1,2.17-2.13,2.2,2.2,0,0,1,1.65.63l-.58.67a1.56,1.56,0,0,0-1.07-.47,1.22,1.22,0,0,0-1.21,1.28v0a1.22,1.22,0,0,0,1.21,1.29,1.46,1.46,0,0,0,1.09-.48l.59.58a2.13,2.13,0,0,1-1.71.74A2.09,2.09,0,0,1,57,14.64Z"/><path class="cls-3" d="M61.78,12.57h1.91a1.66,1.66,0,0,1,1.22.42,1.27,1.27,0,0,1,.36.94h0a1.29,1.29,0,0,1-.9,1.28l1,1.46H64.32l-.89-1.32H62.7v1.32h-.92Zm1.85,2c.45,0,.7-.24.7-.58v0c0-.38-.27-.58-.72-.58H62.7v1.18Z"/><path class="cls-3" d="M66.34,12.57h3.15v.8H67.25v.84h2V15h-2v.86h2.26v.81H66.34Z"/><path class="cls-3" d="M70.57,12.57H72.2a2.06,2.06,0,0,1,2.22,2v0a2.08,2.08,0,0,1-2.22,2.06H70.57Zm1.63,3.3a1.18,1.18,0,0,0,1.26-1.23h0a1.19,1.19,0,0,0-1.26-1.24h-.71v2.48Z"/><path class="cls-3" d="M76.26,12.57h-.92v4.11h.92Z"/><path class="cls-3" d="M78.24,13.4H77v-.83h3.47v.83H79.16v3.29h-.92Z"/><path class="cls-3" d="M81.14,12.57h3.15v.8H82.05v.84h2V15h-2v.86h2.27v.81H81.14Z"/><path class="cls-3" d="M85.37,12.57H87a2.06,2.06,0,0,1,2.22,2v0A2.08,2.08,0,0,1,87,16.69H85.37ZM87,15.87a1.18,1.18,0,0,0,1.26-1.23h0A1.19,1.19,0,0,0,87,13.39h-.71v2.48Z"/><path class="cls-4" d="M23.51,14.52a1.92,1.92,0,0,1,3.83,0v7.06a1.92,1.92,0,0,1-3.83,0Z"/><path class="cls-5" d="M23.51,7.54a1.92,1.92,0,0,1,3.83,0v7.05a1.92,1.92,0,0,1-3.83,0Z"/><path class="cls-6" d="M43,7.44a7.11,7.11,0,0,0-2.69-1.31,11.21,11.21,0,0,0-3.21-.45c-3.61,0-6.19,2.09-6.19,5.26V11c-.07,3.69,3.17,4.44,6.22,5.4a.73.73,0,0,0,.21.06l.08,0a1.72,1.72,0,0,0,.39,0,1.91,1.91,0,0,0,1.92-1.89,1.85,1.85,0,0,0-1-1.65l-.06,0-.28-.1L37,12.45c-1.72-.52-2.19-.9-2.19-1.81v0c0-.85.78-1.52,2.27-1.52a7.4,7.4,0,0,1,3.71,1.17,1.93,1.93,0,0,0,1,.27A1.81,1.81,0,0,0,43,7.44Z"/><path class="cls-7" d="M19,18.52a2,2,0,0,0-1.11.36,5.52,5.52,0,0,1-3.42,1.18A5,5,0,0,1,9.6,14.9v-.37a1.87,1.87,0,0,0-1.92-1.86,1.89,1.89,0,0,0-1.94,1.86c0,4.84,3.29,8.89,8.76,8.89a9,9,0,0,0,5.62-1.68A1.79,1.79,0,0,0,19,18.52Z"/><path class="cls-8" d="M20.1,7.38A9,9,0,0,0,14.49,5.7a8.54,8.54,0,0,0-8.76,8.84,1.93,1.93,0,0,0,3.85,0v-.32a5.06,5.06,0,0,1,4.87-5.16,5.61,5.61,0,0,1,3.43,1.18,1.91,1.91,0,0,0,1.1.36A1.79,1.79,0,0,0,20.1,7.38Z"/><path class="cls-9" d="M43.58,15.86a5.5,5.5,0,0,0-3.32-2.42c-.65-.23-1.33-.46-2-.63h-.19a1.72,1.72,0,0,0-.33,0,1.87,1.87,0,0,0-.44,3.7s.65.13,1.24.3c.85.25,1.64.66,1.64,1.7v.05c0,1-.95,1.63-2.53,1.63a7.45,7.45,0,0,1-4.5-1.55,1.89,1.89,0,0,0-1.1-.35A1.77,1.77,0,0,0,31,21.43a11.46,11.46,0,0,0,6.6,2.09c3.8,0,6.46-1.94,6.46-5.39v-.05A4.74,4.74,0,0,0,43.58,15.86Z"/></svg>