<svg width="84" height="74" viewBox="0 0 84 74" fill="none" xmlns="http://www.w3.org/2000/svg">
<path d="M20.265 19.6771L24.5449 23.957L29.8706 18.6313L27.7749 16.5356L24.5449 19.7696L20.265 15.4897L15.9851 19.7696L12.7511 16.5356L10.6554 18.6313L15.9851 23.957L20.265 19.6771Z" fill="#EFF4F5"/>
<path d="M63.2529 70.5664H20.265V73.7723H63.2529V70.5664Z" fill="#EFF4F5"/>
<path d="M63.253 27.4774C57.9152 27.4774 52.7906 29.9793 47.6499 33.5754L44.979 35.5263C44.8503 35.6228 44.7216 35.7274 44.5929 35.8239C45.6226 33.153 46.226 30.3092 46.3426 27.4049H52.1752V23.9577H46.2501C46.1697 23.0969 46.053 22.2522 45.8921 21.4155H57.7141V17.9683H44.983C44.6894 17.0994 44.3555 16.2507 43.9774 15.4261H63.253V11.9789H42.0748C41.4956 11.0939 40.8681 10.2452 40.1883 9.43667H68.7919V5.98943H38.1167H36.8818H36.7008C35.474 4.98381 34.1586 4.08279 32.7669 3.30645H74.3348V0H20.2651V3.3145C32.8554 3.45931 43.0563 13.7407 43.0563 26.3671C43.0563 32.4652 40.7273 38.1368 36.5721 42.4047C31.3469 46.8133 23.7485 53.1567 20.2651 53.1567C17.2764 53.1567 14.8469 50.7271 14.8469 47.7384C14.8469 44.7497 17.2764 42.3202 20.2651 42.3202H28.1169L31.4234 39.0137H20.2651C15.4542 39.0137 11.5404 42.9276 11.5404 47.7384C11.5404 52.5493 15.4542 56.4631 20.2651 56.4631C24.0341 56.4631 29.2633 52.7383 35.6469 47.481L39.1062 44.5929C47.5172 37.4892 55.4655 30.7798 63.257 30.7798C72.6052 30.7798 80.2116 38.3862 80.2116 47.7344C80.2116 57.0826 72.6052 64.689 63.257 64.689C59.3955 64.689 55.6184 63.3495 52.6136 60.92C50.0433 58.8404 48.1286 56.0367 47.119 52.9234C47.7786 52.3642 48.4745 51.781 49.1945 51.1816C50.7472 57.509 56.4551 62.2233 63.257 62.2233C71.2496 62.2233 77.7499 55.723 77.7499 47.7304C77.7499 39.7378 71.2456 33.2375 63.257 33.2375C56.3666 33.2375 48.7561 39.6654 40.6951 46.4673C33.4467 52.5895 25.9488 58.9168 20.2691 58.9168C14.0987 58.9168 9.08269 53.8968 9.08269 47.7304C9.08269 41.6404 13.7206 36.6727 19.7744 36.548H20.2691H33.8851L35.5182 34.9149L28.0003 27.3969H0.00804661V30.8441H9.09877C8.00467 31.5682 6.98699 32.3968 6.05379 33.3179V33.2817H0.00804661V36.5882H3.3507C1.23489 39.786 0 43.6154 0 47.7304C0 58.9047 9.09073 67.9955 20.2651 67.9955H63.253C74.4274 67.9955 83.5181 58.9047 83.5181 47.7304C83.5141 36.5681 74.4233 27.4774 63.253 27.4774ZM3.30645 47.7424C3.30645 38.889 10.1285 31.6044 18.7929 30.8562L20.2651 30.7154H26.9665L29.5047 33.2536H20.2611L18.7285 33.33C11.4519 34.0983 5.76819 40.2687 5.76819 47.7424C5.76819 55.735 12.2685 62.2393 20.2611 62.2393C27.1515 62.2393 34.762 55.8115 42.823 49.0095C50.0714 42.8873 57.5693 36.56 63.249 36.56C69.4194 36.56 74.4354 41.5801 74.4354 47.7465C74.4354 53.9169 69.4154 58.9329 63.249 58.9329C57.4406 58.9329 52.6538 54.48 52.1148 48.8084C52.9274 48.1608 53.748 47.5252 54.5645 46.9178C54.5364 47.1914 54.5203 47.4649 54.5203 47.7465C54.5203 52.5573 58.4341 56.4712 63.2449 56.4712C68.0558 56.4712 71.9696 52.5573 71.9696 47.7465C71.9696 42.9356 68.0558 39.0218 63.2449 39.0218C61.5153 39.0218 59.9023 39.5326 58.5467 40.4055C54.661 42.3725 49.8944 46.2541 44.4078 50.892C35.9969 57.9957 28.0485 64.7051 20.2611 64.7051C10.9129 64.6971 3.30645 57.0906 3.30645 47.7424ZM57.8307 47.7424C57.8307 45.8921 58.7639 44.263 60.1839 43.2815C61.3745 42.6862 62.4324 42.3242 63.249 42.3242C66.2376 42.3242 68.6672 44.7538 68.6672 47.7424C68.6672 50.7311 66.2376 53.1607 63.249 53.1607C60.2643 53.1607 57.8307 50.7311 57.8307 47.7424ZM31.4395 64.6971C35.7555 62.3117 40.0394 58.8726 44.4239 55.2001C45.7071 58.418 47.8068 61.3021 50.53 63.5024C51.065 63.9328 51.6201 64.327 52.1913 64.7011H31.4395V64.6971Z" fill="#EFF4F5"/>
</svg>
