<svg xmlns="http://www.w3.org/2000/svg" viewBox="0 0 162.49 73.52" preserveAspectRatio="none">
    <defs>
        <style>
            .cls-1 {
                fill: #58d6eb;
            }

            .cls-2 {
                fill: #fff;
                opacity: 0.5;
            }

            .cls-3 {
                fill: #12aac4;
            }
        </style>
    </defs>
    <path class="cls-1" d="M37.6,12.7A79.61,79.61,0,0,1,63.54,0H0V25.76c12.84,0,25.67-4.35,37.6-13.06Z" />
    <polygon class="cls-1" points="0 73.52 0.01 73.52 0 73.52 0 73.52" />
    <polygon class="cls-2" points="0 73.52 0.01 73.52 0 73.52 0 73.52" />
    <path class="cls-1" d="M99,0a79.67,79.67,0,0,1,25.93,12.7h0c11.93,8.71,24.77,13.06,37.6,13.06V0Z" />
    <path class="cls-1"
        d="M81.25,8.54h0C68.56,8.64,55.88,13,44.09,21.59,30.22,31.71,15.11,36.76,0,36.76V62.52c12.84,0,25.67-4.35,37.6-13.06h0c13.73-10,28.68-15.06,43.65-15.16h0c15,.1,29.91,5.15,43.64,15.16h0c11.93,8.71,24.77,13.06,37.6,13.06V36.76c-15.11,0-30.22-5.06-44.08-15.17C106.61,13,93.93,8.64,81.25,8.54Z" />
    <polygon class="cls-1" points="162.49 73.52 162.49 73.52 162.48 73.52 162.49 73.52" />
    <polygon class="cls-2" points="162.49 73.52 162.49 73.52 162.48 73.52 162.49 73.52" />
    <path class="cls-1"
        d="M81.25,45.3h0c-12.69.1-25.37,4.44-37.16,13.05C30.23,68.46,15.12,73.52,0,73.52H63.54a68.77,68.77,0,0,1,17.71-2.46h0A68.83,68.83,0,0,1,99,73.52h63.52c-15.11,0-30.21-5.06-44.07-15.17C106.61,49.74,93.93,45.4,81.25,45.3Z" />
    <path class="cls-3" d="M81.25,71.06a68.77,68.77,0,0,0-17.71,2.46H99a68.83,68.83,0,0,0-17.71-2.46Z" />
    <path class="cls-3"
        d="M124.89,49.46c-13.73-10-28.68-15.06-43.64-15.16h0c-15,.1-29.92,5.15-43.65,15.16h0C25.67,58.17,12.84,62.52,0,62.52v11H0c15.11,0,30.22-5.06,44.08-15.17,11.79-8.61,24.47-13,37.16-13.05h0c12.68.1,25.36,4.44,37.16,13.05,13.86,10.11,29,15.17,44.07,15.17h0v-11c-12.83,0-25.67-4.35-37.6-13.06Z" />
    <path class="cls-3"
        d="M124.89,12.7A79.67,79.67,0,0,0,99,0H63.54A79.61,79.61,0,0,0,37.6,12.7h0C25.67,21.41,12.84,25.76,0,25.76v11c15.11,0,30.22-5,44.09-15.17C55.88,13,68.56,8.64,81.25,8.54h0c12.68.1,25.36,4.44,37.16,13.05,13.86,10.11,29,15.17,44.08,15.17v-11c-12.83,0-25.67-4.35-37.6-13.06Z" />
</svg>