<svg width="998" height="485" viewBox="0 0 998 485" fill="none" xmlns="http://www.w3.org/2000/svg">
<path d="M505.897 362.157C503.64 353.126 505.761 344.096 505.039 335.065C504.407 327.299 502.376 323.596 494.137 324.296C490.924 324.243 487.724 323.857 484.59 323.145C485.448 317.907 490.842 319.916 494.679 316.778C476.126 317.365 459.379 314.814 445.407 303.436C431.865 292.419 421.28 279.392 419.406 261.151C415.953 230.108 435.025 211.483 457.46 196.063C472.402 185.859 502.601 191.548 515.737 204.213C517.388 205.891 519.372 207.205 521.56 208.072C523.748 208.939 526.093 209.34 528.445 209.248C539.73 209.09 551.015 209.248 562.143 209.248C573.27 209.248 581.508 203.401 585.909 191.932C586.993 188.568 585.007 186.31 582.975 184.166C578.709 179.65 574.353 175.316 569.749 171.207C566.012 167.979 561.275 166.142 556.339 166.006C551.404 165.871 546.573 167.445 542.664 170.462C532.553 178.409 515.015 177.777 505.49 169.085C502.429 165.909 499.205 162.895 495.83 160.054C488.111 154.342 481.317 154.5 474.185 160.867C469.784 164.818 465.789 169.198 461.433 173.194C452.63 181.276 446.559 179.966 442.36 168.52C441.962 166.799 441.308 165.148 440.419 163.621C439.72 143.867 447.732 133.572 467.504 130.163C473.418 129.125 475.246 126.641 475.765 121.133C477.119 106.458 487.186 97.1117 501.811 96.2989C504.068 96.1635 506.529 96.2989 508.899 96.2989C524.134 96.2989 524.292 96.2989 528.422 82.4145C530.679 74.8967 537.044 70.6749 541.355 64.7825C541.807 61.6218 541.355 58.8224 537.811 57.7387C534.922 56.8357 532.756 58.3257 530.792 60.2898C525.623 65.4824 520.342 70.5395 514.993 75.5965C507.228 83.0015 504.362 82.3694 501.653 72.2101C501.538 71.3799 501.194 70.5982 500.66 69.9525C499.737 65.4556 500.111 60.7889 501.737 56.4961C503.363 52.2034 506.176 48.4612 509.847 45.7056C511.94 44.0485 513.827 42.146 515.467 40.039C526.752 23.897 543.274 25.545 559.57 27.2382C566.002 27.9155 570.652 32.7243 574.602 37.5782C582.208 46.857 591.123 51.1239 603.785 50.2208C619.359 48.9792 635.113 49.7467 650.777 50.0402C656.826 50.0402 661.927 48.8889 665.651 43.9898C677.14 28.8412 692.962 24.055 711.109 25.4547C714.626 25.858 718.188 25.3251 721.434 23.9098C724.68 22.4946 727.495 20.2473 729.594 17.395C734.229 11.3949 740.312 6.67082 747.272 3.66575C754.232 0.660675 761.841 -0.526867 769.386 0.214505C778.55 0.722496 787.735 0.722496 796.899 0.214505C803.42 -0.259176 809.954 0.915146 815.902 3.6294C821.85 6.34366 827.02 10.5107 830.936 15.7469C833.763 19.6809 837.58 22.797 842 24.7794C846.419 26.7618 851.285 27.54 856.102 27.0351C870.841 26.2223 885.669 26.877 900.453 26.8319C905.203 26.6302 909.936 27.5251 914.284 29.4474C918.633 31.3697 922.481 34.2677 925.529 37.9168C927.34 40.2543 929.709 42.0995 932.418 43.2829C935.127 44.4663 938.09 44.95 941.035 44.6897C950.47 44.2607 959.949 44.5316 969.429 44.5768C985.68 44.5768 990.623 49.4533 990.894 65.6404C990.894 69.4332 991.593 73.3615 989.404 76.9285C982.633 74.6709 980.376 81.4438 977.351 84.4916C974.953 87.0923 971.978 89.0929 968.665 90.3321C965.352 91.5713 961.795 92.0144 958.279 91.6256C953.314 91.3999 948.325 91.4676 943.337 91.6256C940.846 91.575 938.381 92.1398 936.161 93.27C933.94 94.4003 932.033 96.061 930.608 98.105L930.404 119.214C928.881 129.127 923.91 138.185 916.365 144.793C911.422 149.308 906.728 154.342 901.92 159.151C890.635 170.439 885.196 172.697 869.306 173.081C873.143 174.255 878.808 171.478 881.042 177.596C875.49 180.215 869.532 179.267 863.799 179.041C857.14 178.77 853.867 181.14 854.296 188.071C851.781 196.774 846.775 204.551 839.896 210.444C835.145 214.54 831.523 219.787 829.378 225.683C828.453 232.14 830.417 238.845 827.776 245.189C823.262 247.447 819.628 251.33 813.624 251.082C807.62 250.833 802.339 249.501 797.825 244.76C787.894 234.24 777.511 224.171 767.174 214.011C760.719 207.645 759.274 207.667 752.684 214.147C744.265 222.41 736.026 230.898 727.562 239.139C718.534 247.921 710.883 247.763 701.539 239.139C697.024 234.827 692.262 230.605 687.703 226.27C684.684 223.257 680.673 221.443 676.417 221.168C666.096 220.676 656.344 216.287 649.13 208.887C645.09 204.8 641.636 203.378 641.072 211.28C650.1 220.558 658.993 229.973 668.157 239.094C672.671 243.609 674.206 248.305 671.497 254.174C670.165 254.078 668.829 254.312 667.609 254.856C666.388 255.399 665.321 256.235 664.5 257.29C655.472 267.156 643.803 265.598 632.36 264.785C628.026 264.492 624.911 261.67 621.932 258.69C613.852 250.562 605.734 242.465 597.578 234.398C595.728 232.569 593.922 230.289 590.807 231.531C587.693 232.772 587.738 235.481 588.144 238.303C601.573 251.985 614.777 265.914 628.545 279.257C635.316 285.736 638.837 292.802 637.235 302.059C635.316 310.909 629.719 317.365 623.693 323.687C616.402 331.25 607.352 337.481 603.898 348.159C603.898 371.323 603.898 394.493 603.898 417.672C603.898 421.193 604.169 424.76 602.341 427.989C599.7 430.405 598.752 433.836 596.969 436.771C584.33 457.18 565.077 461.921 548.217 459.37C535.126 457.383 528.354 448.578 525.917 432.956C524.427 419.907 527.474 406.632 524.066 393.673C523.208 387.532 518.672 383.604 515.038 379.269C510.682 374.145 508.876 367.936 505.897 362.157Z" fill="#9761F3"/>
<path d="M0.203284 83.4404C0.203284 77.5527 0 71.6649 0 65.7772C0 44.0988 11.5646 32.3459 33.8806 32.1203C59.6072 31.8496 85.3113 32.1203 111.038 32.1203C135.869 32.1203 160.714 32.1203 185.575 32.1203C207.869 32.1203 215.345 42.0234 209.901 64.153C203.803 64.153 201.973 67.4691 202.854 72.9508C210.308 88.6288 229.959 96.5918 245.363 90.1627C248.458 88.8543 248.751 86.3504 248.796 83.6659C248.796 78.0715 248.796 72.3868 248.796 66.86C248.796 64.1982 248.796 61.2656 251.687 59.9347C255.053 58.3556 257.221 60.837 259.39 62.8221C261.987 65.2358 264.675 67.5819 267.024 70.2212C268.604 71.9563 270.519 73.3544 272.654 74.3313C274.789 75.3082 277.099 75.8438 279.447 75.9059C300.905 77.6429 308.291 88.9446 302.034 109.924C297.291 108.773 295.258 112.563 292.593 115.135C275.02 132.55 257.108 149.604 240.191 167.583C227.226 181.366 212.522 189.193 193.255 187.028C190.998 186.892 188.735 186.892 186.479 187.028C192.735 187.253 198.427 186.893 204.097 187.344C207.236 187.592 210.873 187.344 211.731 191.697C201.906 194.968 191.787 192.893 181.803 193.231C176.111 193.434 172.046 193.998 172.113 201.24C172.113 207.488 173.31 211.323 180.764 211.323C185.956 211.258 191.094 212.374 195.79 214.586C200.486 216.798 204.617 220.049 207.869 224.091C208.072 224.317 208.32 224.497 208.501 224.723C221.15 242.07 237.593 250.101 259.503 246.582C268.108 245.183 275.607 249.492 281.909 255.334C286.02 259.169 290.266 262.869 294.038 266.997C300.34 273.877 306.597 279.133 317.258 278.998C327.919 278.863 333.633 286.532 333.927 297.045C334.153 305.594 333.791 314.144 333.701 322.693C330.742 334.311 321.323 341.372 313.779 349.47C295.393 369.163 277.64 389.488 258.893 408.821C255.247 412.1 252.759 416.467 251.8 421.273C251.8 439.695 251.846 458.118 251.936 476.541C251.936 479.451 252.162 482.428 250.31 485C246.267 478.233 239.016 474.984 233.121 470.247C224.086 463.028 219.343 453.17 214.803 443.177C212.544 439.41 213.154 435.259 213.154 431.199C213.154 408.64 213.154 386.157 213.154 363.749C210.556 355.245 204.119 349.538 198.021 343.785C189.731 336.116 183.994 327.205 183.158 315.678C183.158 305.459 183.158 295.217 182.865 284.998C182.577 280.461 183.296 275.917 184.971 271.689C186.646 267.462 189.236 263.657 192.555 260.545C194.862 258.709 196.556 256.215 197.411 253.394C196.169 244.574 187.269 235.348 178.099 235.122C160.594 234.806 147.358 227.204 135.748 214.639C123.19 201.104 109.683 188.223 96.4241 175.252C87.564 166.902 81.7927 155.803 80.0485 143.761C78.5803 130.768 81.5393 117.548 78.219 104.645C77.5901 101.005 75.7995 97.6657 73.1143 95.1255C65.6809 87.5505 57.734 80.4956 49.3301 74.011C37.0879 64.0402 24.6651 65.5742 13.9588 76.9887C10.3675 80.8462 7.16009 86.3504 0.203284 83.4404Z" fill="#9761F3"/>
<path d="M855.653 387.008C851.452 362.491 868.279 349.364 884.609 337.388C897.122 328.208 930.798 334.794 942.633 344.65C961.448 360.326 969.918 379.565 967.636 403.812C967.004 410.578 967.343 417.345 967.253 424.111C956.682 432.118 932.402 430.133 921.402 419.307C918.408 416.272 914.788 413.925 910.794 412.429C906.8 410.934 902.527 410.325 898.273 410.646C894.163 410.804 890.007 410.646 885.896 410.533C867.465 409.541 860.825 404.353 855.653 387.008Z" fill="#9761F3"/>
<path d="M305.714 46.0669C299.176 24.9726 311.957 7.09567 333.606 7.05035C348.061 7.05035 362.539 6.93706 376.994 7.05035C393.576 7.20895 399.864 13.6211 400 30.3651C400 36.8679 399.819 43.348 399.706 49.8281C397.528 55.631 393.945 60.8009 389.277 64.8728C377.831 76.0657 366.656 87.5305 355.345 98.8594C347.948 106.155 344.034 105.657 337.542 97.5452C334.443 93.6481 332.43 88.9579 328.494 85.6499C325.508 79.8495 328.494 73.0749 325.462 67.3198C322.386 56.8973 316.866 48.8538 305.714 46.0669Z" fill="#9761F3"/>
<path d="M219.806 28.6707C215.949 14.3892 217.55 12.0283 231.717 12.0514C237.628 12.0514 243.538 11.9357 249.449 12.0514C263.187 12.3523 270.947 19.6204 273 33.9249C272.293 34.8827 271.448 35.7255 270.496 36.4247C259.826 42.1188 230.274 37.7672 221.43 29.2725C220.952 28.9241 220.391 28.7161 219.806 28.6707Z" fill="#9761F3"/>
<path d="M800.586 288.827C798.949 284.253 797.426 279.36 802.291 275.908C807.156 272.455 813.293 271.723 818.204 275.656C828.694 284.415 838.435 294.045 847.324 304.444C849.597 307.142 848.983 310.64 848.733 313.91C839.345 316.196 830.843 315.236 823.841 307.645C819.045 302.454 813.884 297.584 808.906 292.576C806.61 290.176 804.405 287.638 800.586 288.827Z" fill="#9761F3"/>
<path d="M917 164.734C925.281 153.226 936.039 144.123 946.173 134.458C950.883 129.962 956.998 129.962 962.378 133.806C967.377 137.402 966.351 142.392 964.342 147.292C960.547 145.876 958.382 148.371 956.061 150.686C950.659 156.058 945.593 161.925 939.812 166.78C930.816 174.444 923.339 173.59 917 164.734Z" fill="#9761F3"/>
<path d="M618.107 411C614.81 399.343 615.916 387.549 617.807 375.891C618.225 373.674 619.121 371.571 620.434 369.724C621.746 367.878 623.445 366.332 625.415 365.19C628.989 362.913 633.138 360.818 637.265 362.777C641.392 364.735 639.571 369.083 639.755 372.453C639.94 377.189 639.617 381.948 639.525 386.706C638.418 394.88 634.522 401.005 626.568 404.374C623.225 405.809 620.896 408.723 618.107 411Z" fill="#9761F3"/>
<path d="M878 312.273C878.155 297.817 884.414 291.289 898.461 291.041C902.212 291.041 905.984 291.244 909.735 291.041C916.237 290.612 918.789 293.57 917.79 300.076C913.086 313.854 911.799 314.938 897.396 314.87C890.871 314.712 884.081 316.135 878 312.273Z" fill="#9761F3"/>
<path d="M983.653 427.756C980.708 416.507 982.596 405.01 982.596 393.625C982.596 388.495 986.238 388.135 990.082 390.115C992.505 391.237 994.547 393.046 995.953 395.317C997.36 397.589 998.07 400.223 997.995 402.895C997.995 411.129 997.86 419.341 997.77 427.643C993.162 434.101 988.396 429.578 983.653 427.756Z" fill="#9761F3"/>
<path d="M456.301 115C452.72 102.092 453.961 89.0948 455.716 76.1646C456.278 71.6827 460.139 69.3073 464.188 67.649C467.816 66.1476 470.531 67.2233 470.461 71.1673C470.273 82.372 472.426 93.868 469.244 105.073C462.363 105.274 460.022 111.078 456.301 115Z" fill="#9761F3"/>
<path d="M859.621 285.646C854.473 288.319 851.166 287.209 851.122 280.753C851.122 273.096 850.53 265.394 851.954 257.783C852.177 255.859 852.778 254.003 853.72 252.328C854.662 250.653 855.924 249.195 857.43 248.043C860.3 245.981 863.542 244.056 867.002 245.505C870.463 246.955 869.85 251.01 869.719 254.091C869.368 261.113 871.23 268.294 868.404 275.135C865.922 275.404 863.633 276.64 862.001 278.592C860.369 280.545 859.518 283.067 859.621 285.646Z" fill="#9761F3"/>
<path d="M433.116 101.507C432.901 98.8766 432.985 96.2307 433.366 93.6197C433.81 91.2492 435.152 89.1428 437.11 87.7408C439.068 86.3389 441.491 85.7501 443.872 86.0975C449.375 86.5306 448.67 91.1806 448.807 94.8961C448.966 98.9763 449.557 103.171 447.374 107C442.326 105.929 436.777 106.225 433.116 101.507Z" fill="#9761F3"/>
<path d="M116.826 163.7C116.826 166.634 118.59 168.38 121.146 168.38C122.46 168.38 123.504 168.002 124.278 167.246C125.052 166.49 125.538 165.554 125.736 164.42L127.536 165.14C126.888 168.056 124.602 170.18 121.146 170.18C117.348 170.234 114.72 167.354 114.756 163.7C114.684 160.082 117.564 157.148 121.146 157.22C124.35 157.22 126.24 159.182 126.816 161.45L125.016 162.26C124.638 160.37 123.288 159.02 121.146 159.02C118.698 159.02 116.826 160.874 116.826 163.7ZM141.885 157.4H143.865V170H129.501V157.4H131.481V168.2H135.693V157.4H137.673V168.2H141.885V157.4ZM145.474 170L150.658 157.4H153.394L158.578 170H156.346L155.14 166.94H148.912L147.706 170H145.474ZM149.614 165.14H154.438L152.026 159.038L149.614 165.14Z" fill="white"/>
<path d="M147.451 95V82.4H149.431V87.728L154.741 82.4H157.351L151.321 88.43L157.711 95H154.921L149.431 89.294V95H147.451ZM158.639 92.57C158.639 90.716 160.007 89.834 161.897 89.834C162.419 89.834 162.923 89.888 163.409 90.014L164.309 90.23V89.6C164.309 88.466 163.463 87.818 162.329 87.818C161.195 87.818 160.457 88.484 160.259 89.51L158.549 89.06C158.927 87.386 160.241 86.288 162.329 86.288C164.759 86.288 166.109 87.53 166.109 89.69V95H164.309V93.56C163.931 94.514 162.959 95.18 161.447 95.18C160.043 95.18 158.639 94.208 158.639 92.57ZM164.309 91.76V91.67L163.625 91.49C163.013 91.328 162.545 91.256 162.203 91.256C161.249 91.256 160.619 91.616 160.619 92.39C160.619 93.056 161.123 93.56 162.203 93.56C163.445 93.56 164.309 92.894 164.309 91.76ZM170.4 86.468V89.78H174.342V86.468H176.232V95H174.342V91.49H170.4V95H168.51V86.468H170.4ZM178.278 92.57C178.278 90.716 179.646 89.834 181.536 89.834C182.058 89.834 182.562 89.888 183.048 90.014L183.948 90.23V89.6C183.948 88.466 183.102 87.818 181.968 87.818C180.834 87.818 180.096 88.484 179.898 89.51L178.188 89.06C178.566 87.386 179.88 86.288 181.968 86.288C184.398 86.288 185.748 87.53 185.748 89.69V95H183.948V93.56C183.57 94.514 182.598 95.18 181.086 95.18C179.682 95.18 178.278 94.208 178.278 92.57ZM183.948 91.76V91.67L183.264 91.49C182.652 91.328 182.184 91.256 181.842 91.256C180.888 91.256 180.258 91.616 180.258 92.39C180.258 93.056 180.762 93.56 181.842 93.56C183.084 93.56 183.948 92.894 183.948 91.76ZM187.519 96.98V93.29H188.329C188.725 92.498 188.995 91.778 189.121 91.13C189.247 90.464 189.319 89.636 189.319 88.61V86.468H195.709V93.29H196.789V96.98H195.079V95H189.229V96.98H187.519ZM190.309 93.29H193.909V88.178H191.119V88.61C191.119 90.536 190.867 91.904 190.309 93.29ZM198.216 92.57C198.216 90.716 199.584 89.834 201.474 89.834C201.996 89.834 202.5 89.888 202.986 90.014L203.886 90.23V89.6C203.886 88.466 203.04 87.818 201.906 87.818C200.772 87.818 200.034 88.484 199.836 89.51L198.126 89.06C198.504 87.386 199.818 86.288 201.906 86.288C204.336 86.288 205.686 87.53 205.686 89.69V95H203.886V93.56C203.508 94.514 202.536 95.18 201.024 95.18C199.62 95.18 198.216 94.208 198.216 92.57ZM203.886 91.76V91.67L203.202 91.49C202.59 91.328 202.122 91.256 201.78 91.256C200.826 91.256 200.196 91.616 200.196 92.39C200.196 93.056 200.7 93.56 201.78 93.56C203.022 93.56 203.886 92.894 203.886 91.76Z" fill="white"/>
<path d="M247.63 328V315.4H256.54V317.29H249.61V320.584H254.02C256.396 320.584 258.16 321.97 258.16 324.292C258.16 326.614 256.396 328 254.02 328H247.63ZM249.61 326.11H253.93C255.208 326.11 256.09 325.354 256.09 324.292C256.09 323.23 255.208 322.474 253.93 322.474H249.61V326.11ZM260.233 319.468H262.051V320.98C262.627 319.972 263.833 319.288 265.003 319.288C267.325 319.288 268.873 321.178 268.873 323.788C268.873 326.398 267.253 328.18 264.823 328.18C263.689 328.18 262.645 327.73 262.123 326.812V331.564H260.233V319.468ZM264.517 326.506C265.885 326.506 266.983 325.426 266.983 323.788C266.983 322.15 265.867 320.998 264.517 320.998C263.257 320.998 262.051 322.132 262.051 323.788C262.051 325.444 263.221 326.506 264.517 326.506ZM270.422 325.57C270.422 323.716 271.79 322.834 273.68 322.834C274.202 322.834 274.706 322.888 275.192 323.014L276.092 323.23V322.6C276.092 321.466 275.246 320.818 274.112 320.818C272.978 320.818 272.24 321.484 272.042 322.51L270.332 322.06C270.71 320.386 272.024 319.288 274.112 319.288C276.542 319.288 277.892 320.53 277.892 322.69V328H276.092V326.56C275.714 327.514 274.742 328.18 273.23 328.18C271.826 328.18 270.422 327.208 270.422 325.57ZM276.092 324.76V324.67L275.408 324.49C274.796 324.328 274.328 324.256 273.986 324.256C273.032 324.256 272.402 324.616 272.402 325.39C272.402 326.056 272.906 326.56 273.986 326.56C275.228 326.56 276.092 325.894 276.092 324.76ZM279.558 325.39L281.178 324.67C281.394 325.876 282.078 326.47 283.248 326.47C284.166 326.47 284.778 326.128 284.778 325.39C284.778 324.832 284.328 324.49 283.608 324.49H282.798V322.87H283.428C284.148 322.87 284.598 322.51 284.598 321.88C284.598 321.25 284.076 320.89 283.338 320.89C282.474 320.89 281.898 321.394 281.628 322.42L280.008 321.61C280.566 320.116 281.682 319.288 283.338 319.288C285.12 319.288 286.398 320.206 286.398 321.7C286.398 322.69 285.84 323.446 284.958 323.68C285.894 323.896 286.578 324.508 286.578 325.66C286.578 327.226 284.922 328.18 283.068 328.18C281.178 328.18 279.846 326.992 279.558 325.39ZM288.505 328V319.468H290.395V326.2L293.959 319.468H296.929V328H295.039V321.268L291.475 328H288.505ZM298.561 328V327.712C298.903 327.064 299.173 326.326 299.353 325.48C299.551 324.634 299.641 323.482 299.641 322.06V319.468H306.571V328H304.681V321.178H301.531V321.61C301.531 324.436 301.171 326.56 300.451 328H298.561ZM308.97 328V319.468H310.86V326.2L314.424 319.468H317.394V328H315.504V321.268L311.94 328H308.97ZM319.134 327.82L321.744 324.67C320.34 324.67 319.224 323.5 319.224 322.06C319.224 320.566 320.268 319.468 322.014 319.468H326.514V328H324.624V324.67H323.904L321.204 328H319.134V327.82ZM324.624 323.05V321.178H322.194C321.492 321.178 321.114 321.556 321.114 322.114C321.114 322.672 321.492 323.05 322.194 323.05H324.624Z" fill="white"/>
<path d="M401.405 191.2H394.565V202H392.585V189.4H403.385V202H401.405V191.2ZM405.422 197.734C405.422 195.214 407.24 193.288 409.814 193.288C412.388 193.288 414.206 195.214 414.206 197.734C414.206 200.254 412.388 202.18 409.814 202.18C407.24 202.18 405.422 200.254 405.422 197.734ZM412.316 197.734C412.316 196.132 411.254 194.998 409.814 194.998C408.374 194.998 407.312 196.132 407.312 197.734C407.312 199.336 408.374 200.47 409.814 200.47C411.254 200.47 412.316 199.336 412.316 197.734ZM416.088 193.468H417.906V194.98C418.482 193.972 419.688 193.288 420.858 193.288C423.18 193.288 424.728 195.178 424.728 197.788C424.728 200.398 423.108 202.18 420.678 202.18C419.544 202.18 418.5 201.73 417.978 200.812V205.564H416.088V193.468ZM420.372 200.506C421.74 200.506 422.838 199.426 422.838 197.788C422.838 196.15 421.722 194.998 420.372 194.998C419.112 194.998 417.906 196.132 417.906 197.788C417.906 199.444 419.076 200.506 420.372 200.506ZM428.42 202V195.178H425.72V193.468H433.01V195.178H430.31V202H428.42ZM440.856 193.468H442.836L437.076 205.564H435.096L437.382 200.74L434.016 193.468H436.05L438.372 198.688L440.856 193.468ZM444.29 202V193.468H450.266V195.268H446.18V202H444.29ZM451.491 199.57C451.491 197.716 452.859 196.834 454.749 196.834C455.271 196.834 455.775 196.888 456.261 197.014L457.161 197.23V196.6C457.161 195.466 456.315 194.818 455.181 194.818C454.047 194.818 453.309 195.484 453.111 196.51L451.401 196.06C451.779 194.386 453.093 193.288 455.181 193.288C457.611 193.288 458.961 194.53 458.961 196.69V202H457.161V200.56C456.783 201.514 455.811 202.18 454.299 202.18C452.895 202.18 451.491 201.208 451.491 199.57ZM457.161 198.76V198.67L456.477 198.49C455.865 198.328 455.397 198.256 455.055 198.256C454.101 198.256 453.471 198.616 453.471 199.39C453.471 200.056 453.975 200.56 455.055 200.56C456.297 200.56 457.161 199.894 457.161 198.76ZM460.606 202V201.712C460.948 201.064 461.218 200.326 461.398 199.48C461.596 198.634 461.686 197.482 461.686 196.06V193.468H468.616V202H466.726V195.178H463.576V195.61C463.576 198.436 463.216 200.56 462.496 202H460.606ZM471.015 202V193.468H472.905V200.2L476.469 193.468H479.439V202H477.549V195.268L473.985 202H471.015ZM481.18 201.82L483.79 198.67C482.386 198.67 481.27 197.5 481.27 196.06C481.27 194.566 482.314 193.468 484.06 193.468H488.56V202H486.67V198.67H485.95L483.25 202H481.18V201.82ZM486.67 197.05V195.178H484.24C483.538 195.178 483.16 195.556 483.16 196.114C483.16 196.672 483.538 197.05 484.24 197.05H486.67Z" fill="white"/>
<path d="M393.707 111V98.4H399.647C401.969 98.4 403.697 99.858 403.697 101.73C403.697 102.972 402.995 103.962 401.717 104.52C403.211 104.88 404.147 105.996 404.147 107.58C404.147 109.542 402.329 111 400.007 111H393.707ZM395.687 103.62H399.557C400.979 103.62 401.717 103.008 401.717 101.91C401.717 100.884 400.799 100.29 399.557 100.29H395.687V103.62ZM395.687 109.11H399.917C401.195 109.11 402.077 108.39 402.077 107.31C402.077 106.284 401.213 105.42 399.917 105.42H395.687V109.11ZM412.467 107.76L414.087 108.39C413.493 110.172 412.161 111.18 410.145 111.18C407.517 111.18 405.717 109.434 405.717 106.68C405.717 104.232 407.373 102.288 409.875 102.288C412.107 102.288 413.727 103.728 413.727 106.05C413.727 106.392 413.691 106.716 413.637 107.04H407.607C407.607 107.868 407.859 108.498 408.363 108.93C408.885 109.344 409.479 109.56 410.163 109.56C411.387 109.56 412.197 108.93 412.467 107.76ZM407.607 105.78H411.837L411.855 105.618C411.855 104.556 411.009 103.908 409.857 103.908C408.687 103.908 407.769 104.628 407.607 105.78ZM415.118 111V110.712C415.46 110.064 415.73 109.326 415.91 108.48C416.108 107.634 416.198 106.482 416.198 105.06V102.468H423.128V111H421.238V104.178H418.088V104.61C418.088 107.436 417.728 109.56 417.008 111H415.118ZM425.526 111V102.468H427.416V109.2L430.98 102.468H433.95V111H432.06V104.268L428.496 111H425.526ZM436.339 111V102.468H438.229V105.6L440.929 102.468H443.359L439.669 106.5L443.539 111H441.109L438.229 107.49V111H436.339ZM444.169 106.734C444.169 104.214 445.987 102.288 448.561 102.288C451.135 102.288 452.953 104.214 452.953 106.734C452.953 109.254 451.135 111.18 448.561 111.18C445.987 111.18 444.169 109.254 444.169 106.734ZM451.063 106.734C451.063 105.132 450.001 103.998 448.561 103.998C447.121 103.998 446.059 105.132 446.059 106.734C446.059 108.336 447.121 109.47 448.561 109.47C450.001 109.47 451.063 108.336 451.063 106.734ZM454.332 105.78C454.332 104.052 454.746 102.684 455.592 101.694C456.438 100.686 457.536 99.984 458.922 99.606C460.902 99.048 461.424 98.76 461.352 97.77H463.062C463.08 97.842 463.08 97.932 463.08 98.058C463.08 99.696 461.82 100.524 459.822 101.01C457.59 101.532 456.528 102.522 456.168 104.25C456.726 103.044 457.86 102.288 459.282 102.288C461.838 102.288 463.152 104.358 463.152 106.77C463.152 109.236 461.406 111.18 458.832 111.18C457.284 111.18 456.15 110.676 455.412 109.65C454.692 108.624 454.332 107.328 454.332 105.78ZM461.262 106.77C461.262 105.096 460.2 103.998 458.742 103.998C457.284 103.998 456.222 105.096 456.222 106.77C456.222 108.354 457.374 109.47 458.742 109.47C460.236 109.47 461.262 108.444 461.262 106.77ZM465.033 102.468H466.851V103.98C467.427 102.972 468.633 102.288 469.803 102.288C472.125 102.288 473.673 104.178 473.673 106.788C473.673 109.398 472.053 111.18 469.623 111.18C468.489 111.18 467.445 110.73 466.923 109.812V114.564H465.033V102.468ZM469.317 109.506C470.685 109.506 471.783 108.426 471.783 106.788C471.783 105.15 470.667 103.998 469.317 103.998C468.057 103.998 466.851 105.132 466.851 106.788C466.851 108.444 468.021 109.506 469.317 109.506ZM475.564 111V102.468H477.454V109.2L481.018 102.468H483.988V111H482.098V104.268L478.534 111H475.564ZM488.177 111V104.178H485.477V102.468H492.767V104.178H490.067V111H488.177ZM493.912 108.57C493.912 106.716 495.28 105.834 497.17 105.834C497.692 105.834 498.196 105.888 498.682 106.014L499.582 106.23V105.6C499.582 104.466 498.736 103.818 497.602 103.818C496.468 103.818 495.73 104.484 495.532 105.51L493.822 105.06C494.2 103.386 495.514 102.288 497.602 102.288C500.032 102.288 501.382 103.53 501.382 105.69V111H499.582V109.56C499.204 110.514 498.232 111.18 496.72 111.18C495.316 111.18 493.912 110.208 493.912 108.57ZM499.582 107.76V107.67L498.898 107.49C498.286 107.328 497.818 107.256 497.476 107.256C496.522 107.256 495.892 107.616 495.892 108.39C495.892 109.056 496.396 109.56 497.476 109.56C498.718 109.56 499.582 108.894 499.582 107.76ZM505.674 102.468V105.78H509.616V102.468H511.506V111H509.616V107.49H505.674V111H503.784V102.468H505.674ZM513.893 111V102.468H515.783V109.2L519.347 102.468H522.317V111H520.427V104.268L516.863 111H513.893ZM524.058 110.82L526.668 107.67C525.264 107.67 524.148 106.5 524.148 105.06C524.148 103.566 525.192 102.468 526.938 102.468H531.438V111H529.548V107.67H528.828L526.128 111H524.058V110.82ZM529.548 106.05V104.178H527.118C526.416 104.178 526.038 104.556 526.038 105.114C526.038 105.672 526.416 106.05 527.118 106.05H529.548Z" fill="white"/>
<path d="M519.109 188.7C519.109 191.634 520.873 193.38 523.429 193.38C524.743 193.38 525.787 193.002 526.561 192.246C527.335 191.49 527.821 190.554 528.019 189.42L529.819 190.14C529.171 193.056 526.885 195.18 523.429 195.18C519.631 195.234 517.003 192.354 517.039 188.7C516.967 185.082 519.847 182.148 523.429 182.22C526.633 182.22 528.523 184.182 529.099 186.45L527.299 187.26C526.921 185.37 525.571 184.02 523.429 184.02C520.981 184.02 519.109 185.874 519.109 188.7ZM537.886 191.76L539.506 192.39C538.912 194.172 537.58 195.18 535.564 195.18C532.936 195.18 531.136 193.434 531.136 190.68C531.136 188.232 532.792 186.288 535.294 186.288C537.526 186.288 539.146 187.728 539.146 190.05C539.146 190.392 539.11 190.716 539.056 191.04H533.026C533.026 191.868 533.278 192.498 533.782 192.93C534.304 193.344 534.898 193.56 535.582 193.56C536.806 193.56 537.616 192.93 537.886 191.76ZM533.026 189.78H537.256L537.274 189.618C537.274 188.556 536.428 187.908 535.276 187.908C534.106 187.908 533.188 188.628 533.026 189.78ZM541.293 186.468H543.111V187.98C543.687 186.972 544.893 186.288 546.063 186.288C548.385 186.288 549.933 188.178 549.933 190.788C549.933 193.398 548.313 195.18 545.883 195.18C544.749 195.18 543.705 194.73 543.183 193.812V198.564H541.293V186.468ZM545.577 193.506C546.945 193.506 548.043 192.426 548.043 190.788C548.043 189.15 546.927 187.998 545.577 187.998C544.317 187.998 543.111 189.132 543.111 190.788C543.111 192.444 544.281 193.506 545.577 193.506ZM551.32 189.78C551.32 188.052 551.734 186.684 552.58 185.694C553.426 184.686 554.524 183.984 555.91 183.606C557.89 183.048 558.412 182.76 558.34 181.77H560.05C560.068 181.842 560.068 181.932 560.068 182.058C560.068 183.696 558.808 184.524 556.81 185.01C554.578 185.532 553.516 186.522 553.156 188.25C553.714 187.044 554.848 186.288 556.27 186.288C558.826 186.288 560.14 188.358 560.14 190.77C560.14 193.236 558.394 195.18 555.82 195.18C554.272 195.18 553.138 194.676 552.4 193.65C551.68 192.624 551.32 191.328 551.32 189.78ZM558.25 190.77C558.25 189.096 557.188 187.998 555.73 187.998C554.272 187.998 553.21 189.096 553.21 190.77C553.21 192.354 554.362 193.47 555.73 193.47C557.224 193.47 558.25 192.444 558.25 190.77ZM562.021 195V186.468H563.911V193.2L567.475 186.468H570.445V195H568.555V188.268L564.991 195H562.021ZM572.186 194.82L574.796 191.67C573.392 191.67 572.276 190.5 572.276 189.06C572.276 187.566 573.32 186.468 575.066 186.468H579.566V195H577.676V191.67H576.956L574.256 195H572.186V194.82ZM577.676 190.05V188.178H575.246C574.544 188.178 574.166 188.556 574.166 189.114C574.166 189.672 574.544 190.05 575.246 190.05H577.676Z" fill="white"/>
<path d="M717.662 186V173.4H719.642V178.728L724.952 173.4H727.562L721.532 179.43L727.922 186H725.132L719.642 180.294V186H717.662ZM728.85 183.57C728.85 181.716 730.218 180.834 732.108 180.834C732.63 180.834 733.134 180.888 733.62 181.014L734.52 181.23V180.6C734.52 179.466 733.674 178.818 732.54 178.818C731.406 178.818 730.668 179.484 730.47 180.51L728.76 180.06C729.138 178.386 730.452 177.288 732.54 177.288C734.97 177.288 736.32 178.53 736.32 180.69V186H734.52V184.56C734.142 185.514 733.17 186.18 731.658 186.18C730.254 186.18 728.85 185.208 728.85 183.57ZM734.52 182.76V182.67L733.836 182.49C733.224 182.328 732.756 182.256 732.414 182.256C731.46 182.256 730.83 182.616 730.83 183.39C730.83 184.056 731.334 184.56 732.414 184.56C733.656 184.56 734.52 183.894 734.52 182.76ZM737.986 183.39L739.606 182.67C739.822 183.876 740.506 184.47 741.676 184.47C742.594 184.47 743.206 184.128 743.206 183.39C743.206 182.832 742.756 182.49 742.036 182.49H741.226V180.87H741.856C742.576 180.87 743.026 180.51 743.026 179.88C743.026 179.25 742.504 178.89 741.766 178.89C740.902 178.89 740.326 179.394 740.056 180.42L738.436 179.61C738.994 178.116 740.11 177.288 741.766 177.288C743.548 177.288 744.826 178.206 744.826 179.7C744.826 180.69 744.268 181.446 743.386 181.68C744.322 181.896 745.006 182.508 745.006 183.66C745.006 185.226 743.35 186.18 741.496 186.18C739.606 186.18 738.274 184.992 737.986 183.39ZM746.59 183.57C746.59 181.716 747.958 180.834 749.848 180.834C750.37 180.834 750.874 180.888 751.36 181.014L752.26 181.23V180.6C752.26 179.466 751.414 178.818 750.28 178.818C749.146 178.818 748.408 179.484 748.21 180.51L746.5 180.06C746.878 178.386 748.192 177.288 750.28 177.288C752.71 177.288 754.06 178.53 754.06 180.69V186H752.26V184.56C751.882 185.514 750.91 186.18 749.398 186.18C747.994 186.18 746.59 185.208 746.59 183.57ZM752.26 182.76V182.67L751.576 182.49C750.964 182.328 750.496 182.256 750.154 182.256C749.2 182.256 748.57 182.616 748.57 183.39C748.57 184.056 749.074 184.56 750.154 184.56C751.396 184.56 752.26 183.894 752.26 182.76ZM763.235 177.468L760.499 181.464L763.595 186H761.435L759.455 182.94L757.475 186H755.315L758.429 181.464L755.675 177.468H757.835L759.455 179.97L761.075 177.468H763.235ZM768.51 184.56C770.094 184.56 770.922 183.552 771.12 182.13L772.83 182.76C772.398 184.938 770.742 186.18 768.6 186.18C765.828 186.18 764.01 184.38 764.01 181.68C764.01 179.106 765.972 177.288 768.33 177.288C770.436 177.288 772.02 178.476 772.38 180.42L770.67 180.96C770.472 179.682 769.572 178.908 768.33 178.908C767.088 178.908 765.81 179.88 765.81 181.68C765.81 183.426 767.142 184.56 768.51 184.56ZM776.16 186V179.178H773.46V177.468H780.75V179.178H778.05V186H776.16ZM781.895 183.57C781.895 181.716 783.263 180.834 785.153 180.834C785.675 180.834 786.179 180.888 786.665 181.014L787.565 181.23V180.6C787.565 179.466 786.719 178.818 785.585 178.818C784.451 178.818 783.713 179.484 783.515 180.51L781.805 180.06C782.183 178.386 783.497 177.288 785.585 177.288C788.015 177.288 789.365 178.53 789.365 180.69V186H787.565V184.56C787.187 185.514 786.215 186.18 784.703 186.18C783.299 186.18 781.895 185.208 781.895 183.57ZM787.565 182.76V182.67L786.881 182.49C786.269 182.328 785.801 182.256 785.459 182.256C784.505 182.256 783.875 182.616 783.875 183.39C783.875 184.056 784.379 184.56 785.459 184.56C786.701 184.56 787.565 183.894 787.565 182.76ZM793.657 177.468V180.78H797.599V177.468H799.489V186H797.599V182.49H793.657V186H791.767V177.468H793.657Z" fill="white"/>
<path d="M697.931 236.84L692.063 248H688.625V235.4H690.605V246.578L696.473 235.4H699.911V248H697.931V236.84ZM704.348 239.468V242.78H708.29V239.468H710.18V248H708.29V244.49H704.348V248H702.458V239.468H704.348ZM711.937 249.98V246.29H712.747C713.143 245.498 713.413 244.778 713.539 244.13C713.665 243.464 713.737 242.636 713.737 241.61V239.468H720.127V246.29H721.207V249.98H719.497V248H713.647V249.98H711.937ZM714.727 246.29H718.327V241.178H715.537V241.61C715.537 243.536 715.285 244.904 714.727 246.29ZM722.975 248V239.468H724.865V246.2L728.429 239.468H731.399V248H729.509V241.268L725.945 248H722.975ZM733.14 247.82L735.75 244.67C734.346 244.67 733.23 243.5 733.23 242.06C733.23 240.566 734.274 239.468 736.02 239.468H740.52V248H738.63V244.67H737.91L735.21 248H733.14V247.82ZM738.63 243.05V241.178H736.2C735.498 241.178 735.12 241.556 735.12 242.114C735.12 242.672 735.498 243.05 736.2 243.05H738.63Z" fill="white"/>
<path d="M563.33 365V352.4H565.31V357.728L570.62 352.4H573.23L567.2 358.43L573.59 365H570.8L565.31 359.294V365H563.33ZM580.754 361.76L582.374 362.39C581.78 364.172 580.448 365.18 578.432 365.18C575.804 365.18 574.004 363.434 574.004 360.68C574.004 358.232 575.66 356.288 578.162 356.288C580.394 356.288 582.014 357.728 582.014 360.05C582.014 360.392 581.978 360.716 581.924 361.04H575.894C575.894 361.868 576.146 362.498 576.65 362.93C577.172 363.344 577.766 363.56 578.45 363.56C579.674 363.56 580.484 362.93 580.754 361.76ZM575.894 359.78H580.124L580.142 359.618C580.142 358.556 579.296 357.908 578.144 357.908C576.974 357.908 576.056 358.628 575.894 359.78ZM586.051 356.468V359.78H589.993V356.468H591.883V365H589.993V361.49H586.051V365H584.161V356.468H586.051ZM594.27 365V356.468H596.16V363.2L599.724 356.468H602.694V365H600.804V358.268L597.24 365H594.27ZM604.435 364.82L607.045 361.67C605.641 361.67 604.525 360.5 604.525 359.06C604.525 357.566 605.569 356.468 607.315 356.468H611.815V365H609.925V361.67H609.205L606.505 365H604.435V364.82ZM609.925 360.05V358.178H607.495C606.793 358.178 606.415 358.556 606.415 359.114C606.415 359.672 606.793 360.05 607.495 360.05H609.925Z" fill="white"/>
<path d="M549.203 443.7C549.275 447.246 546.233 450.252 542.633 450.18C539.375 450.234 536.549 447.768 536.135 444.69H533.291V450H531.311V437.4H533.291V442.89H536.117C536.459 439.74 539.321 437.166 542.633 437.22C546.233 437.148 549.275 440.172 549.203 443.7ZM547.133 443.7C547.133 440.982 545.171 439.11 542.633 439.11C540.095 439.11 538.133 441.018 538.133 443.718C538.133 446.454 540.149 448.29 542.633 448.29C545.117 448.29 547.133 446.418 547.133 443.7ZM549.587 450L554.771 437.4H557.507L562.691 450H560.459L559.253 446.94H553.025L551.819 450H549.587ZM553.727 445.14H558.551L556.139 439.038L553.727 445.14ZM566.272 444.96V450H564.292V437.4H570.142C572.77 437.4 574.192 439.146 574.192 441.18C574.192 443.142 572.752 444.96 570.142 444.96H566.272ZM566.272 443.07H569.962C571.24 443.07 572.122 442.332 572.122 441.18C572.122 440.028 571.24 439.29 569.962 439.29H566.272V443.07Z" fill="white"/>
<path d="M872.374 395L877.558 382.4H880.294L885.478 395H883.246L882.04 391.94H875.812L874.606 395H872.374ZM876.514 390.14H881.338L878.926 384.038L876.514 390.14ZM886.935 395V386.468H891.615C893.325 386.468 894.405 387.35 894.405 388.7C894.405 389.564 893.829 390.41 892.965 390.68C893.991 390.878 894.675 391.526 894.675 392.66C894.675 394.046 893.595 395 891.885 395H886.935ZM888.825 389.87H891.525C892.155 389.87 892.515 389.546 892.515 389.024C892.515 388.502 892.155 388.178 891.525 388.178H888.825V389.87ZM888.825 393.29H891.705C892.407 393.29 892.785 392.912 892.785 392.39C892.785 391.832 892.407 391.49 891.705 391.49H888.825V393.29ZM900.706 393.56C902.29 393.56 903.118 392.552 903.316 391.13L905.026 391.76C904.594 393.938 902.938 395.18 900.796 395.18C898.024 395.18 896.206 393.38 896.206 390.68C896.206 388.106 898.168 386.288 900.526 386.288C902.632 386.288 904.216 387.476 904.576 389.42L902.866 389.96C902.668 388.682 901.768 387.908 900.526 387.908C899.284 387.908 898.006 388.88 898.006 390.68C898.006 392.426 899.338 393.56 900.706 393.56ZM908.356 395V388.178H905.656V386.468H912.946V388.178H910.246V395H908.356ZM914.433 386.468H916.251V387.98C916.827 386.972 918.033 386.288 919.203 386.288C921.525 386.288 923.073 388.178 923.073 390.788C923.073 393.398 921.453 395.18 919.023 395.18C917.889 395.18 916.845 394.73 916.323 393.812V398.564H914.433V386.468ZM918.717 393.506C920.085 393.506 921.183 392.426 921.183 390.788C921.183 389.15 920.067 387.998 918.717 387.998C917.457 387.998 916.251 389.132 916.251 390.788C916.251 392.444 917.421 393.506 918.717 393.506ZM924.623 392.57C924.623 390.716 925.991 389.834 927.881 389.834C928.403 389.834 928.907 389.888 929.393 390.014L930.293 390.23V389.6C930.293 388.466 929.447 387.818 928.313 387.818C927.179 387.818 926.441 388.484 926.243 389.51L924.533 389.06C924.911 387.386 926.225 386.288 928.313 386.288C930.743 386.288 932.093 387.53 932.093 389.69V395H930.293V393.56C929.915 394.514 928.943 395.18 927.431 395.18C926.027 395.18 924.623 394.208 924.623 392.57ZM930.293 391.76V391.67L929.609 391.49C928.997 391.328 928.529 391.256 928.187 391.256C927.233 391.256 926.603 391.616 926.603 392.39C926.603 393.056 927.107 393.56 928.187 393.56C929.429 393.56 930.293 392.894 930.293 391.76ZM933.738 395V394.712C934.08 394.064 934.35 393.326 934.53 392.48C934.728 391.634 934.818 390.482 934.818 389.06V386.468H941.748V395H939.858V388.178H936.708V388.61C936.708 391.436 936.348 393.56 935.628 395H933.738ZM944.147 395V386.468H946.037V393.2L949.601 386.468H952.571V395H950.681V388.268L947.117 395H944.147ZM954.311 394.82L956.921 391.67C955.517 391.67 954.401 390.5 954.401 389.06C954.401 387.566 955.445 386.468 957.191 386.468H961.691V395H959.801V391.67H959.081L956.381 395H954.311V394.82ZM959.801 390.05V388.178H957.371C956.669 388.178 956.291 388.556 956.291 389.114C956.291 389.672 956.669 390.05 957.371 390.05H959.801Z" fill="white"/>
<path d="M200.366 392L205.55 379.4H208.286L213.47 392H211.238L210.032 388.94H203.804L202.598 392H200.366ZM204.506 387.14H209.33L206.918 381.038L204.506 387.14ZM214.927 383.468H216.745V384.98C217.321 383.972 218.527 383.288 219.697 383.288C222.019 383.288 223.567 385.178 223.567 387.788C223.567 390.398 221.947 392.18 219.517 392.18C218.383 392.18 217.339 391.73 216.817 390.812V395.564H214.927V383.468ZM219.211 390.506C220.579 390.506 221.677 389.426 221.677 387.788C221.677 386.15 220.561 384.998 219.211 384.998C217.951 384.998 216.745 386.132 216.745 387.788C216.745 389.444 217.915 390.506 219.211 390.506ZM225.458 392V383.468H231.434V385.268H227.348V392H225.458ZM239.247 388.76L240.867 389.39C240.273 391.172 238.941 392.18 236.925 392.18C234.297 392.18 232.497 390.434 232.497 387.68C232.497 385.232 234.153 383.288 236.655 383.288C238.887 383.288 240.507 384.728 240.507 387.05C240.507 387.392 240.471 387.716 240.417 388.04H234.387C234.387 388.868 234.639 389.498 235.143 389.93C235.665 390.344 236.259 390.56 236.943 390.56C238.167 390.56 238.977 389.93 239.247 388.76ZM234.387 386.78H238.617L238.635 386.618C238.635 385.556 237.789 384.908 236.637 384.908C235.467 384.908 234.549 385.628 234.387 386.78ZM244.544 383.468V386.78H248.486V383.468H250.376V392H248.486V388.49H244.544V392H242.654V383.468H244.544ZM254.563 392V385.178H251.863V383.468H259.153V385.178H256.453V392H254.563ZM260.641 392V383.468H262.531V390.2L266.095 383.468H269.065V392H267.175V385.268L263.611 392H260.641ZM273.343 383.468V386.78H277.285V383.468H279.175V392H277.285V388.49H273.343V392H271.453V383.468H273.343ZM281.221 389.57C281.221 387.716 282.589 386.834 284.479 386.834C285.001 386.834 285.505 386.888 285.991 387.014L286.891 387.23V386.6C286.891 385.466 286.045 384.818 284.911 384.818C283.777 384.818 283.039 385.484 282.841 386.51L281.131 386.06C281.509 384.386 282.823 383.288 284.911 383.288C287.341 383.288 288.691 384.53 288.691 386.69V392H286.891V390.56C286.513 391.514 285.541 392.18 284.029 392.18C282.625 392.18 281.221 391.208 281.221 389.57ZM286.891 388.76V388.67L286.207 388.49C285.595 388.328 285.127 388.256 284.785 388.256C283.831 388.256 283.201 388.616 283.201 389.39C283.201 390.056 283.705 390.56 284.785 390.56C286.027 390.56 286.891 389.894 286.891 388.76Z" fill="white"/>
<rect x="161" y="45" width="32" height="32" rx="16" fill="#58D6EB"/>
<path d="M181.045 54V56H174.145C174.145 57.06 174.005 58.38 173.705 59.98C174.425 59.12 175.705 58.52 177.065 58.52C179.705 58.52 181.745 60.22 181.745 63.1C181.745 66.04 179.785 68.2 176.545 68.2C173.905 68.2 171.625 66.72 171.345 64L173.445 63.4C173.665 65.1 174.705 66.2 176.545 66.2C178.485 66.2 179.645 64.96 179.645 63.3C179.645 61.62 178.505 60.4 176.645 60.4C175.385 60.4 174.225 61.16 173.845 62.1L171.545 61.58C171.945 59.04 172.145 56.5 172.145 54H181.045Z" fill="#14142B"/>
<rect x="447" y="61" width="32" height="32" rx="16" fill="#58D6EB"/>
<path d="M467.045 70V72H460.145C460.145 73.06 460.005 74.38 459.705 75.98C460.425 75.12 461.705 74.52 463.065 74.52C465.705 74.52 467.745 76.22 467.745 79.1C467.745 82.04 465.785 84.2 462.545 84.2C459.905 84.2 457.625 82.72 457.345 80L459.445 79.4C459.665 81.1 460.705 82.2 462.545 82.2C464.485 82.2 465.645 80.96 465.645 79.3C465.645 77.62 464.505 76.4 462.645 76.4C461.385 76.4 460.225 77.16 459.845 78.1L457.545 77.58C457.945 75.04 458.145 72.5 458.145 70H467.045Z" fill="#14142B"/>
<rect x="425" y="152" width="32" height="32" rx="16" fill="#58D6EB"/>
<path d="M440.384 175V164.1C439.984 165.34 438.304 166.52 436.884 166.6L436.484 164.3C438.624 164.08 440.204 163 440.584 161H442.484V175H440.384Z" fill="#14142B"/>
<rect x="533" y="145" width="32" height="32" rx="16" fill="#58D6EB"/>
<path d="M548.384 168V157.1C547.984 158.34 546.304 159.52 544.884 159.6L544.484 157.3C546.624 157.08 548.204 156 548.584 154H550.484V168H548.384Z" fill="#14142B"/>
<rect x="743" y="136" width="32" height="32" rx="16" fill="#58D6EB"/>
<path d="M758.384 159V148.1C757.984 149.34 756.304 150.52 754.884 150.6L754.484 148.3C756.624 148.08 758.204 147 758.584 145H760.484V159H758.384Z" fill="#14142B"/>
<rect x="699" y="198" width="32" height="32" rx="16" fill="#58D6EB"/>
<path d="M714.384 221V210.1C713.984 211.34 712.304 212.52 710.884 212.6L710.484 210.3C712.624 210.08 714.204 209 714.584 207H716.484V221H714.384Z" fill="#14142B"/>
<rect x="572" y="315" width="32" height="32" rx="16" fill="#58D6EB"/>
<path d="M587.384 338V327.1C586.984 328.34 585.304 329.52 583.884 329.6L583.484 327.3C585.624 327.08 587.204 326 587.584 324H589.484V338H587.384Z" fill="#14142B"/>
<rect x="272" y="278" width="32" height="32" rx="16" fill="#58D6EB"/>
<path d="M287.384 301V290.1C286.984 291.34 285.304 292.52 283.884 292.6L283.484 290.3C285.624 290.08 287.204 289 287.584 287H289.484V301H287.384Z" fill="#14142B"/>
<rect x="230" y="342" width="32" height="32" rx="16" fill="#58D6EB"/>
<path d="M245.384 365V354.1C244.984 355.34 243.304 356.52 241.884 356.6L241.484 354.3C243.624 354.08 245.204 353 245.584 351H247.484V365H245.384Z" fill="#14142B"/>
<rect x="539" y="400" width="32" height="32" rx="16" fill="#58D6EB"/>
<path d="M549.847 409H559.147V410.8C556.187 412.72 554.667 415.48 554.667 419.78C554.667 420.76 554.747 421.84 554.907 423H552.547C552.427 422.08 552.367 421.2 552.367 420.36C552.367 416.26 553.767 413.08 556.327 411H549.847V409Z" fill="#14142B"/>
<rect x="902" y="345" width="32" height="32" rx="16" fill="#58D6EB"/>
<path d="M915.771 362.4C916.011 362.26 916.371 362.08 916.851 361.84C917.571 361.48 918.131 361.18 918.511 360.92C919.311 360.38 919.871 359.64 919.871 358.46C919.871 356.86 918.711 355.7 916.871 355.7C915.171 355.7 913.971 356.92 913.971 358.36C913.971 359.02 914.271 359.74 914.771 360.3L912.971 361.5C912.231 360.58 911.871 359.54 911.871 358.4C911.871 355.88 913.951 353.8 916.971 353.8C920.151 353.8 921.971 355.7 921.971 358.34C921.971 360.52 920.811 361.82 918.971 362.88L917.891 363.46C916.951 363.96 916.251 364.38 915.771 364.72C915.311 365.06 915.011 365.5 914.891 366H921.971V368H912.171C912.171 366.58 912.491 365.46 913.131 364.6C913.791 363.74 914.671 363.02 915.771 362.4Z" fill="#14142B"/>
<rect x="121" y="120" width="32" height="32" rx="16" fill="#58D6EB"/>
<path d="M131.445 143V132.1C131.045 133.34 129.365 134.52 127.945 134.6L127.545 132.3C129.685 132.08 131.265 131 131.645 129H133.545V143H131.445ZM139.737 137.4C139.977 137.26 140.337 137.08 140.817 136.84C141.537 136.48 142.097 136.18 142.477 135.92C143.277 135.38 143.837 134.64 143.837 133.46C143.837 131.86 142.677 130.7 140.837 130.7C139.137 130.7 137.937 131.92 137.937 133.36C137.937 134.02 138.237 134.74 138.737 135.3L136.937 136.5C136.197 135.58 135.837 134.54 135.837 133.4C135.837 130.88 137.917 128.8 140.937 128.8C144.117 128.8 145.937 130.7 145.937 133.34C145.937 135.52 144.777 136.82 142.937 137.88L141.857 138.46C140.917 138.96 140.217 139.38 139.737 139.72C139.277 140.06 138.977 140.5 138.857 141H145.937V143H136.137C136.137 141.58 136.457 140.46 137.097 139.6C137.757 138.74 138.637 138.02 139.737 137.4Z" fill="#14142B"/>
</svg>
