<svg width="148" height="104" viewBox="0 0 148 104" fill="none" xmlns="http://www.w3.org/2000/svg">
<path fill-rule="evenodd" clip-rule="evenodd" d="M40.9851 87.9954C41.8427 84.7946 39.9432 81.5046 36.7424 80.6469C33.5416 79.7893 30.2516 81.6888 29.394 84.8895C28.5363 88.0903 30.4358 91.3804 33.6366 92.238C36.8374 93.0957 40.1274 91.1962 40.9851 87.9954ZM38.813 72.9195C46.2815 74.9207 50.7137 82.5974 48.7125 90.0659C46.7113 97.5345 39.0346 101.967 31.566 99.9654C24.0975 97.9642 19.6654 90.2875 21.6665 82.819C23.6677 75.3505 31.3445 70.9183 38.813 72.9195Z" fill="#58D6EB"/>
<path fill-rule="evenodd" clip-rule="evenodd" d="M139.522 48.3754C139.394 50.282 137.935 51.8316 136.04 52.0746C125.988 53.3634 120.612 55.7359 116.847 59.4369C112.904 63.3126 110.229 69.0835 106.644 78.5663C106.028 80.1938 104.432 81.2368 102.694 81.1463C100.957 81.0558 99.4768 79.8524 99.0339 78.1698C95.179 63.5224 84.378 48.3768 66.8373 43.6768C64.7754 43.1243 63.5106 41.0501 63.9637 38.9641C64.4168 36.8781 66.428 35.5154 68.5333 35.868C80.7558 37.9151 87.9438 35.777 92.3679 31.9071C96.9297 27.9166 99.4795 21.3042 100.622 12.3905C100.884 10.3483 102.653 8.83841 104.711 8.90092C106.769 8.96342 108.443 10.5779 108.581 12.6323C109.297 23.3539 112.928 30.1712 117.786 34.7993C122.753 39.531 129.354 42.3107 136.567 44.2434C138.412 44.7379 139.651 46.4689 139.522 48.3754ZM121.697 47.1979C118.331 45.4659 115.127 43.3147 112.268 40.5917C108.993 37.4713 106.261 33.6856 104.252 29.0947C102.61 32.456 100.456 35.4607 97.6351 37.9284C94.2927 40.8522 90.2271 42.8432 85.3846 43.8616C93.412 49.7552 99.3022 57.7247 103.134 66.0308C105.394 61.1384 107.893 57.0203 111.239 53.7316C114.143 50.8772 117.551 48.7637 121.697 47.1979Z" fill="#58D6EB"/>
<path d="M9.23777 28.7594C4.43657 27.473 1.58733 22.5379 2.87381 17.7367C4.16028 12.9355 9.09532 10.0863 13.8965 11.3728C18.6977 12.6593 21.5469 17.5943 20.2605 22.3955C18.974 27.1967 14.039 30.0459 9.23777 28.7594Z" fill="#58D6EB"/>
</svg>
