<svg xmlns="http://www.w3.org/2000/svg" viewBox="0 0 157.52 78.86">
    <defs>
        <style>
            .cls-1 {
                fill: none;
            }

            .cls-2 {
                fill: #7040c0;
            }
        </style>
    </defs>
    <polygon class="cls-1" points="0 0 0 24.32 24.24 0 0 0" />
    <polygon class="cls-1" points="63.55 0 39.32 0 3.78 35.65 0 39.44 0 63.73 63.55 0" />
    <polygon class="cls-1"
        points="0 78.86 24.25 78.86 74.84 28.11 78.62 24.33 82.4 28.11 133.17 78.86 157.52 78.86 153.74 75.08 78.63 0 78.63 0 3.78 75.07 0 78.86" />
    <polygon class="cls-1" points="157.52 63.73 157.52 39.44 153.74 35.66 118.08 0 93.74 0 157.51 63.75 157.52 63.73" />
    <polygon class="cls-1"
        points="39.33 78.86 63.55 78.86 74.84 67.53 78.62 63.74 82.4 67.53 93.73 78.86 118.06 78.86 78.63 39.44 39.33 78.86" />
    <polygon class="cls-1" points="157.52 24.32 157.52 0 133.18 0 157.51 24.33 157.52 24.32" />
    <polygon class="cls-2" points="0 78.86 3.78 75.07 78.63 0 63.55 0 0 63.73 0 78.86" />
    <polygon class="cls-2" points="39.32 0 24.24 0 0 24.32 0 39.44 3.78 35.65 39.32 0" />
    <polygon class="cls-2" points="157.52 78.86 157.52 63.73 157.51 63.75 93.74 0 78.63 0 153.74 75.08 157.52 78.86" />
    <polygon class="cls-2" points="78.62 63.74 74.84 67.53 63.55 78.86 93.73 78.86 82.4 67.53 78.62 63.74" />
    <polygon class="cls-2"
        points="78.62 24.33 74.84 28.11 24.25 78.86 39.33 78.86 78.63 39.44 118.06 78.86 133.17 78.86 82.4 28.11 78.62 24.33" />
    <polygon class="cls-2"
        points="157.52 39.44 157.52 24.32 157.51 24.33 133.18 0 118.08 0 153.74 35.66 157.52 39.44" />
</svg>