<svg id="Layer_1" data-name="Layer 1" xmlns="http://www.w3.org/2000/svg" viewBox="0 0 858 393.95">
    <defs>
        <style>
            .cls-1 {
                fill: white;
                fill-rule: evenodd;
            }
        </style>
    </defs>
    <path class="cls-1"
        d="M665.19,0,669,3.78l90.89,90.94L850.44,3.79,858,11.33,763.64,106l-3.77,3.79-3.78-3.78L665.21,15.12,574.62,106l-3.77,3.79-3.78-3.78L476.19,15.12,385.6,106l-3.77,3.79-3.78-3.78L287.16,15.12,196.58,106l-3.77,3.79L189,106.05,98.14,15.12,7.56,106,0,98.5,94.36,3.79,98.13,0l3.78,3.78,90.88,90.94L283.38,3.79,287.15,0l3.78,3.78,90.89,90.94L472.4,3.79,476.17,0,480,3.78l90.89,90.94L661.42,3.79ZM98.13,47.36l3.78,3.78,90.88,90.93,90.59-90.93,3.77-3.78,3.78,3.78,90.89,90.93L472.4,51.14l3.77-3.78L480,51.14l90.89,90.93,90.58-90.93,3.77-3.78L669,51.14l90.89,90.93,90.58-90.93L858,58.68,763.64,153.4l-3.77,3.79-3.78-3.78L665.21,62.47,574.62,153.4l-3.77,3.79-3.78-3.78L476.19,62.47,385.6,153.4l-3.77,3.79-3.78-3.78L287.16,62.47,196.58,153.4l-3.77,3.79L189,153.41,98.14,62.47,7.56,153.4,0,145.86,94.36,51.14ZM665.19,94.72,669,98.5l90.89,90.9,90.58-90.9L858,106l-94.36,94.69-3.77,3.78-3.78-3.78-90.88-90.9-90.59,90.9-3.77,3.78-3.78-3.78-90.88-90.9-90.59,90.9-3.77,3.78-3.78-3.78-90.89-90.9-90.58,90.9-3.77,3.78L189,200.73l-90.89-90.9L7.56,200.73,0,193.19,94.36,98.5l3.77-3.78,3.78,3.78,90.88,90.9,90.59-90.9,3.77-3.78,3.78,3.78,90.89,90.9L472.4,98.5l3.77-3.78L480,98.5l90.89,90.9,90.58-90.9ZM98.13,142.07l3.78,3.78,90.88,90.91,90.59-90.9,3.77-3.79,3.78,3.78,90.89,90.91,90.58-90.9,3.77-3.79,3.78,3.78,90.89,90.91,90.58-90.9,3.77-3.79,3.78,3.78,90.89,90.91,90.58-90.9L858,153.4l-94.36,94.69-3.77,3.78-3.78-3.78-90.88-90.9-90.59,90.9-3.77,3.78-3.78-3.78-90.88-90.9-90.59,90.9-3.77,3.78-3.78-3.78-90.89-90.9-90.58,90.9-3.77,3.78L189,248.09l-90.89-90.9L7.56,248.09,0,240.55l94.36-94.69Zm0,47.33,3.78,3.78,90.88,90.94,90.59-90.93,3.77-3.79,3.78,3.78,90.89,90.94,90.58-90.93,3.77-3.79,3.78,3.78,90.89,90.94,90.58-90.93,3.77-3.79,3.78,3.78,90.89,90.94,90.58-90.93,7.56,7.54-94.36,94.72-3.77,3.78-3.78-3.78-90.88-90.93-90.59,90.93-3.77,3.78-3.78-3.78-90.88-90.93L385.6,295.45l-3.77,3.78-3.78-3.78-90.89-90.93-90.58,90.93-3.77,3.78L189,295.45,98.14,204.52,7.56,295.45,0,287.9l94.36-94.71Zm0,47.36,3.78,3.78,90.88,90.94,90.59-90.93,3.77-3.79,3.78,3.78,90.89,90.94,90.58-90.93,3.77-3.79,3.78,3.78,90.89,90.94,90.58-90.93,3.77-3.79,3.78,3.78,90.89,90.94,90.58-90.93,7.56,7.54L763.64,342.8l-3.77,3.79-3.78-3.78-90.88-90.93L574.62,342.8l-3.77,3.79-3.78-3.78-90.88-90.93L385.6,342.8l-3.77,3.79-3.78-3.78-90.89-90.93L196.58,342.8l-3.77,3.79L189,342.81,98.14,251.88,7.56,342.8,0,335.26l94.36-94.71Zm0,47.35,3.78,3.79,90.88,90.93,90.59-90.93,3.77-3.79,3.78,3.79,90.89,90.93L472.4,287.9l3.77-3.79L480,287.9l90.89,90.93,90.58-90.93,3.77-3.79L669,287.9l90.89,90.93,90.58-90.93,7.56,7.54-94.36,94.72L759.87,394l-3.78-3.78-90.88-90.94-90.59,90.93L570.85,394l-3.78-3.78-90.88-90.94L385.6,390.16,381.83,394l-3.78-3.78-90.89-90.94-90.58,90.93L192.81,394,189,390.17,98.14,299.23,7.56,390.16,0,382.62,94.36,287.9Z" />
</svg>