<svg width="859" height="394" viewBox="0 0 859 394" fill="none" xmlns="http://www.w3.org/2000/svg">
<path fill-rule="evenodd" clip-rule="evenodd" d="M665.567 0L669.349 3.78204L760.283 94.7159L850.918 3.78814L858.482 11.3279L764.071 106.044L760.295 109.832L756.513 106.05L665.579 15.116L574.945 106.044L571.169 109.832L567.387 106.05L476.453 15.116L385.818 106.044L382.042 109.832L378.26 106.05L287.326 15.116L196.691 106.044L192.915 109.832L189.133 106.05L98.1991 15.116L7.56407 106.044L2.38419e-07 98.504L94.4109 3.78814L98.1869 4.76837e-07L101.969 3.78204L192.903 94.7159L283.538 3.78814L287.314 4.76837e-07L291.096 3.78204L382.03 94.7159L472.665 3.78814L476.44 1.43051e-06L480.223 3.78204L571.156 94.7159L661.791 3.78814L665.567 0ZM98.1869 47.3561L101.969 51.1381L192.903 142.072L283.538 51.1442L287.314 47.3561L291.096 51.1381L382.03 142.072L472.665 51.1442L476.44 47.3561L480.223 51.1381L571.156 142.072L661.791 51.1442L665.567 47.3561L669.349 51.1381L760.283 142.072L850.918 51.1442L858.482 58.6839L764.071 153.4L760.295 157.188L756.513 153.406L665.579 62.4721L574.945 153.4L571.169 157.188L567.387 153.406L476.453 62.4721L385.818 153.4L382.042 157.188L378.26 153.406L287.326 62.4721L196.691 153.4L192.915 157.188L189.133 153.406L98.1991 62.4721L7.56407 153.4L2.38419e-07 145.86L94.4109 51.1442L98.1869 47.3561ZM665.567 94.7157L669.349 98.4959L760.283 189.401L850.919 98.502L858.482 106.043L764.071 200.728L760.295 204.515L756.514 200.734L665.579 109.829L574.944 200.728L571.169 204.515L567.387 200.734L476.453 109.829L385.817 200.728L382.042 204.515L378.26 200.734L287.326 109.829L196.69 200.728L192.915 204.515L189.133 200.734L98.1991 109.829L7.56346 200.728L0.000607967 193.187L94.4115 98.502L98.1869 94.7157L101.968 98.4959L192.903 189.401L283.538 98.502L287.314 94.7157L291.095 98.4959L382.03 189.401L472.665 98.502L476.44 94.7157L480.222 98.4959L571.156 189.401L661.792 98.502L665.567 94.7157ZM98.1869 142.074L101.968 145.854L192.903 236.759L283.538 145.86L287.314 142.074L291.095 145.854L382.03 236.759L472.665 145.86L476.44 142.074L480.222 145.854L571.156 236.759L661.792 145.86L665.567 142.074L669.349 145.854L760.283 236.759L850.919 145.86L858.482 153.401L764.071 248.087L760.295 251.873L756.514 248.093L665.579 157.188L574.944 248.087L571.169 251.873L567.387 248.093L476.453 157.188L385.817 248.087L382.042 251.873L378.26 248.093L287.326 157.188L196.69 248.087L192.915 251.873L189.133 248.093L98.1991 157.188L7.56346 248.087L0.000607252 240.546L94.4115 145.86L98.1869 142.074ZM98.1869 189.401L101.969 193.183L192.903 284.117L283.538 193.189L287.314 189.401L291.096 193.183L382.03 284.117L472.665 193.189L476.44 189.401L480.223 193.183L571.156 284.117L661.791 193.189L665.567 189.401L669.349 193.183L760.283 284.117L850.918 193.189L858.482 200.729L764.071 295.445L760.295 299.233L756.513 295.451L665.579 204.517L574.945 295.445L571.169 299.233L567.387 295.451L476.453 204.517L385.818 295.445L382.042 299.233L378.26 295.451L287.326 204.517L196.691 295.445L192.915 299.233L189.133 295.451L98.1991 204.517L7.56407 295.445L0 287.905L94.4109 193.189L98.1869 189.401ZM98.1869 236.759L101.969 240.541L192.903 331.475L283.538 240.547L287.314 236.759L291.096 240.541L382.03 331.475L472.665 240.547L476.44 236.759L480.223 240.541L571.156 331.475L661.791 240.547L665.567 236.759L669.349 240.541L760.283 331.475L850.918 240.547L858.482 248.087L764.071 342.803L760.295 346.591L756.513 342.809L665.579 251.875L574.945 342.803L571.169 346.591L567.387 342.809L476.453 251.875L385.818 342.803L382.042 346.591L378.26 342.809L287.326 251.875L196.691 342.803L192.915 346.591L189.133 342.809L98.1991 251.875L7.56407 342.803L4.76837e-07 335.263L94.4109 240.547L98.1869 236.759ZM98.1869 284.115L101.969 287.897L192.903 378.831L283.538 287.903L287.314 284.115L291.096 287.897L382.03 378.831L472.665 287.903L476.44 284.115L480.223 287.897L571.156 378.831L661.791 287.903L665.567 284.115L669.349 287.897L760.283 378.831L850.918 287.903L858.482 295.443L764.071 390.159L760.295 393.947L756.513 390.165L665.579 299.231L574.945 390.159L571.169 393.947L567.387 390.165L476.453 299.231L385.818 390.159L382.042 393.947L378.26 390.165L287.326 299.231L196.691 390.159L192.915 393.947L189.133 390.165L98.1991 299.231L7.56407 390.159L9.53674e-07 382.619L94.4109 287.903L98.1869 284.115Z" fill="#9761F3"/>
</svg>
