<svg width="338" height="676" viewBox="0 0 338 676" fill="none" xmlns="http://www.w3.org/2000/svg">
<mask id="mask0" mask-type="alpha" maskUnits="userSpaceOnUse" x="0" y="0" width="338" height="676">
<path d="M0 338C0 524.672 151.328 676 338 676L338 0C151.328 0 0 151.328 0 338Z" fill="#9761F3"/>
</mask>
<g mask="url(#mask0)">
<rect x="-41" y="-21" width="388" height="717" fill="#9761F3"/>
<path fill-rule="evenodd" clip-rule="evenodd" d="M532.454 -42.4821L528.672 -46.2642L524.896 -42.476L450.04 32.6218L374.936 -42.4821L371.154 -46.2642L367.378 -42.476L292.522 32.6218L217.418 -42.4821L213.636 -46.2642L209.86 -42.476L135.004 32.6218L59.9001 -42.4821L56.1181 -46.2642L52.3422 -42.476L-26.2898 36.4099L-18.7257 43.9496L56.1303 -31.1482L131.234 43.9557L135.016 47.7378L138.792 43.9496L213.648 -31.1482L288.752 43.9557L292.534 47.7378L296.31 43.9496L371.166 -31.1482L446.27 43.9557L450.052 47.7378L453.828 43.9496L528.684 -31.1482L603.788 43.9557L607.57 47.7378L611.346 43.9496L689.978 -34.9363L682.414 -42.476L607.558 32.6218L532.454 -42.4821ZM532.454 -3.03937L528.672 -6.82141L524.896 -3.03328L450.04 72.0645L374.936 -3.03937L371.154 -6.82141L367.378 -3.03328L292.522 72.0645L217.418 -3.03937L213.636 -6.82141L209.86 -3.03328L135.004 72.0645L59.9001 -3.03937L56.1181 -6.82141L52.3422 -3.03328L-26.2898 75.8527L-18.7257 83.3924L56.1303 8.29457L131.234 83.3985L135.016 87.1805L138.792 83.3924L213.648 8.29457L288.752 83.3985L292.534 87.1805L296.31 83.3924L371.166 8.29457L446.27 83.3985L450.052 87.1805L453.828 83.3924L528.684 8.29457L603.788 83.3985L607.57 87.1805L611.346 83.3924L689.978 4.50644L682.414 -3.03328L607.558 72.0645L532.454 -3.03937ZM528.672 32.623L532.453 36.4033L607.558 111.484L682.414 36.4094L689.977 43.9503L611.345 122.811L607.57 126.597L603.788 122.817L528.684 47.7366L453.827 122.811L450.052 126.597L446.271 122.817L371.166 47.7366L296.309 122.811L292.534 126.597L288.753 122.817L213.648 47.7366L138.792 122.811L135.016 126.597L131.235 122.817L56.1303 47.7366L-18.7263 122.811L-26.2892 115.27L52.3428 36.4093L56.1181 32.623L59.8995 36.4033L135.004 111.484L209.861 36.4093L213.636 32.623L217.417 36.4033L292.522 111.484L367.379 36.4093L371.154 32.623L374.935 36.4033L450.04 111.484L524.896 36.4093L528.672 32.623ZM532.453 75.8463L528.672 72.066L524.896 75.8523L450.04 150.927L374.935 75.8463L371.154 72.066L367.379 75.8523L292.522 150.927L217.417 75.8463L213.636 72.066L209.861 75.8523L135.004 150.927L59.8995 75.8463L56.1181 72.066L52.3428 75.8523L-26.2892 154.713L-18.7263 162.254L56.1303 87.1796L131.235 162.26L135.016 166.04L138.792 162.254L213.648 87.1796L288.753 162.26L292.534 166.04L296.309 162.254L371.166 87.1796L446.271 162.26L450.052 166.04L453.827 162.254L528.684 87.1796L603.788 162.26L607.57 166.04L611.345 162.254L689.977 83.3933L682.414 75.8523L607.558 150.927L532.453 75.8463ZM528.672 111.482L532.454 115.264L607.558 190.368L682.414 115.27L689.978 122.81L611.346 201.696L607.57 205.484L603.788 201.702L528.684 126.598L453.828 201.696L450.052 205.484L446.27 201.702L371.166 126.598L296.31 201.696L292.534 205.484L288.752 201.702L213.648 126.598L138.792 201.696L135.016 205.484L131.234 201.702L56.1303 126.598L-18.7257 201.696L-26.2898 194.156L52.3422 115.27L56.1181 111.482L59.9001 115.264L135.004 190.368L209.86 115.27L213.636 111.482L217.418 115.264L292.522 190.368L367.378 115.27L371.154 111.482L374.936 115.264L450.04 190.368L524.896 115.27L528.672 111.482ZM532.454 154.707L528.672 150.925L524.896 154.714L450.04 229.811L374.936 154.707L371.154 150.925L367.378 154.714L292.522 229.811L217.418 154.707L213.636 150.925L209.86 154.714L135.004 229.811L59.9001 154.707L56.1181 150.925L52.3422 154.714L-26.2898 233.6L-18.7257 241.139L56.1303 166.041L131.234 241.145L135.016 244.927L138.792 241.139L213.648 166.041L288.752 241.145L292.534 244.927L296.31 241.139L371.166 166.041L446.27 241.145L450.052 244.927L453.828 241.139L528.684 166.041L603.788 241.145L607.57 244.927L611.346 241.139L689.978 162.253L682.414 154.714L607.558 229.811L532.454 154.707ZM528.672 190.368L532.454 194.15L607.558 269.254L682.414 194.156L689.978 201.696L611.346 280.582L607.57 284.37L603.788 280.588L528.684 205.484L453.828 280.582L450.052 284.37L446.27 280.588L371.166 205.484L296.31 280.582L292.534 284.37L288.752 280.588L213.648 205.484L138.792 280.582L135.016 284.37L131.234 280.588L56.1303 205.484L-18.7257 280.582L-26.2898 273.042L52.3422 194.156L56.1181 190.368L59.9001 194.15L135.004 269.254L209.86 194.156L213.636 190.368L217.418 194.15L292.522 269.254L367.378 194.156L371.154 190.368L374.936 194.15L450.04 269.254L524.896 194.156L528.672 190.368ZM532.454 233.593L528.672 229.811L524.896 233.599L450.04 308.697L374.936 233.593L371.154 229.811L367.378 233.599L292.522 308.697L217.418 233.593L213.636 229.811L209.86 233.599L135.004 308.697L59.9001 233.593L56.1181 229.811L52.3422 233.599L-26.2898 312.485L-18.7257 320.024L56.1303 244.927L131.234 320.031L135.016 323.813L138.792 320.024L213.648 244.927L288.752 320.031L292.534 323.813L296.31 320.024L371.166 244.927L446.27 320.031L450.052 323.813L453.828 320.024L528.684 244.927L603.788 320.031L607.57 323.813L611.346 320.024L689.978 241.139L682.414 233.599L607.558 308.697L532.454 233.593ZM528.672 269.255L532.453 273.035L607.558 348.116L682.414 273.041L689.977 280.582L611.345 359.443L607.57 363.229L603.788 359.449L528.684 284.369L453.827 359.443L450.052 363.229L446.271 359.449L371.166 284.369L296.309 359.443L292.534 363.229L288.753 359.449L213.648 284.369L138.792 359.443L135.016 363.229L131.235 359.449L56.1303 284.369L-18.7263 359.443L-26.2892 351.902L52.3428 273.041L56.1181 269.255L59.8995 273.035L135.004 348.116L209.861 273.041L213.636 269.255L217.417 273.035L292.522 348.116L367.379 273.041L371.154 269.255L374.935 273.035L450.04 348.116L524.896 273.041L528.672 269.255ZM532.453 312.478L528.672 308.698L524.896 312.484L450.04 387.559L374.935 312.478L371.154 308.698L367.379 312.484L292.522 387.559L217.417 312.478L213.636 308.698L209.861 312.484L135.004 387.559L59.8995 312.478L56.1181 308.698L52.3428 312.484L-26.2892 391.345L-18.7263 398.886L56.1303 323.812L131.235 398.892L135.016 402.672L138.792 398.886L213.648 323.812L288.753 398.892L292.534 402.672L296.309 398.886L371.166 323.812L446.271 398.892L450.052 402.672L453.827 398.886L528.684 323.812L603.788 398.892L607.57 402.672L611.345 398.886L689.977 320.025L682.414 312.484L607.558 387.559L532.453 312.478ZM528.672 348.115L532.454 351.897L607.558 427.001L682.414 351.903L689.978 359.443L611.346 438.329L607.57 442.117L603.788 438.335L528.684 363.231L453.828 438.329L450.052 442.117L446.27 438.335L371.166 363.231L296.31 438.329L292.534 442.117L288.752 438.335L213.648 363.231L138.792 438.329L135.016 442.117L131.234 438.335L56.1303 363.231L-18.7257 438.329L-26.2898 430.789L52.3422 351.903L56.1181 348.115L59.9001 351.897L135.004 427.001L209.86 351.903L213.636 348.115L217.418 351.897L292.522 427.001L367.378 351.903L371.154 348.115L374.936 351.897L450.04 427.001L524.896 351.903L528.672 348.115ZM532.454 391.339L528.672 387.557L524.896 391.345L450.04 466.443L374.936 391.339L371.154 387.557L367.378 391.345L292.522 466.443L217.418 391.339L213.636 387.557L209.86 391.345L135.004 466.443L59.9001 391.339L56.1181 387.557L52.3422 391.345L-26.2898 470.231L-18.7257 477.771L56.1303 402.673L131.234 477.777L135.016 481.559L138.792 477.771L213.648 402.673L288.752 477.777L292.534 481.559L296.31 477.771L371.166 402.673L446.27 477.777L450.052 481.559L453.828 477.771L528.684 402.673L603.788 477.777L607.57 481.559L611.346 477.771L689.978 398.885L682.414 391.345L607.558 466.443L532.454 391.339ZM528.672 427.001L532.454 430.783L607.558 505.886L682.414 430.789L689.978 438.328L611.346 517.214L607.57 521.002L603.788 517.22L528.684 442.116L453.828 517.214L450.052 521.002L446.27 517.22L371.166 442.116L296.31 517.214L292.534 521.002L288.752 517.22L213.648 442.116L138.792 517.214L135.016 521.002L131.234 517.22L56.1303 442.116L-18.7257 517.214L-26.2898 509.675L52.3422 430.789L56.1181 427.001L59.9001 430.783L135.004 505.886L209.86 430.789L213.636 427.001L217.418 430.783L292.522 505.886L367.378 430.789L371.154 427.001L374.936 430.783L450.04 505.886L524.896 430.789L528.672 427.001ZM532.453 470.225L528.672 466.445L524.896 470.231L450.04 545.306L374.935 470.225L371.154 466.445L367.379 470.231L292.522 545.306L217.417 470.225L213.636 466.445L209.861 470.231L135.004 545.306L59.8995 470.225L56.1181 466.445L52.3428 470.231L-26.2892 549.092L-18.7263 556.633L56.1303 481.559L131.235 556.639L135.016 560.419L138.792 556.633L213.648 481.559L288.753 556.639L292.534 560.419L296.309 556.633L371.166 481.559L446.271 556.639L450.052 560.419L453.827 556.633L528.684 481.559L603.788 556.639L607.57 560.419L611.345 556.633L689.977 477.772L682.414 470.231L607.558 545.306L532.453 470.225ZM528.672 505.888L532.453 509.668L607.558 584.749L682.414 509.674L689.977 517.215L611.345 596.076L607.57 599.862L603.788 596.082L528.684 521.002L453.827 596.076L450.052 599.862L446.271 596.082L371.166 521.002L296.309 596.076L292.534 599.862L288.753 596.082L213.648 521.002L138.792 596.076L135.016 599.862L131.235 596.082L56.1303 521.002L-18.7263 596.076L-26.2892 588.535L52.3428 509.674L56.1181 505.888L59.8995 509.668L135.004 584.749L209.861 509.674L213.636 505.888L217.417 509.668L292.522 584.749L367.379 509.674L371.154 505.888L374.935 509.668L450.04 584.749L524.896 509.674L528.672 505.888ZM532.454 549.086L528.672 545.304L524.896 549.092L450.04 624.19L374.936 549.086L371.154 545.304L367.378 549.092L292.522 624.19L217.418 549.086L213.636 545.304L209.86 549.092L135.004 624.19L59.9001 549.086L56.1181 545.304L52.3422 549.092L-26.2898 627.978L-18.7257 635.518L56.1303 560.42L131.234 635.524L135.016 639.306L138.792 635.518L213.648 560.42L288.752 635.524L292.534 639.306L296.31 635.518L371.166 560.42L446.27 635.524L450.052 639.306L453.828 635.518L528.684 560.42L603.788 635.524L607.57 639.306L611.346 635.518L689.978 556.632L682.414 549.092L607.558 624.19L532.454 549.086ZM528.672 584.747L532.454 588.529L607.558 663.633L682.414 588.535L689.978 596.075L611.346 674.961L607.57 678.749L603.788 674.967L528.684 599.863L453.828 674.961L450.052 678.749L446.27 674.967L371.166 599.863L296.31 674.961L292.534 678.749L288.752 674.967L213.648 599.863L138.792 674.961L135.016 678.749L131.234 674.967L56.1303 599.863L-18.7257 674.961L-26.2898 667.421L52.3422 588.535L56.1181 584.747L59.9001 588.529L135.004 663.633L209.86 588.535L213.636 584.747L217.418 588.529L292.522 663.633L367.378 588.535L371.154 584.747L374.936 588.529L450.04 663.633L524.896 588.535L528.672 584.747ZM532.454 627.972L528.672 624.19L524.896 627.978L450.04 703.076L374.936 627.972L371.154 624.19L367.378 627.978L292.522 703.076L217.418 627.972L213.636 624.19L209.86 627.978L135.004 703.076L59.9001 627.972L56.1181 624.19L52.3422 627.978L-26.2898 706.864L-18.7257 714.404L56.1303 639.306L131.234 714.41L135.016 718.192L138.792 714.404L213.648 639.306L288.752 714.41L292.534 718.192L296.31 714.404L371.166 639.306L446.27 714.41L450.052 718.192L453.828 714.404L528.684 639.306L603.788 714.41L607.57 718.192L611.346 714.404L689.978 635.518L682.414 627.978L607.558 703.076L532.454 627.972Z" fill="#7040C0"/>
</g>
</svg>
