<svg id="Layer_1" data-name="Layer 1" xmlns="http://www.w3.org/2000/svg" viewBox="0 0 145.99 145.98"><defs><style>.cls-1{fill:#fff;}</style></defs><path class="cls-1" d="M128.73,110.34a2.46,2.46,0,1,0-2.46-2.46A2.46,2.46,0,0,0,128.73,110.34Z"/><path class="cls-1" d="M17.63,110.34a2.46,2.46,0,1,0-2.46-2.46A2.46,2.46,0,0,0,17.63,110.34Z"/><path class="cls-1" d="M56,59.35l3.4,3.41,4.24-4.24L62,56.86l-2.57,2.57L56,56l-3.4,3.41L50,56.86l-1.67,1.66,4.24,4.24Z"/><path class="cls-1" d="M90.17,99.82H56v2.55H90.17Z"/><path class="cls-1" d="M90.17,65.56c-4.24,0-8.31,2-12.4,4.85L75.64,72l-.3.23a20.8,20.8,0,0,0,1.39-6.69h4.64V62.76H76.65a18.88,18.88,0,0,0-.28-2h9.4V58H75.65c-.24-.7-.5-1.37-.8-2H90.17V53.23H73.33a21.12,21.12,0,0,0-1.5-2H94.58V48.47H69.06a20.3,20.3,0,0,0-3.13-2.13H99V43.71H56v2.63A18.35,18.35,0,0,1,69,77.43C64.8,80.93,58.76,86,56,86a4.31,4.31,0,1,1,0-8.62h6.25l2.62-2.63H56a6.94,6.94,0,0,0,0,13.88c3,0,7.16-3,12.23-7.15L71,79.17c6.69-5.65,13-11,19.21-11A13.48,13.48,0,1,1,77.35,85.79c.52-.44,1.07-.91,1.65-1.38A11.52,11.52,0,1,0,90.18,70.14c-5.48,0-11.53,5.11-17.94,10.52-5.77,4.87-11.73,9.9-16.25,9.9a8.9,8.9,0,0,1-8.89-8.9,8.73,8.73,0,0,1,8.5-8.89H66.82l1.3-1.3-6-6H39.88v2.74h7.23a16.4,16.4,0,0,0-2.42,2v0H39.88V72.8h2.66A16.11,16.11,0,0,0,56,97.78H90.17a16.11,16.11,0,1,0,0-32.22ZM42.51,81.67A13.5,13.5,0,0,1,54.82,68.24L56,68.13h5.33l2,2H56l-1.22.06A11.53,11.53,0,0,0,56,93.2c5.48,0,11.53-5.11,17.94-10.52,5.76-4.87,11.73-9.9,16.24-9.9a8.9,8.9,0,1,1-8.85,9.74c.64-.52,1.3-1,2-1.5a4.63,4.63,0,0,0,0,.65,6.94,6.94,0,1,0,6.94-6.93,6.84,6.84,0,0,0-3.74,1.1c-3.09,1.56-6.88,4.65-11.24,8.34-6.69,5.64-13,11-19.2,11A13.51,13.51,0,0,1,42.51,81.67Zm43.35,0a4.33,4.33,0,0,1,1.87-3.55,6,6,0,0,1,2.44-.76,4.31,4.31,0,1,1-4.31,4.31Zm-21,13.48A68,68,0,0,0,75.2,87.6a16.19,16.19,0,0,0,4.86,6.6,13.89,13.89,0,0,0,1.32,1H64.88Z"/><path class="cls-1" d="M37.44,118.76c2.58,2,2.9,5.57-.12,9.45s-6.54,4.43-9.12,2.42-2.91-5.57.11-9.45S34.86,116.75,37.44,118.76Zm-1.55,2c-1.39-1.08-3.3-.62-5.43,2.11s-2.11,4.69-.72,5.78,3.3.62,5.43-2.11S37.28,121.84,35.89,120.75Z"/><path class="cls-1" d="M43,123l8.22,4.1L50,129.53l-5.77-2.87-1.36,2.72,4.85,2.42-1.13,2.25-4.85-2.41-2.85,5.73-2.45-1.22Z"/><path class="cls-1" d="M57.84,129.37l2.69.47-.93,5.4,5.09-4.68,3.25.56-6.18,5.58,4.05,9-3.27-.56-3.32-7.65L58,144.32l-2.69-.46Z"/><path class="cls-1" d="M73.11,131.17l3-.07,5,14.58-2.81.06-1.11-3.39-4.54.11-.94,3.45-2.81.07Zm3.22,8.68-1.63-5-1.39,5.11Z"/><path class="cls-1" d="M84.19,143.9l3.7-12.05L82,133.19l-.56-2.45,9.33-2.14.28,1.22-3.7,12.05,6.37-1.45.56,2.45-9.85,2.26Z"/><path class="cls-1" d="M95.61,126.62l2.72-1.22,10.26,11.48L106,138l-2.35-2.69-4.13,1.87.47,3.54-2.56,1.16Zm6.35,6.75-3.47-4,.71,5.25Z"/><path class="cls-1" d="M102.89,123.16l2-1.47,9.55,4.78L109,118.79l2-1.47,8.57,12-2,1.46L108,126l5.49,7.65-2.05,1.47Z"/><path class="cls-1" d="M15.7,93.33l-.82-3L5.57,92.88l.82,3L4,96.54,1.6,87.92,4,87.25l.82,3,9.31-2.55-.82-3L15.77,84l2.36,8.62Z"/><path class="cls-1" d="M.7,83,.52,80.48,9.6,74.86l-9.42.65L0,73l14.66-1,.18,2.51-9,5.62,9.38-.66L15.36,82Z"/><path class="cls-1" d="M3.1,65.21l-.53,4.11L.07,69,1.48,58.08,4,58.4l-.53,4.11,12.08,1.57-.36,2.7Z"/><path class="cls-1" d="M2.57,53.81l3-8.83L8,45.8,5.84,52l2.92,1,1.79-5.25,2.39.82-1.79,5.24L15,55.16l2.2-6.44,2.39.82-3.08,9Z"/><path class="cls-1" d="M7.53,40.66,10.23,36c1.44-2.46,3.68-3,5.86-1.76a3.85,3.85,0,0,1,2,4.37l7.73-.21-1.53,2.63-7.47.22-.72,1.23,5.48,3.19-1.38,2.36ZM15.28,39a1.51,1.51,0,0,0-.56-2.32,1.51,1.51,0,0,0-2.3.65l-1.34,2.29L14,41.24Z"/><path class="cls-1" d="M15.2,28.36l1.67-1.89L27.25,29l-7.08-6.27,1.67-1.88,11,9.74-1.67,1.89L20.84,30l7,6.23L26.21,38.1Z"/><path class="cls-1" d="M28,15.68l2.38-1.79,12.53,9-2.24,1.69-2.88-2.11-3.62,2.73,1.24,3.35-2.25,1.7Zm7.67,5.18-4.27-3.14,1.85,5Z"/><path class="cls-1" d="M41.37,10.13l-3.73,1.78L36.55,9.64l9.92-4.75,1.09,2.27L43.83,9l5.26,11-2.46,1.18Z"/><path class="cls-1" d="M53.76,15.24l3-.76L54.39,5.12l-3,.76-.62-2.44,8.67-2.21.62,2.45-3,.76,2.38,9.36,3-.76.62,2.44-8.67,2.21Z"/><path class="cls-1" d="M69.37,0c3.27-.17,5.84,2.3,6.09,7.21s-2,7.64-5.32,7.81-5.84-2.31-6.09-7.22S66.1.17,69.37,0Zm.13,2.51c-1.77.09-2.91,1.68-2.73,5.15S68.25,12.59,70,12.5s2.9-1.68,2.72-5.14S71.26,2.43,69.5,2.52Z"/><path class="cls-1" d="M78.85.13,81.34.5l3.53,10.08,1.4-9.34,2.49.37L86.6,16.15l-2.5-.37-3.53-10L79.18,15l-2.49-.37Z"/><path class="cls-1" d="M96.44,3.91l2.8,1-.67,15.39-2.64-1,.2-3.57-4.27-1.54-2.13,2.86-2.65-1Zm-.16,9.26.31-5.3-3.16,4.26Z"/><path class="cls-1" d="M106.88,8.24l2.33,1.42-6.32,10.41,5.65,3.43-1.3,2.16-8-4.85Z"/><path class="cls-1" d="M118,28.31a3.06,3.06,0,0,0,.16,4.21,1.85,1.85,0,0,0,2.85.31c.87-.95.69-1.47-.43-3.95-1.06-2.33-.93-4.06.69-5.52,1.8-1.62,4.26-1.34,6.12.72a4.51,4.51,0,0,1,.75,5.52l-2.3-.89a2.42,2.42,0,0,0-.32-2.94,1.69,1.69,0,0,0-2.46-.35c-.83.75-.69,1.65.28,3.51,1.24,2.37,1.38,4.22-.42,5.85-2.2,2-4.7,1.57-6.69-.63a5.25,5.25,0,0,1-.53-7Z"/><path class="cls-1" d="M136.16,36.15c1.43,2.4,1.1,4.72-1,7l-2-1.82c1.56-1.53,1.51-2.77.83-3.91a3.19,3.19,0,0,0-2.25-1.57A5.84,5.84,0,0,0,127.9,37a5.87,5.87,0,0,0-2.81,2.84,3.27,3.27,0,0,0,.3,2.73c.68,1.14,1.74,1.78,3.83,1.15l.63,2.62c-3,.74-5.2-.08-6.62-2.48-1.76-3-1-6.69,3.28-9.2S134.4,33.18,136.16,36.15Z"/><path class="cls-1" d="M140.14,44l.9,2.57-5.3,1.86,1.55,4.44,5.31-1.86.9,2.58-13.87,4.86-.9-2.58,6.18-2.16-1.55-4.44-6.19,2.16-.9-2.57Z"/><path class="cls-1" d="M145.4,62.84c.45,3.24-1.79,6-6.65,6.7s-7.79-1.37-8.24-4.61,1.78-6,6.65-6.7S144.94,59.59,145.4,62.84Zm-2.5.35c-.25-1.75-1.93-2.74-5.36-2.26s-4.78,1.9-4.54,3.65,1.93,2.74,5.37,2.26S143.15,64.94,142.9,63.19Z"/><path class="cls-1" d="M146,77.32c-.19,3.27-2.93,5.54-7.84,5.26s-7.36-2.88-7.16-6.15,2.93-5.55,7.84-5.26S146.18,74.05,146,77.32Zm-2.51-.15c.1-1.76-1.36-3.07-4.82-3.27s-5.06.92-5.16,2.68,1.35,3.07,4.81,3.27S143.36,78.93,143.47,77.17Z"/><path class="cls-1" d="M144.72,87.08,144,89.72l-11.78-3.11L130.56,93l-2.44-.65,2.39-9Z"/></svg>