<svg xmlns="http://www.w3.org/2000/svg" width="252.8mm" height="773.97mm" viewBox="0 0 716.59 2193.92"><title>Artboard 1</title><path d="M558.74,1433.25l-3.78-3.78-3.77,3.79-74.86,75.09-75.1-75.1-3.79-3.78-3.77,3.79-74.86,75.09-75.1-75.1-3.78-3.78-3.78,3.79-74.86,75.09-75.1-75.1-3.78-3.78-3.78,3.79L0,1512.14l7.56,7.54,74.86-75.1,75.1,75.11,3.79,3.78,3.77-3.79,74.86-75.1,75.1,75.11,3.78,3.78,3.78-3.79,74.86-75.1,75.1,75.11,3.78,3.78,3.78-3.79,74.85-75.1,75.11,75.11,3.78,3.78,3.78-3.79,78.63-78.88-7.57-7.54-74.85,75.09Zm0,39.44-3.78-3.78-3.77,3.79-74.86,75.1-75.1-75.11-3.79-3.78-3.77,3.79-74.86,75.1-75.1-75.11-3.78-3.78-3.78,3.79-74.86,75.1-75.1-75.11-3.78-3.78-3.78,3.79L0,1551.59l7.56,7.54L82.42,1484l75.1,75.1,3.79,3.78,3.77-3.78,74.86-75.1,75.1,75.1,3.78,3.78,3.78-3.78,74.86-75.1,75.1,75.1,3.78,3.78,3.78-3.78L555,1484l75.11,75.1,3.78,3.78,3.78-3.78,78.63-78.89-7.57-7.54-74.85,75.1ZM555,1508.36l3.78,3.78,75.11,75.08,74.85-75.08,7.57,7.54-78.64,78.86-3.77,3.79-3.78-3.78L555,1523.47l-74.85,75.07-3.78,3.79-3.78-3.78-75.1-75.08-74.86,75.07-3.78,3.79-3.78-3.78-75.1-75.08-74.86,75.07-3.77,3.79-3.79-3.78-75.1-75.08L7.56,1598.54,0,1591l78.63-78.86,3.78-3.78,3.78,3.78,75.1,75.08,74.86-75.08,3.78-3.78,3.78,3.78,75.1,75.08,74.86-75.08,3.77-3.78,3.78,3.78,75.11,75.08,74.86-75.08Zm3.78,43.22L555,1547.8l-3.77,3.79-74.86,75.07-75.11-75.08-3.78-3.78-3.77,3.79-74.86,75.07-75.1-75.08-3.78-3.78-3.78,3.79-74.86,75.07-75.1-75.08-3.78-3.78-3.78,3.79L0,1630.45,7.56,1638l74.86-75.08,75.1,75.08,3.79,3.78,3.77-3.78,74.86-75.08L315,1638l3.78,3.78,3.78-3.78,74.86-75.08,75.1,75.08,3.78,3.78,3.78-3.78L555,1562.91,630.08,1638l3.78,3.78,3.77-3.78,78.64-78.86-7.57-7.54-74.85,75.07ZM555,1587.21l3.78,3.79,75.11,75.1L708.7,1591l7.57,7.54-78.63,78.89-3.78,3.79-3.78-3.79L555,1602.33l-74.85,75.1-3.78,3.79-3.78-3.79-75.1-75.1-74.86,75.1-3.78,3.79-3.78-3.79-75.1-75.1-74.86,75.1-3.77,3.79-3.79-3.79-75.1-75.1-74.86,75.1L0,1669.89,78.63,1591l3.78-3.79,3.78,3.79,75.1,75.1,74.86-75.1,3.78-3.79,3.78,3.79,75.1,75.1,74.86-75.1,3.77-3.79,3.79,3.79,75.1,75.1,74.86-75.1Zm3.78,43.23-3.78-3.78-3.77,3.79-74.86,75.09-75.1-75.1-3.79-3.78-3.77,3.79-74.86,75.09-75.1-75.1-3.78-3.78-3.78,3.79-74.86,75.09-75.1-75.1-3.78-3.78-3.78,3.79L0,1709.33l7.56,7.54,74.86-75.1,75.1,75.11,3.79,3.78,3.77-3.79,74.86-75.1,75.1,75.11,3.78,3.78,3.78-3.79,74.86-75.1,75.1,75.11,3.78,3.78,3.78-3.79,74.85-75.1,75.11,75.11,3.78,3.78,3.78-3.79L716.27,1638l-7.57-7.54-74.85,75.09ZM555,1666.1l3.78,3.78L633.85,1745l74.85-75.1,7.57,7.54-78.63,78.88-3.78,3.79-3.78-3.78L555,1681.22l-74.85,75.09-3.78,3.79-3.78-3.78-75.1-75.1-74.86,75.09-3.78,3.79-3.78-3.78-75.1-75.1-74.86,75.09-3.77,3.79-3.79-3.78-75.1-75.1L7.56,1756.31,0,1748.77l78.63-78.88,3.78-3.79,3.78,3.78,75.1,75.11,74.86-75.1,3.78-3.79,3.78,3.78,75.1,75.11,74.86-75.1,3.77-3.79,3.79,3.78,75.1,75.11,74.86-75.1Zm3.78,43.23-3.78-3.79-3.77,3.79-74.86,75.1-75.1-75.1-3.79-3.79-3.77,3.79-74.86,75.1-75.1-75.1-3.78-3.79-3.78,3.79-74.86,75.1-75.1-75.1-3.78-3.79-3.78,3.79L0,1788.22l7.56,7.54,74.86-75.1,75.1,75.1,3.79,3.79,3.77-3.79,74.86-75.1,75.1,75.1,3.78,3.79,3.78-3.79,74.86-75.1,75.1,75.1,3.78,3.79,3.78-3.79,74.85-75.1,75.11,75.1,3.78,3.79,3.78-3.79,78.63-78.89-7.57-7.54-74.85,75.1ZM555,1745l3.78,3.78,75.11,75.08,74.85-75.08,7.57,7.54-78.64,78.87-3.77,3.78-3.78-3.78L555,1760.1l-74.85,75.08-3.78,3.78-3.78-3.78-75.1-75.08-74.86,75.08-3.78,3.78-3.78-3.78-75.1-75.08-74.86,75.08-3.77,3.78-3.79-3.78-75.1-75.08L7.56,1835.18,0,1827.63l78.63-78.86,3.78-3.78,3.78,3.78,75.1,75.08,74.86-75.08,3.78-3.78,3.78,3.78,75.1,75.08,74.86-75.08,3.77-3.78,3.78,3.78,75.11,75.08,74.86-75.08Zm3.78,43.22-3.78-3.78-3.77,3.79-74.86,75.07-75.11-75.08-3.78-3.78-3.77,3.79-74.86,75.07-75.1-75.08-3.78-3.78-3.78,3.79-74.86,75.07-75.1-75.08-3.78-3.78-3.78,3.79L0,1867.08l7.56,7.54,74.86-75.08,75.1,75.08,3.79,3.78,3.77-3.78,74.86-75.08,75.1,75.08,3.78,3.78,3.78-3.78,74.86-75.08,75.1,75.08,3.78,3.78,3.78-3.78L555,1799.54l75.11,75.08,3.78,3.78,3.77-3.78,78.64-78.86-7.57-7.54-74.85,75.07ZM555,1823.85l3.78,3.78,75.11,75.1,74.85-75.09,7.57,7.54-78.63,78.88-3.78,3.79-3.78-3.78L555,1839l-74.85,75.1-3.78,3.79-3.78-3.78L397.46,1839l-74.86,75.1-3.78,3.79-3.78-3.78L239.94,1839l-74.86,75.1-3.77,3.79-3.79-3.78L82.42,1839l-74.86,75.1L0,1906.52l78.63-78.88,3.78-3.79,3.78,3.78,75.1,75.1,74.86-75.09,3.78-3.79,3.78,3.78,75.1,75.1,74.86-75.09,3.77-3.79,3.79,3.78,75.1,75.1,74.86-75.09Zm3.78,43.22-3.78-3.78-3.77,3.79-74.86,75.1-75.1-75.11-3.79-3.78-3.77,3.79-74.86,75.1-75.1-75.11-3.78-3.78-3.78,3.79-74.86,75.1-75.1-75.11-3.78-3.78-3.78,3.79L0,1946l7.56,7.54,74.86-75.09,75.1,75.1,3.79,3.78,3.77-3.79,74.86-75.09,75.1,75.1,3.78,3.78,3.78-3.79,74.86-75.09,75.1,75.1,3.78,3.78,3.78-3.79L555,1878.41l75.11,75.1,3.78,3.78,3.78-3.79,78.63-78.88-7.57-7.54-74.85,75.1ZM555,1902.73l3.78,3.79,75.11,75.1,74.85-75.1,7.57,7.54L637.64,1993l-3.78,3.78-3.78-3.78L555,1917.85,480.12,1993l-3.78,3.78-3.78-3.78-75.1-75.1L322.6,1993l-3.78,3.78L315,1993l-75.1-75.1L165.08,1993l-3.77,3.78-3.79-3.78-75.1-75.1L7.56,1993,0,1985.41l78.63-78.89,3.78-3.79,3.78,3.79,75.1,75.1,74.86-75.1,3.78-3.79,3.78,3.79,75.1,75.1,74.86-75.1,3.77-3.79,3.79,3.79,75.1,75.1,74.86-75.1Zm3.78,43.23-3.78-3.78-3.77,3.78L476.33,2021,401.22,1946l-3.78-3.78-3.77,3.78L318.81,2021,243.71,1946l-3.78-3.78-3.78,3.78L161.29,2021,86.19,1946l-3.78-3.78L78.63,1946,0,2024.82l7.56,7.55,74.86-75.08,75.1,75.08,3.79,3.78,3.77-3.78,74.86-75.08,75.1,75.08,3.78,3.78,3.78-3.78,74.86-75.08,75.1,75.08,3.78,3.78,3.78-3.78L555,1957.29l75.11,75.08,3.78,3.78,3.77-3.78,78.64-78.87L708.7,1946,633.85,2021ZM555,1981.62l3.78,3.78,75.11,75.08,74.85-75.07,7.57,7.54-78.64,78.86-3.77,3.78-3.78-3.78L555,1996.73l-74.85,75.08-3.78,3.78-3.78-3.78-75.1-75.08-74.86,75.08-3.78,3.78-3.78-3.78-75.1-75.08-74.86,75.08-3.77,3.78-3.79-3.78-75.1-75.08L7.56,2071.81,0,2064.27l78.63-78.86,3.78-3.79,3.78,3.78,75.1,75.08,74.86-75.07,3.78-3.79,3.78,3.78,75.1,75.08,74.86-75.07,3.77-3.79,3.78,3.78,75.11,75.08,74.86-75.07Zm3.78,43.2L555,2021l-3.77,3.78-74.86,75.1-75.1-75.1-3.79-3.78-3.77,3.78-74.86,75.1-75.1-75.1-3.78-3.78-3.78,3.78-74.86,75.1-75.1-75.1L82.41,2021l-3.78,3.78L0,2103.71l7.56,7.54,74.86-75.1,75.1,75.11,3.79,3.78,3.77-3.79,74.86-75.1,75.1,75.11,3.78,3.78,3.78-3.79,74.86-75.1,75.1,75.11,3.78,3.78,3.78-3.79,74.85-75.1,75.11,75.11,3.78,3.78,3.78-3.79,78.63-78.89-7.57-7.54-74.85,75.1ZM555,2060.48l3.78,3.78,75.11,75.11,74.85-75.1,7.57,7.54-78.63,78.88-3.78,3.79-3.78-3.78L555,2075.6l-74.85,75.09-3.78,3.79-3.78-3.78-75.1-75.1-74.86,75.09-3.78,3.79L315,2150.7l-75.1-75.1-74.86,75.09-3.77,3.79-3.79-3.78-75.1-75.1L7.56,2150.69,0,2143.15l78.63-78.88,3.78-3.79,3.78,3.78,75.1,75.11,74.86-75.1,3.78-3.79,3.78,3.78,75.1,75.11,74.86-75.1,3.77-3.79,3.79,3.78,75.1,75.11,74.86-75.1Zm3.78,43.22-3.78-3.78-3.77,3.79-74.86,75.1-75.1-75.11-3.79-3.78-3.77,3.79-74.86,75.1-75.1-75.11-3.78-3.78-3.78,3.79-74.86,75.1-75.1-75.11-3.78-3.78-3.78,3.79L0,2182.6l7.56,7.54L82.42,2115l75.1,75.1,3.79,3.78,3.77-3.78,74.86-75.1,75.1,75.1,3.78,3.78,3.78-3.78,74.86-75.1,75.1,75.1,3.78,3.78,3.78-3.78L555,2115l75.11,75.1,3.78,3.78,3.78-3.78,78.63-78.89-7.57-7.54-74.85,75.1Z" fill="#12aac4" fill-rule="evenodd"/><path d="M559.06,718.8,555.28,715l-3.77,3.79-74.86,75.1-75.1-75.1L397.76,715,394,718.8l-74.86,75.1L244,718.8,240.25,715l-3.78,3.79-74.86,75.1-75.1-75.1L82.73,715,79,718.8.32,797.69l7.57,7.54,74.85-75.1,75.1,75.1,3.79,3.79,3.77-3.79,74.86-75.1,75.1,75.1,3.78,3.79,3.78-3.79,74.86-75.1,75.1,75.1,3.78,3.79,3.78-3.79,74.85-75.1,75.11,75.1,3.78,3.79,3.78-3.79,78.63-78.89L709,718.8l-74.85,75.1Zm0,39.44-3.78-3.78-3.77,3.78-74.86,75.1-75.1-75.1-3.79-3.78L394,758.24l-74.86,75.1L244,758.24l-3.78-3.78-3.78,3.78-74.86,75.1-75.1-75.1-3.78-3.78L79,758.24.32,837.13l7.57,7.54,74.85-75.1,75.1,75.11,3.79,3.78,3.77-3.79,74.86-75.1,75.1,75.11,3.78,3.78,3.78-3.79,74.86-75.1,75.1,75.11,3.78,3.78,3.78-3.79,74.85-75.1,75.11,75.11,3.78,3.78,3.78-3.79,78.63-78.89L709,758.24l-74.85,75.1Zm-3.78,35.66,3.78,3.78,75.11,75.08L709,797.69l7.57,7.54L638,884.09l-3.78,3.78-3.78-3.78L555.29,809l-74.85,75.08-3.78,3.78-3.78-3.78L397.78,809l-74.86,75.08-3.78,3.78-3.78-3.78L240.26,809,165.4,884.09l-3.77,3.78-3.78-3.78L82.74,809,7.88,884.09.32,876.55,79,797.69l3.78-3.79,3.78,3.78,75.1,75.08,74.86-75.07,3.78-3.79,3.78,3.78,75.1,75.08L394,797.69l3.77-3.79,3.79,3.78,75.1,75.08,74.86-75.07Zm3.78,43.22-3.78-3.78-3.77,3.79L476.65,912.2l-75.1-75.08-3.79-3.78L394,837.13,319.13,912.2,244,837.12l-3.78-3.78-3.78,3.79L161.61,912.2l-75.1-75.08-3.78-3.78L79,837.13.32,916l7.56,7.54,74.86-75.07,75.11,75.08,3.78,3.78,3.77-3.79,74.86-75.07,75.1,75.08,3.78,3.78,3.78-3.79,74.86-75.07,75.1,75.08,3.78,3.78,3.78-3.79,74.85-75.07,75.11,75.08,3.78,3.78,3.78-3.79,78.63-78.86L709,837.13,634.17,912.2Zm-3.78,35.64,3.78,3.78,75.11,75.11L709,876.55l7.57,7.54L638,963l-3.78,3.79L630.4,963l-75.11-75.1L480.44,963l-3.78,3.79L472.88,963l-75.1-75.1L322.92,963l-3.78,3.79L315.36,963l-75.1-75.1L165.4,963l-3.77,3.79L157.84,963l-75.1-75.1L7.89,963,.32,955.43,79,876.55l3.78-3.79,3.78,3.78,75.1,75.11,74.86-75.1,3.78-3.79,3.78,3.78,75.1,75.11L394,876.55l3.77-3.79,3.79,3.78,75.1,75.11,74.86-75.1ZM559.06,916l-3.78-3.78L551.51,916l-74.86,75.1L401.55,916l-3.79-3.78L394,916l-74.86,75.1L244,916l-3.78-3.78L236.47,916l-74.86,75.1L86.51,916l-3.78-3.78L79,916,.32,994.88l7.57,7.54,74.85-75.1,75.1,75.1,3.79,3.78,3.77-3.78,74.86-75.1,75.1,75.1,3.78,3.78,3.78-3.78,74.86-75.1,75.1,75.1,3.78,3.78,3.78-3.78,74.85-75.1,75.11,75.1,3.78,3.78,3.78-3.78,78.63-78.89L709,916l-74.85,75.1Zm-3.78,35.67,3.78,3.78,75.11,75.1L709,955.43l7.57,7.54L638,1041.86l-3.78,3.79-3.78-3.78-75.11-75.11-74.85,75.1-3.78,3.79-3.78-3.78-75.1-75.11-74.86,75.1-3.78,3.79-3.78-3.78-75.1-75.11-74.86,75.1-3.77,3.79-3.79-3.78-75.1-75.11-74.85,75.1-7.57-7.54L79,955.43l3.78-3.78,3.78,3.78,75.1,75.1,74.86-75.1,3.78-3.78,3.78,3.78,75.1,75.1L394,955.43l3.77-3.78,3.79,3.78,75.1,75.1,74.86-75.1Zm3.78,43.22-3.78-3.78-3.77,3.79L476.65,1070l-75.1-75.1-3.79-3.78L394,994.88,319.13,1070,244,994.87l-3.78-3.78-3.78,3.79L161.61,1070l-75.1-75.1-3.78-3.78L79,994.88.32,1073.76l7.57,7.54,74.85-75.1,75.1,75.11,3.79,3.78,3.77-3.79,74.86-75.1,75.1,75.11,3.78,3.78,3.78-3.79,74.86-75.1,75.1,75.11,3.78,3.78,3.78-3.79,74.85-75.1,75.11,75.11,3.78,3.78,3.78-3.79,78.63-78.88L709,994.88,634.17,1070Zm-3.78,35.66,3.78,3.78,75.11,75.08L709,1034.32l7.57,7.54L638,1120.72l-3.78,3.79-3.78-3.78-75.11-75.08-74.85,75.07-3.78,3.79-3.78-3.78-75.1-75.08-74.86,75.07-3.78,3.79-3.78-3.78-75.1-75.08-74.86,75.07-3.77,3.79-3.78-3.78-75.11-75.08L7.88,1120.72l-7.56-7.54L79,1034.32l3.78-3.79,3.78,3.78,75.1,75.08,74.86-75.07,3.78-3.79,3.78,3.78,75.1,75.08L394,1034.32l3.77-3.79,3.79,3.78,75.1,75.08,74.86-75.07Zm3.78,43.23-3.78-3.78-3.77,3.78-74.86,75.08-75.1-75.08-3.79-3.78-3.77,3.78-74.86,75.08L244,1073.76l-3.78-3.78-3.78,3.78-74.86,75.08-75.1-75.08L82.73,1070,79,1073.76.32,1152.62l7.56,7.54,74.86-75.07,75.11,75.08,3.78,3.78,3.77-3.79,74.86-75.07,75.1,75.08,3.78,3.78,3.78-3.79,74.86-75.07,75.1,75.08,3.78,3.78,3.78-3.79,74.85-75.07,75.11,75.08,3.78,3.78,3.78-3.79,78.63-78.86-7.57-7.54-74.85,75.08Zm-3.78,35.63,3.78,3.78,75.11,75.11,74.85-75.1,7.57,7.54L638,1199.61l-3.78,3.78-3.78-3.78-75.11-75.1-74.85,75.1-3.78,3.78-3.78-3.78-75.1-75.1-74.86,75.1-3.78,3.78-3.78-3.78-75.1-75.1-74.86,75.1-3.77,3.78-3.79-3.78-75.1-75.1-74.85,75.1-7.57-7.54L79,1113.18l3.78-3.79,3.78,3.78,75.1,75.11,74.86-75.1,3.78-3.79,3.78,3.78,75.1,75.11,74.86-75.1,3.77-3.79,3.79,3.78,75.1,75.11,74.86-75.1Zm3.78,43.23-3.78-3.79-3.77,3.79-74.86,75.1-75.1-75.1-3.79-3.79-3.77,3.79-74.86,75.1-75.1-75.1-3.78-3.79-3.78,3.79-74.86,75.1-75.1-75.1-3.78-3.79L79,1152.62.32,1231.51l7.57,7.54L82.74,1164l75.1,75.1,3.79,3.79,3.77-3.79,74.86-75.1,75.1,75.1,3.78,3.79,3.78-3.79,74.86-75.1,75.1,75.1,3.78,3.79,3.78-3.79,74.85-75.1,75.11,75.1,3.78,3.79,3.78-3.79,78.63-78.89-7.57-7.54-74.85,75.1Zm-3.78,35.66,3.78,3.78,75.11,75.1L709,1192.07l7.57,7.54L638,1278.49l-3.78,3.79-3.78-3.78-75.11-75.11-74.85,75.1-3.78,3.79-3.78-3.78-75.1-75.11-74.86,75.1-3.78,3.79-3.78-3.78-75.1-75.11-74.86,75.1-3.77,3.79-3.79-3.78-75.1-75.11-74.85,75.1L.32,1271,79,1192.07l3.78-3.79,3.78,3.78,75.1,75.1,74.86-75.09,3.78-3.79,3.78,3.78,75.1,75.1L394,1192.07l3.77-3.79,3.79,3.78,75.1,75.1,74.86-75.09Zm3.78,43.22-3.78-3.78-3.77,3.79-74.86,75.07-75.1-75.08-3.79-3.78-3.77,3.79-74.86,75.07L244,1231.5l-3.78-3.78-3.78,3.79-74.86,75.07-75.1-75.08-3.78-3.78L79,1231.51.32,1310.37l7.56,7.54,74.86-75.07,75.11,75.08,3.78,3.78,3.77-3.79,74.86-75.07,75.1,75.08,3.78,3.78,3.78-3.79,74.86-75.07,75.1,75.08,3.78,3.78,3.78-3.79,74.85-75.07,75.11,75.08,3.78,3.78,3.78-3.79,78.63-78.86-7.57-7.54-74.85,75.07Zm-3.78,35.67,3.78,3.78L634.17,1346,709,1271l7.57,7.54L638,1357.35l-3.78,3.79-3.78-3.78-75.11-75.08-74.85,75.07-3.78,3.79-3.78-3.78-75.1-75.08-74.86,75.07-3.78,3.79-3.78-3.78-75.1-75.08-74.86,75.07-3.77,3.79-3.78-3.78-75.11-75.08L7.88,1357.35l-7.56-7.54L79,1271l3.78-3.78,3.78,3.78,75.1,75.08L236.47,1271l3.78-3.78L244,1271l75.1,75.08L394,1271l3.77-3.78,3.79,3.78,75.1,75.08L551.51,1271Zm3.78,43.19-3.78-3.78-3.77,3.79-74.86,75.1-75.1-75.11-3.79-3.78-3.77,3.79-74.86,75.1L244,1310.36l-3.78-3.78-3.78,3.79-74.86,75.1-75.1-75.11-3.78-3.78L79,1310.37.32,1389.26l7.57,7.54,74.85-75.1,75.1,75.1,3.79,3.78,3.77-3.78,74.86-75.1,75.1,75.1,3.78,3.78,3.78-3.78,74.86-75.1,75.1,75.1,3.78,3.78,3.78-3.78,74.85-75.1,75.11,75.1,3.78,3.78,3.78-3.78,78.63-78.89-7.57-7.54-74.85,75.1ZM555.28,1346l3.78,3.79,75.11,75.1,74.85-75.1,7.57,7.54L638,1436.24l-3.78,3.79-3.78-3.79-75.11-75.1-74.85,75.1-3.78,3.79-3.78-3.79-75.1-75.1-74.86,75.1-3.78,3.79-3.78-3.79-75.1-75.1-74.86,75.1-3.77,3.79-3.79-3.79-75.1-75.1-74.85,75.1L.32,1428.7,79,1349.81l3.78-3.79,3.78,3.79,75.1,75.1,74.86-75.1,3.78-3.79,3.78,3.79,75.1,75.1,74.86-75.1,3.77-3.79,3.79,3.79,75.1,75.1,74.86-75.1Zm3.78,43.23-3.78-3.78-3.77,3.79-74.86,75.09-75.1-75.1-3.79-3.78-3.77,3.79-74.86,75.09-75.1-75.1-3.78-3.78-3.78,3.79-74.86,75.09-75.1-75.1-3.78-3.78L79,1389.26.32,1468.14l7.57,7.54,74.85-75.1,75.1,75.11,3.79,3.78,3.77-3.79,74.86-75.1,75.1,75.11,3.78,3.78,3.78-3.79,74.86-75.1,75.1,75.11,3.78,3.78,3.78-3.79,74.85-75.1,75.11,75.11,3.78,3.78,3.78-3.79,78.63-78.88-7.57-7.54-74.85,75.09Z" fill="#12aac4" fill-rule="evenodd"/><path d="M559.06,3.78,555.28,0l-3.77,3.79-74.86,75.1L401.55,3.78,397.76,0,394,3.79l-74.86,75.1L244,3.78,240.25,0l-3.78,3.79-74.86,75.1L86.51,3.78,82.73,0,79,3.79.32,82.67l7.57,7.54L82.74,15.12l75.1,75.1L161.63,94l3.77-3.79,74.86-75.09,75.1,75.1L319.14,94l3.78-3.79,74.86-75.09,75.1,75.1L476.66,94l3.78-3.79,74.85-75.09,75.11,75.1L634.18,94,638,90.21l78.63-78.88L709,3.79l-74.85,75.1Zm0,39.44-3.78-3.78-3.77,3.79-74.86,75.1-75.1-75.11-3.79-3.78L394,43.23l-74.86,75.1L244,43.22l-3.78-3.78-3.78,3.79-74.86,75.1L86.51,43.22l-3.78-3.78L79,43.23.32,122.12l7.57,7.54,74.85-75.1,75.1,75.1,3.79,3.78,3.77-3.78,74.86-75.1,75.1,75.1,3.78,3.78,3.78-3.78,74.86-75.1,75.1,75.1,3.78,3.78,3.78-3.78,74.85-75.1,75.11,75.1,3.78,3.78,3.78-3.78,78.63-78.89L709,43.23l-74.85,75.1Zm-3.78,35.67,3.78,3.78,75.11,75.08L709,82.67l7.57,7.54L638,169.08l-3.78,3.78-3.78-3.78L555.29,94l-74.85,75.08-3.78,3.78-3.78-3.78L397.78,94l-74.86,75.08-3.78,3.78-3.78-3.78L240.26,94,165.4,169.08l-3.77,3.78-3.78-3.78L82.74,94,7.88,169.08.32,161.53,79,82.67l3.78-3.78,3.78,3.78,75.1,75.08,74.86-75.08,3.78-3.78L244,82.67l75.1,75.08L394,82.67l3.77-3.78,3.79,3.78,75.1,75.08,74.86-75.08Zm3.78,43.22-3.78-3.78-3.77,3.79-74.86,75.07-75.1-75.08-3.79-3.78L394,122.12l-74.86,75.07L244,122.11l-3.78-3.78-3.78,3.79-74.86,75.07-75.1-75.08-3.78-3.78L79,122.12.32,201l7.56,7.54,74.86-75.08,75.11,75.08,3.78,3.78,3.77-3.78,74.86-75.08,75.1,75.08,3.78,3.78,3.78-3.78,74.86-75.08,75.1,75.08,3.78,3.78,3.78-3.78,74.85-75.08,75.11,75.08,3.78,3.78,3.78-3.78,78.63-78.86L709,122.12l-74.85,75.07Zm-3.78,35.64,3.78,3.78,75.11,75.1L709,161.53l7.57,7.54L638,248l-3.78,3.79L630.4,248l-75.11-75.11L480.44,248l-3.78,3.79L472.88,248l-75.1-75.11L322.92,248l-3.78,3.79L315.36,248l-75.1-75.11L165.4,248l-3.77,3.79L157.84,248l-75.1-75.11L7.89,248,.32,240.42,79,161.53l3.78-3.78,3.78,3.78,75.1,75.1,74.86-75.1,3.78-3.78,3.78,3.78,75.1,75.1L394,161.53l3.77-3.78,3.79,3.78,75.1,75.1,74.86-75.1ZM559.06,201l-3.78-3.78L551.51,201l-74.86,75.1L401.55,201l-3.79-3.78L394,201l-74.86,75.1L244,201l-3.78-3.78L236.47,201l-74.86,75.1L86.51,201l-3.78-3.78L79,201,.32,279.86l7.57,7.54,74.85-75.09,75.1,75.1,3.79,3.78,3.77-3.79,74.86-75.09,75.1,75.1,3.78,3.78,3.78-3.79,74.86-75.09,75.1,75.1,3.78,3.78,3.78-3.79,74.85-75.09,75.11,75.1,3.78,3.78L638,287.4l78.63-78.88L709,201l-74.85,75.1Zm-3.78,35.66,3.78,3.78,75.11,75.11L709,240.42l7.57,7.54L638,326.85l-3.78,3.78-3.78-3.78-75.11-75.1-74.85,75.1-3.78,3.78-3.78-3.78-75.1-75.1-74.86,75.1-3.78,3.78-3.78-3.78-75.1-75.1-74.86,75.1-3.77,3.78-3.79-3.78-75.1-75.1L7.89,326.85.32,319.31,79,240.42l3.78-3.79,3.78,3.78,75.1,75.11,74.86-75.1,3.78-3.79,3.78,3.78,75.1,75.11L394,240.42l3.77-3.79,3.79,3.78,75.1,75.11,74.86-75.1Zm3.78,43.23-3.78-3.78-3.77,3.78L476.65,355l-75.1-75.1-3.79-3.78L394,279.86,319.13,355,244,279.86l-3.78-3.78-3.78,3.78L161.61,355l-75.1-75.1-3.78-3.78L79,279.86.32,358.75l7.57,7.54,74.85-75.1,75.1,75.11,3.79,3.78,3.77-3.79,74.86-75.1,75.1,75.11,3.78,3.78,3.78-3.79,74.86-75.1,75.1,75.11,3.78,3.78,3.78-3.79,74.85-75.1L630.4,366.3l3.78,3.78,3.78-3.79,78.63-78.89L709,279.86,634.17,355Zm-3.78,35.66,3.78,3.78,75.11,75.08L709,319.31l7.57,7.54L638,405.71l-3.78,3.78-3.78-3.78-75.11-75.08-74.85,75.08-3.78,3.78-3.78-3.78-75.1-75.08-74.86,75.08-3.78,3.78-3.78-3.78-75.1-75.08L165.4,405.71l-3.77,3.78-3.78-3.78L82.74,330.63,7.88,405.71.32,398.17,79,319.31l3.78-3.79,3.78,3.78,75.1,75.08,74.86-75.07,3.78-3.79L244,319.3l75.1,75.08L394,319.31l3.77-3.79,3.79,3.78,75.1,75.08,74.86-75.07Zm3.78,43.22L555.28,355l-3.77,3.79-74.86,75.07-75.1-75.08L397.76,355,394,358.75l-74.86,75.07L244,358.74,240.25,355l-3.78,3.79-74.86,75.07-75.1-75.08L82.73,355,79,358.75.32,437.61l7.56,7.54,74.86-75.07,75.11,75.08,3.78,3.78,3.77-3.79,74.86-75.07,75.1,75.08,3.78,3.78,3.78-3.79,74.86-75.07,75.1,75.08,3.78,3.78,3.78-3.79,74.85-75.07,75.11,75.08,3.78,3.78,3.78-3.79,78.63-78.86L709,358.75l-74.85,75.07Zm-3.78,35.64,3.78,3.78,75.11,75.11L709,398.17l7.57,7.54L638,484.59l-3.78,3.79-3.78-3.78-75.11-75.1-74.85,75.09-3.78,3.79-3.78-3.78-75.1-75.1-74.86,75.09-3.78,3.79-3.78-3.78-75.1-75.1L165.4,484.59l-3.77,3.79-3.79-3.78-75.1-75.1L7.89,484.59.32,477.05,79,398.17l3.78-3.79,3.78,3.78,75.1,75.11,74.86-75.1,3.78-3.79,3.78,3.78,75.1,75.11L394,398.17l3.77-3.79,3.79,3.78,75.1,75.11,74.86-75.1Zm3.78,43.22-3.78-3.78-3.77,3.79-74.86,75.1-75.1-75.11-3.79-3.78L394,437.61l-74.86,75.1L244,437.6l-3.78-3.78-3.78,3.79-74.86,75.1L86.51,437.6l-3.78-3.78L79,437.61.32,516.5,7.89,524l74.85-75.1,75.1,75.1,3.79,3.78L165.4,524l74.86-75.1,75.1,75.1,3.78,3.78,3.78-3.78,74.86-75.1,75.1,75.1,3.78,3.78,3.78-3.78,74.85-75.1L630.4,524l3.78,3.78L638,524l78.63-78.89L709,437.61l-74.85,75.1Zm-3.78,35.67,3.78,3.78,75.11,75.1L709,477.05l7.57,7.54L638,563.48l-3.78,3.79-3.78-3.79-75.11-75.1-74.85,75.1-3.78,3.79-3.78-3.79-75.1-75.1-74.86,75.1-3.78,3.79-3.78-3.79-75.1-75.1-74.86,75.1-3.77,3.79-3.79-3.79-75.1-75.1L7.89,563.48.32,555.94,79,477.05l3.78-3.78,3.78,3.78,75.1,75.1,74.86-75.1,3.78-3.78,3.78,3.78,75.1,75.1L394,477.05l3.77-3.78,3.79,3.78,75.1,75.1,74.86-75.1Zm3.78,43.22-3.78-3.78-3.77,3.79-74.86,75.07-75.1-75.08-3.79-3.78L394,516.5l-74.86,75.07L244,516.49l-3.78-3.78-3.78,3.79-74.86,75.07-75.1-75.08-3.78-3.78L79,516.5.32,595.36l7.56,7.54,74.86-75.08,75.11,75.08,3.78,3.78,3.77-3.78,74.86-75.08,75.1,75.08,3.78,3.78,3.78-3.78,74.86-75.08,75.1,75.08,3.78,3.78,3.78-3.78,74.85-75.08L630.4,602.9l3.78,3.78L638,602.9,716.59,524,709,516.5l-74.85,75.07Zm-3.78,35.66,3.78,3.78L634.17,631,709,555.94l7.57,7.54L638,642.34l-3.78,3.79-3.78-3.78-75.11-75.08-74.85,75.07-3.78,3.79-3.78-3.78-75.1-75.08-74.86,75.07-3.78,3.79-3.78-3.78-75.1-75.08L165.4,642.34l-3.77,3.79-3.78-3.78L82.74,567.27,7.88,642.34.32,634.8,79,555.94l3.78-3.79,3.78,3.78L161.61,631l74.86-75.07,3.78-3.79,3.78,3.78L319.13,631,394,555.94l3.77-3.79,3.79,3.78L476.65,631l74.86-75.07Zm3.78,43.2-3.78-3.78-3.77,3.79-74.86,75.09-75.1-75.1-3.79-3.78L394,595.36l-74.86,75.09L244,595.35l-3.78-3.78-3.78,3.79-74.86,75.09-75.1-75.1-3.78-3.78L79,595.36.32,674.24l7.57,7.54,74.85-75.1,75.1,75.11,3.79,3.78,3.77-3.79,74.86-75.1,75.1,75.11,3.78,3.78,3.78-3.79,74.86-75.1,75.1,75.11,3.78,3.78,3.78-3.79,74.85-75.1,75.11,75.11,3.78,3.78,3.78-3.79,78.63-78.88L709,595.36l-74.85,75.09ZM555.28,631l3.78,3.78,75.11,75.11L709,634.8l7.57,7.54L638,721.23,634.18,725l-3.78-3.78-75.11-75.1-74.85,75.1L476.66,725l-3.78-3.78-75.1-75.1-74.86,75.1L319.14,725l-3.78-3.78-75.1-75.1-74.86,75.1L161.63,725l-3.79-3.78-75.1-75.1L7.89,721.23.32,713.69,79,634.8,82.73,631l3.78,3.78,75.1,75.11,74.86-75.1,3.78-3.79,3.78,3.78,75.1,75.11L394,634.8l3.77-3.79,3.79,3.78,75.1,75.11,74.86-75.1Zm3.78,43.23-3.78-3.79-3.77,3.79-74.86,75.1-75.1-75.1-3.79-3.79L394,674.24l-74.86,75.1L244,674.24l-3.78-3.79-3.78,3.79-74.86,75.1-75.1-75.1-3.78-3.79L79,674.24.32,753.13l7.57,7.54,74.85-75.1,75.1,75.1,3.79,3.79,3.77-3.79,74.86-75.1,75.1,75.1,3.78,3.79,3.78-3.79,74.86-75.1,75.1,75.1,3.78,3.79,3.78-3.79,74.85-75.1,75.11,75.1,3.78,3.79,3.78-3.79,78.63-78.89L709,674.24l-74.85,75.1Z" fill="#12aac4" fill-rule="evenodd"/></svg>