<svg width="126" height="129" viewBox="0 0 126 129" fill="none" xmlns="http://www.w3.org/2000/svg">
    <path fill-rule="evenodd" clip-rule="evenodd"
        d="M79.0203 30.3027C77.9157 30.3027 77.0203 31.1982 77.0203 32.3027V36.4041C77.0203 37.5087 77.9157 38.4041 79.0203 38.4041H80.7027V55.0876C80.7027 58.065 78.6792 60.6094 75.9842 61.875C65.7172 66.6963 58.6082 77.1291 58.6082 89.2223C58.6082 97.4238 61.878 104.862 67.1851 110.303C67.8357 110.97 68.7399 111.317 69.6717 111.317H107.936C108.868 111.317 109.773 110.97 110.423 110.303C115.73 104.862 119 97.4238 119 89.2223C119 77.1291 111.891 66.6963 101.624 61.875C98.929 60.6094 96.9055 58.065 96.9055 55.0876V38.4041H98.5879C99.6924 38.4041 100.588 37.5087 100.588 36.4041V32.3027C100.588 31.1982 99.6924 30.3027 98.5878 30.3027H79.0203Z"
        fill="#9761F3" />
    <g filter="url(#filter0_dd)">
        <path
            d="M64.5272 79.2795C63.027 81.857 62.2905 85.1304 62.2905 88.2847C62.2905 95.7406 64.5048 102.502 69.2942 107.449C69.8813 108.056 70.6973 108.371 71.5382 108.371H106.07C106.911 108.371 107.727 108.056 108.314 107.449C113.103 102.502 115.318 95.7406 115.318 88.2847C115.318 85.1304 114.581 82.2252 113.081 79.2795C99.1149 79.2796 75.5473 79.279 64.5272 79.2795Z"
            fill="#58D6EB" />
    </g>
    <g filter="url(#filter1_dd)">
        <path fill-rule="evenodd" clip-rule="evenodd"
            d="M31.4121 6C29.7553 6 28.4121 7.34314 28.4121 9V11.8378C28.4121 13.4947 29.7553 14.8378 31.4121 14.8378H32.8311V28.916C32.8311 30.2543 32.6568 31.5869 32.3127 32.88L10.5268 94.9156C7.92753 104.682 15.2742 114.264 25.3621 114.264L44.6148 114.264L63.8676 114.264C73.9555 114.264 81.3022 104.682 78.7029 94.9156L56.9171 32.8799C56.5729 31.5868 56.3986 30.2543 56.3986 28.916V14.8378H57.8176C59.4744 14.8378 60.8176 13.4947 60.8176 11.8378V9C60.8176 7.34315 59.4744 6 57.8176 6H31.4121Z"
            fill="#9761F3" />
    </g>
    <g filter="url(#filter2_dd)">
        <path fill-rule="evenodd" clip-rule="evenodd"
            d="M44.6148 111.316L27.0006 111.316C17.7713 111.316 11.6863 103.287 14.0643 94.351L23.625 67.127C31.9945 67.1272 38.723 67.1271 44.6148 67.127V67.1278C50.5067 67.1279 57.2351 67.128 65.6047 67.1278L75.1653 94.3519C77.5434 103.287 71.4584 111.317 62.229 111.317L44.6148 111.317L44.6148 111.316Z"
            fill="#14142B" />
    </g>
    <g filter="url(#filter3_dd)">
        <path d="M47.5608 45.7695H55.3044L64.5 72.283H56.7564L47.5608 45.7695Z" fill="#EFF4F5" />
    </g>
    <g filter="url(#filter4_dd)">
        <path d="M57.8716 75.2305H65.6152L67.4564 80.0176H59.7128L57.8716 75.2305Z" fill="#EFF4F5" />
    </g>
    <circle cx="78.4932" cy="12.6284" r="6.62838" fill="#58D6EB" />
    <g filter="url(#filter5_dd)">
        <circle cx="80.3345" cy="10.7865" r="1.84122" fill="#EFF4F5" />
    </g>
    <circle cx="92.1181" cy="24.0447" r="3.31419" fill="#58D6EB" />
    <g filter="url(#filter6_dd)">
        <circle cx="93.2229" cy="22.9416" r="0.736486" fill="#EFF4F5" />
    </g>
    <path
        d="M112.988 88.4859C112.826 82.3694 110.648 76.7553 107.095 72.2832H99.8513C103.055 77.0704 105.37 81.6323 105.62 88.4859H112.988Z"
        fill="#EFF4F5" />
    <rect x="105.633" y="90.6953" width="7.36486" height="3.68243" fill="#EFF4F5" />
    <defs>
        <filter id="filter0_dd" x="52.2905" y="73.2793" width="73.027" height="49.0914" filterUnits="userSpaceOnUse"
            color-interpolation-filters="sRGB">
            <feFlood flood-opacity="0" result="BackgroundImageFix" />
            <feColorMatrix in="SourceAlpha" type="matrix" values="0 0 0 0 0 0 0 0 0 0 0 0 0 0 0 0 0 0 127 0" />
            <feOffset dy="1" />
            <feGaussianBlur stdDeviation="1" />
            <feColorMatrix type="matrix" values="0 0 0 0 0 0 0 0 0 0 0 0 0 0 0 0 0 0 0.05 0" />
            <feBlend mode="normal" in2="BackgroundImageFix" result="effect1_dropShadow" />
            <feColorMatrix in="SourceAlpha" type="matrix" values="0 0 0 0 0 0 0 0 0 0 0 0 0 0 0 0 0 0 127 0" />
            <feOffset dy="4" />
            <feGaussianBlur stdDeviation="5" />
            <feColorMatrix type="matrix" values="0 0 0 0 0 0 0 0 0 0 0 0 0 0 0 0 0 0 0.25 0" />
            <feBlend mode="normal" in2="effect1_dropShadow" result="effect2_dropShadow" />
            <feBlend mode="normal" in="SourceGraphic" in2="effect2_dropShadow" result="shape" />
        </filter>
        <filter id="filter1_dd" x="0" y="0" width="89.2297" height="128.264" filterUnits="userSpaceOnUse"
            color-interpolation-filters="sRGB">
            <feFlood flood-opacity="0" result="BackgroundImageFix" />
            <feColorMatrix in="SourceAlpha" type="matrix" values="0 0 0 0 0 0 0 0 0 0 0 0 0 0 0 0 0 0 127 0" />
            <feOffset dy="1" />
            <feGaussianBlur stdDeviation="1" />
            <feColorMatrix type="matrix" values="0 0 0 0 0 0 0 0 0 0 0 0 0 0 0 0 0 0 0.05 0" />
            <feBlend mode="normal" in2="BackgroundImageFix" result="effect1_dropShadow" />
            <feColorMatrix in="SourceAlpha" type="matrix" values="0 0 0 0 0 0 0 0 0 0 0 0 0 0 0 0 0 0 127 0" />
            <feOffset dy="4" />
            <feGaussianBlur stdDeviation="5" />
            <feColorMatrix type="matrix" values="0 0 0 0 0 0 0 0 0 0 0 0 0 0 0 0 0 0 0.25 0" />
            <feBlend mode="normal" in2="effect1_dropShadow" result="effect2_dropShadow" />
            <feBlend mode="normal" in="SourceGraphic" in2="effect2_dropShadow" result="shape" />
        </filter>
        <filter id="filter2_dd" x="3.54736" y="61.127" width="82.1349" height="64.1902" filterUnits="userSpaceOnUse"
            color-interpolation-filters="sRGB">
            <feFlood flood-opacity="0" result="BackgroundImageFix" />
            <feColorMatrix in="SourceAlpha" type="matrix" values="0 0 0 0 0 0 0 0 0 0 0 0 0 0 0 0 0 0 127 0" />
            <feOffset dy="1" />
            <feGaussianBlur stdDeviation="1" />
            <feColorMatrix type="matrix" values="0 0 0 0 0 0 0 0 0 0 0 0 0 0 0 0 0 0 0.15 0" />
            <feBlend mode="normal" in2="BackgroundImageFix" result="effect1_dropShadow" />
            <feColorMatrix in="SourceAlpha" type="matrix" values="0 0 0 0 0 0 0 0 0 0 0 0 0 0 0 0 0 0 127 0" />
            <feOffset dy="4" />
            <feGaussianBlur stdDeviation="5" />
            <feColorMatrix type="matrix" values="0 0 0 0 0 0 0 0 0 0 0 0 0 0 0 0 0 0 0.4 0" />
            <feBlend mode="normal" in2="effect1_dropShadow" result="effect2_dropShadow" />
            <feBlend mode="normal" in="SourceGraphic" in2="effect2_dropShadow" result="shape" />
        </filter>
        <filter id="filter3_dd" x="37.5608" y="39.7695" width="36.9392" height="46.5135" filterUnits="userSpaceOnUse"
            color-interpolation-filters="sRGB">
            <feFlood flood-opacity="0" result="BackgroundImageFix" />
            <feColorMatrix in="SourceAlpha" type="matrix" values="0 0 0 0 0 0 0 0 0 0 0 0 0 0 0 0 0 0 127 0" />
            <feOffset dy="1" />
            <feGaussianBlur stdDeviation="1" />
            <feColorMatrix type="matrix" values="0 0 0 0 0 0 0 0 0 0 0 0 0 0 0 0 0 0 0.05 0" />
            <feBlend mode="normal" in2="BackgroundImageFix" result="effect1_dropShadow" />
            <feColorMatrix in="SourceAlpha" type="matrix" values="0 0 0 0 0 0 0 0 0 0 0 0 0 0 0 0 0 0 127 0" />
            <feOffset dy="4" />
            <feGaussianBlur stdDeviation="5" />
            <feColorMatrix type="matrix" values="0 0 0 0 0 0 0 0 0 0 0 0 0 0 0 0 0 0 0.25 0" />
            <feBlend mode="normal" in2="effect1_dropShadow" result="effect2_dropShadow" />
            <feBlend mode="normal" in="SourceGraphic" in2="effect2_dropShadow" result="shape" />
        </filter>
        <filter id="filter4_dd" x="47.8716" y="69.2305" width="29.5848" height="24.7872" filterUnits="userSpaceOnUse"
            color-interpolation-filters="sRGB">
            <feFlood flood-opacity="0" result="BackgroundImageFix" />
            <feColorMatrix in="SourceAlpha" type="matrix" values="0 0 0 0 0 0 0 0 0 0 0 0 0 0 0 0 0 0 127 0" />
            <feOffset dy="1" />
            <feGaussianBlur stdDeviation="1" />
            <feColorMatrix type="matrix" values="0 0 0 0 0 0 0 0 0 0 0 0 0 0 0 0 0 0 0.05 0" />
            <feBlend mode="normal" in2="BackgroundImageFix" result="effect1_dropShadow" />
            <feColorMatrix in="SourceAlpha" type="matrix" values="0 0 0 0 0 0 0 0 0 0 0 0 0 0 0 0 0 0 127 0" />
            <feOffset dy="4" />
            <feGaussianBlur stdDeviation="5" />
            <feColorMatrix type="matrix" values="0 0 0 0 0 0 0 0 0 0 0 0 0 0 0 0 0 0 0.25 0" />
            <feBlend mode="normal" in2="effect1_dropShadow" result="effect2_dropShadow" />
            <feBlend mode="normal" in="SourceGraphic" in2="effect2_dropShadow" result="shape" />
        </filter>
        <filter id="filter5_dd" x="68.4933" y="2.94531" width="23.6824" height="23.6824" filterUnits="userSpaceOnUse"
            color-interpolation-filters="sRGB">
            <feFlood flood-opacity="0" result="BackgroundImageFix" />
            <feColorMatrix in="SourceAlpha" type="matrix" values="0 0 0 0 0 0 0 0 0 0 0 0 0 0 0 0 0 0 127 0" />
            <feOffset dy="1" />
            <feGaussianBlur stdDeviation="1" />
            <feColorMatrix type="matrix" values="0 0 0 0 0 0 0 0 0 0 0 0 0 0 0 0 0 0 0.05 0" />
            <feBlend mode="normal" in2="BackgroundImageFix" result="effect1_dropShadow" />
            <feColorMatrix in="SourceAlpha" type="matrix" values="0 0 0 0 0 0 0 0 0 0 0 0 0 0 0 0 0 0 127 0" />
            <feOffset dy="4" />
            <feGaussianBlur stdDeviation="5" />
            <feColorMatrix type="matrix" values="0 0 0 0 0 0 0 0 0 0 0 0 0 0 0 0 0 0 0.25 0" />
            <feBlend mode="normal" in2="effect1_dropShadow" result="effect2_dropShadow" />
            <feBlend mode="normal" in="SourceGraphic" in2="effect2_dropShadow" result="shape" />
        </filter>
        <filter id="filter6_dd" x="82.4865" y="16.2051" width="21.473" height="21.473" filterUnits="userSpaceOnUse"
            color-interpolation-filters="sRGB">
            <feFlood flood-opacity="0" result="BackgroundImageFix" />
            <feColorMatrix in="SourceAlpha" type="matrix" values="0 0 0 0 0 0 0 0 0 0 0 0 0 0 0 0 0 0 127 0" />
            <feOffset dy="1" />
            <feGaussianBlur stdDeviation="1" />
            <feColorMatrix type="matrix" values="0 0 0 0 0 0 0 0 0 0 0 0 0 0 0 0 0 0 0.05 0" />
            <feBlend mode="normal" in2="BackgroundImageFix" result="effect1_dropShadow" />
            <feColorMatrix in="SourceAlpha" type="matrix" values="0 0 0 0 0 0 0 0 0 0 0 0 0 0 0 0 0 0 127 0" />
            <feOffset dy="4" />
            <feGaussianBlur stdDeviation="5" />
            <feColorMatrix type="matrix" values="0 0 0 0 0 0 0 0 0 0 0 0 0 0 0 0 0 0 0.25 0" />
            <feBlend mode="normal" in2="effect1_dropShadow" result="effect2_dropShadow" />
            <feBlend mode="normal" in="SourceGraphic" in2="effect2_dropShadow" result="shape" />
        </filter>
    </defs>
</svg>