<svg id="Layer_1" data-name="Layer 1" xmlns="http://www.w3.org/2000/svg" xmlns:xlink="http://www.w3.org/1999/xlink" viewBox="0 0 80 78"><defs><style>.cls-1{fill:#004b8d;}.cls-2{fill:#fff;}.cls-3{fill:url(#linear-gradient);}.cls-4{fill:#607cb1;}</style><linearGradient id="linear-gradient" x1="23.29" y1="64.01" x2="55.4" y2="17.83" gradientTransform="matrix(1, 0, 0, -1, 0, 80)" gradientUnits="userSpaceOnUse"><stop offset="0.22" stop-color="#b2bdda"/><stop offset="0.33" stop-color="#9aa9ce"/><stop offset="0.56" stop-color="#637eb2"/><stop offset="0.88" stop-color="#004d8f"/><stop offset="0.9" stop-color="#004b8d"/></linearGradient></defs><path class="cls-1" d="M70.42,58.62l-.22-1,.22-.37.32.85Zm-2.71-1.49.81-1.35L67.25,55l-.9,1.51L66,56.32l1.17-2,3.5,2.06L69.51,58.3l-.37-.22L70,56.65,68.89,56l-.81,1.35Z"/><path class="cls-1" d="M63.51,59.8a2.55,2.55,0,0,1,.52-1,1.9,1.9,0,0,1,2.86-.31,2,2,0,0,1,.37,3,2.2,2.2,0,0,1-.74.64l-.25-.37a1.85,1.85,0,0,0,.63-.54A1.5,1.5,0,0,0,66.56,59a1.48,1.48,0,0,0-2.25.22,2.11,2.11,0,0,0-.4.77Z"/><path class="cls-1" d="M61.36,61.73a1.86,1.86,0,0,1,2.75.22,1.91,1.91,0,0,1,.12,2.83,1.86,1.86,0,0,1-2.75-.21A1.89,1.89,0,0,1,61.36,61.73Zm.28.32c-.61.57-.42,1.45.23,2.1a1.45,1.45,0,0,0,2.07.29c.64-.6.38-1.49-.22-2.12A1.48,1.48,0,0,0,61.64,62.05Z"/><path class="cls-1" d="M61.32,67.2l-.43.31L58.74,64.6l-1.41,1-.26-.35,1.83-1.34Z"/><path class="cls-1" d="M55.07,68.66l1.37-.78-.73-1.27-1.54.87L54,67.1,56,66l2,3.51-1.91,1.09-.22-.38,1.45-.83-.63-1.11L55.28,69Z"/><path class="cls-1" d="M52.06,72.32a7.43,7.43,0,0,1-1,.43,2.38,2.38,0,0,1-1.72,0,1.86,1.86,0,0,1-1-1.2,2.15,2.15,0,0,1,.06-1.68,2.59,2.59,0,0,1,1.53-1.11,7.37,7.37,0,0,1,.93-.25Zm-1.64-3.23a4.07,4.07,0,0,0-.51.14,1.54,1.54,0,0,0-1.1,2.17,1.45,1.45,0,0,0,2.06,1,5.1,5.1,0,0,0,.56-.24Z"/><path class="cls-1" d="M46.39,74,46,71.61c-.16-.89-.62-1.2-1.16-1.11s-.91.56-.76,1.43l.41,2.37-.53.09-.4-2.33c-.2-1.23.36-1.83,1.23-2s1.52.22,1.73,1.46l.41,2.34Z"/><path class="cls-1" d="M36,72.23c0,.57,0,1.25,0,1.75h0c.18-.46.37-1,.6-1.51l.83-1.91.4,0,.56,2c.16.58.28,1.11.37,1.59h0c0-.5.11-1.17.18-1.78l.21-1.73.5,0-.52,4-.67,0-.58-2c-.14-.51-.25-1-.33-1.39h0c-.14.41-.3.84-.51,1.34l-.84,1.91-.67,0v-4l.52,0Z"/><path class="cls-1" d="M32.43,69.76a1.84,1.84,0,0,1,1.33,2.4,1.92,1.92,0,0,1-2.3,1.66,1.85,1.85,0,0,1-1.34-2.4A1.9,1.9,0,0,1,32.43,69.76Zm-.12.41c-.81-.18-1.44.45-1.64,1.35a1.45,1.45,0,0,0,.89,1.89c.86.2,1.46-.5,1.66-1.35A1.45,1.45,0,0,0,32.31,70.17Z"/><path class="cls-1" d="M29.21,69l-1.49,3.76-.54-.21-.46-2.37a11,11,0,0,1-.19-1.49h0A16.42,16.42,0,0,1,26,70.21l-.63,1.58-.46-.18,1.5-3.76.49.19.44,2.38A11.18,11.18,0,0,1,27.51,72h0c.16-.48.33-.94.58-1.56l.63-1.61Z"/><path class="cls-1" d="M22.83,70.58a7.65,7.65,0,0,1-1-.49,2.32,2.32,0,0,1-1.17-1.26,1.79,1.79,0,0,1,.23-1.54,2.15,2.15,0,0,1,1.31-1.07,2.57,2.57,0,0,1,1.85.39,7.14,7.14,0,0,1,.81.53Zm1.35-3.37a4.2,4.2,0,0,0-.44-.29,1.58,1.58,0,0,0-2.37.62A1.43,1.43,0,0,0,22,69.71a2.79,2.79,0,0,0,.56.26Z"/><path class="cls-1" d="M18,64.83l1.24,1,.9-1.15-1.39-1.08.27-.35,1.81,1.41-2.5,3.19-1.74-1.35.27-.34,1.32,1,.79-1-1.24-1Z"/><path class="cls-1" d="M15.16,61.53a.63.63,0,0,1-.94.85.62.62,0,0,1,0-.89A.67.67,0,0,1,15.16,61.53Z"/><path class="cls-1" d="M11.94,55.11a2.48,2.48,0,0,1,.75.79,1.89,1.89,0,0,1-.64,2.79,2,2,0,0,1-3-.61,2.19,2.19,0,0,1-.38-.91l.44-.12a1.79,1.79,0,0,0,.3.77,1.5,1.5,0,0,0,2.27.41,1.45,1.45,0,0,0,.52-2.18,1.94,1.94,0,0,0-.61-.63Z"/><path class="cls-1" d="M10.8,52.48A1.84,1.84,0,0,1,9.71,55,1.93,1.93,0,0,1,7,54.2a1.85,1.85,0,0,1,1.09-2.52A1.92,1.92,0,0,1,10.8,52.48Zm-.4.16c-.35-.75-1.24-.85-2.08-.46a1.44,1.44,0,0,0-1,1.86c.37.79,1.3.84,2.1.47S10.76,53.39,10.4,52.64Z"/><path class="cls-1" d="M5.6,50.68l-.16-.5L8.9,49.1l-.52-1.65.42-.13.68,2.15Z"/><path class="cls-1" d="M6.22,44.32l.3,1.54L8,45.58l-.33-1.72.43-.08L8.49,46l-4,.75-.41-2.15.43-.08.31,1.64,1.26-.24L5.79,44.4Z"/><path class="cls-1" d="M7.52,39.29a3.74,3.74,0,0,1,.29,1.23,2,2,0,0,1-.45,1.54,2.07,2.07,0,0,1-1.49.64,2,2,0,0,1-2.21-2.07,2.35,2.35,0,0,1,.13-1l.44.11a2.06,2.06,0,0,0-.13.91,1.52,1.52,0,0,0,1.72,1.53,1.47,1.47,0,0,0,1.55-1.64,1.68,1.68,0,0,0-.15-.69L6,39.89l0,.82-.42,0L5.56,39.4Z"/><path class="cls-1" d="M3.74,37l4.06.23,0,.53-4.07-.23Z"/><path class="cls-1" d="M8.24,34a1.86,1.86,0,0,1-2.33,1.47A1.92,1.92,0,0,1,4.1,33.3a1.85,1.85,0,0,1,2.32-1.48A1.9,1.9,0,0,1,8.24,34Zm-.41-.08c.13-.82-.56-1.4-1.47-1.54s-1.7.15-1.84,1S5.12,34.81,6,35A1.47,1.47,0,0,0,7.83,33.93Z"/><path class="cls-1" d="M5.73,27.36a7,7,0,0,1,.33-1.06A2.37,2.37,0,0,1,7.14,25a1.93,1.93,0,0,1,1.58,0A2.17,2.17,0,0,1,10,26.1,2.47,2.47,0,0,1,9.84,28a7.17,7.17,0,0,1-.4.86Zm3.54.84a3.79,3.79,0,0,0,.22-.48,1.55,1.55,0,0,0-1-2.24,1.45,1.45,0,0,0-2.07.94,3.56,3.56,0,0,0-.18.59Z"/><path class="cls-1" d="M10.75,21.75,10,23.11l1.28.73.87-1.53.38.22-1.13,2-3.54-2L8.92,20.6l.38.22-.82,1.44,1.12.63.78-1.36Z"/><path class="cls-1" d="M10,19l.32-.42,2.92,2.13,1-1.4.36.27-1.35,1.81Z"/><path class="cls-1" d="M18.25,13.39c-.4-.4-.88-.88-1.22-1.26h0c.2.44.42.93.64,1.48l.78,1.94-.3.26-1.78-1c-.53-.3-1-.58-1.4-.86h0c.33.38.76.9,1.14,1.38l1.08,1.37-.37.33-2.5-3.2.5-.45,1.83,1c.46.26.86.5,1.22.74h0c-.18-.38-.37-.81-.58-1.31l-.77-1.94.5-.44,2.89,2.85-.38.34Z"/><path class="cls-1" d="M19.43,9.72l1.3,2c.48.76,1,.86,1.49.57s.62-.86.14-1.61l-1.29-2,.44-.28,1.28,2a1.48,1.48,0,0,1-.36,2.29c-.7.44-1.49.38-2.17-.68L19,10Z"/><path class="cls-1" d="M25.18,11,23.53,7.34l.53-.24,2,1.35a11.7,11.7,0,0,1,1.2.9h0c-.26-.48-.48-.92-.73-1.49l-.7-1.55.45-.2L28,9.8l-.48.21-2-1.35a11.32,11.32,0,0,1-1.25-.94v0c.24.45.44.9.72,1.51l.71,1.58Z"/><path class="cls-1" d="M28.49,5.38A8.09,8.09,0,0,1,29.55,5a2.31,2.31,0,0,1,1.72,0,1.84,1.84,0,0,1,.94,1.25A2.1,2.1,0,0,1,32.06,8a2.51,2.51,0,0,1-1.58,1,8.36,8.36,0,0,1-.94.21ZM30,8.7a4,4,0,0,0,.52-.12,1.55,1.55,0,0,0,1.21-2.11,1.45,1.45,0,0,0-2-1.07,2.42,2.42,0,0,0-.58.21Z"/><path class="cls-1" d="M35.77,8a1.86,1.86,0,0,1-2.05-1.83,1.9,1.9,0,0,1,1.62-2.32A1.84,1.84,0,0,1,37.4,5.65,1.89,1.89,0,0,1,35.77,8Zm0-.42c.83-.1,1.21-.91,1.11-1.82s-.61-1.58-1.48-1.49-1.21,1-1.11,1.82S34.92,7.65,35.74,7.56Z"/><path class="cls-1" d="M41.6,6.35a.63.63,0,1,1,.69-.58A.64.64,0,0,1,41.6,6.35Z"/><path class="cls-1" d="M46.24,8.42l0-4.17.54.14-.07,2.1c0,.52,0,1-.07,1.43h0c.17-.37.42-.81.69-1.27l1-1.83L49,5l-.06,2.11a12.39,12.39,0,0,1-.09,1.41h0c.19-.41.42-.81.68-1.27l1-1.83.52.14L48.93,9.13,48.4,9l0-2.16c0-.53,0-.94.09-1.35h0a10.55,10.55,0,0,1-.65,1.2L46.76,8.56Z"/><path class="cls-1" d="M52.62,10.65A1.84,1.84,0,0,1,51.83,8a1.93,1.93,0,0,1,2.6-1.15,1.84,1.84,0,0,1,.81,2.62A1.92,1.92,0,0,1,52.62,10.65Zm.2-.38c.76.35,1.51-.15,1.9-1a1.46,1.46,0,0,0-.49-2c-.8-.36-1.53.2-1.9,1A1.44,1.44,0,0,0,52.82,10.27Z"/><path class="cls-1" d="M57.79,8.76a6.59,6.59,0,0,1,.9.47,1.67,1.67,0,0,1,.81.92,1,1,0,0,1-.15.82,1.08,1.08,0,0,1-1.21.45h0a1,1,0,0,1,.06,1,7.07,7.07,0,0,0-.36,1.1l-.45-.3a4.58,4.58,0,0,1,.3-1c.2-.54.13-.83-.26-1.1L57,10.92l-1,1.48-.44-.28Zm-.56,1.83.45.29a.8.8,0,0,0,1.19-.15c.28-.44.09-.84-.38-1.13A3.36,3.36,0,0,0,58,9.35Z"/><path class="cls-1" d="M61.51,11.25l.4.34-2.32,2.77,1.34,1.1-.29.34L58.9,14.36Z"/><path class="cls-1" d="M64.57,14a8.06,8.06,0,0,1,.83.77,2.33,2.33,0,0,1,.75,1.54,1.89,1.89,0,0,1-.69,1.41,2.19,2.19,0,0,1-1.56.63,2.52,2.52,0,0,1-1.66-.92,7.83,7.83,0,0,1-.61-.73Zm-2.29,2.82a5,5,0,0,0,.35.4,1.55,1.55,0,0,0,2.44.1,1.43,1.43,0,0,0,0-2.26,2.21,2.21,0,0,0-.46-.41Z"/><path class="cls-1" d="M66.44,21.56a1.71,1.71,0,0,0,.26.93.74.74,0,0,0,1,.36c.32-.19.4-.5.28-1.07s0-1.22.43-1.5a1.17,1.17,0,0,1,1.63.55,1.76,1.76,0,0,1,.3.86l-.44.1A1.45,1.45,0,0,0,69.7,21c-.29-.47-.68-.48-.91-.34s-.36.51-.25,1.1,0,1.18-.49,1.49a1.23,1.23,0,0,1-1.74-.59,2,2,0,0,1-.31-1Z"/><path class="cls-1" d="M69.06,27.68a2.48,2.48,0,0,1-.61-.9,1.89,1.89,0,0,1,1.06-2.66,2,2,0,0,1,2.83,1.06,2.46,2.46,0,0,1,.23,1l-.45.05a1.84,1.84,0,0,0-.18-.81,1.51,1.51,0,0,0-2.18-.76,1.47,1.47,0,0,0-.86,2.08,2.1,2.1,0,0,0,.51.71Z"/><path class="cls-1" d="M73.5,28.46l-1.64.47.54,1.88L74,30.34l.15.51L70.26,32l-.14-.51L72,30.93l-.54-1.88-1.83.53-.15-.51L73.34,28Z"/><path class="cls-1" d="M70.75,35.15a1.86,1.86,0,0,1,1.82-2.06,1.92,1.92,0,0,1,2.35,1.59,1.83,1.83,0,0,1-1.81,2.06A1.9,1.9,0,0,1,70.75,35.15Zm.43,0c.1.82.92,1.19,1.84,1.07s1.59-.62,1.48-1.49-1-1.18-1.85-1.07-1.58.67-1.47,1.48Z"/><path class="cls-1" d="M71,40a1.87,1.87,0,0,1,2.12-1.76,1.92,1.92,0,0,1,2.08,1.93A1.84,1.84,0,0,1,73.08,42,1.9,1.9,0,0,1,71,40Zm.43,0c0,.82.73,1.31,1.65,1.34s1.67-.37,1.7-1.24S74,38.82,73.11,38.8s-1.66.42-1.69,1.24Z"/><path class="cls-1" d="M74.82,44l-.08.52-3.58-.57-.28,1.71-.44-.07.36-2.23Z"/><path class="cls-1" d="M70.8,49.59a.64.64,0,0,1,.81-.39.63.63,0,1,1-.81.39Z"/><path class="cls-2" d="M68.88,39.05A29.57,29.57,0,1,1,39.31,9.69,29.47,29.47,0,0,1,68.88,39.05Z"/><path class="cls-3" d="M67.62,39a28.33,28.33,0,0,1-55.79,6.75,38.59,38.59,0,0,0,15.54-3.44V31.41a2.12,2.12,0,0,0-.91-1.91,6.35,6.35,0,0,0-3.23-.6v-1q3.07-.11,5.65-.37a25.26,25.26,0,0,0,4.43-.77l0,15.89v3c0,1,0,2.06,0,3.06s-.09,1.93-.15,2.8-.15,1.6-.26,2.2a27.07,27.07,0,0,0,5.6,2.4,19.43,19.43,0,0,0,5.76,1,14.43,14.43,0,0,0,4.39-.68,11.76,11.76,0,0,0,3.76-2A10.19,10.19,0,0,0,55,51.15a9.12,9.12,0,0,0,1-4.32,10.59,10.59,0,0,0-.76-4.06,9.67,9.67,0,0,0-5.36-5.34,10.74,10.74,0,0,0-7.5-.2,15.8,15.8,0,0,0-3.16,1.44V33.94A38.05,38.05,0,0,0,49.33,14.41,27.61,27.61,0,0,0,12.79,29.93a28.16,28.16,0,0,1,36.8-17.09v0A28.16,28.16,0,0,1,67.62,39Zm-27.5,14.4a4.18,4.18,0,0,0,3.93,2,4.2,4.2,0,0,0,3.94-2q1.15-2,1.16-6.23c0-2.84-.38-4.92-1.16-6.24a4.2,4.2,0,0,0-3.94-2,4.18,4.18,0,0,0-3.93,2C39.34,42.28,39,44.36,39,47.2S39.34,52.11,40.12,53.43ZM32.74,23.6a4.07,4.07,0,0,0,0-5.71,3.91,3.91,0,0,0-2.85-1.14A4,4,0,0,0,27,17.89a4.07,4.07,0,0,0,0,5.71,3.91,3.91,0,0,0,2.85,1.14A4,4,0,0,0,32.74,23.6Z"/><path class="cls-1" d="M68.18,13.52A38.33,38.33,0,0,1,39.31,77.43a39.43,39.43,0,0,1-7.17-.66A38.4,38.4,0,0,0,41.8,78H42A39,39,0,0,0,74.34,21.27,38.47,38.47,0,0,0,68.18,13.52Z"/><path class="cls-1" d="M.67,39A38.48,38.48,0,0,1,32.86,1.19a41.16,41.16,0,0,1,8.94-1c.71,0,1.43,0,2.14.05A41.58,41.58,0,0,0,39.31,0,39.18,39.18,0,0,0,0,39,38.73,38.73,0,0,0,8.21,62.92a39.75,39.75,0,0,1-4.84-9.77A37.78,37.78,0,0,1,.67,39Z"/><path class="cls-4" d="M80,12.13a2.33,2.33,0,1,1-2.32-2.31A2.29,2.29,0,0,1,80,12.13Zm-4.28,0a2,2,0,1,0,2-2A1.94,1.94,0,0,0,75.72,12.13Zm1.44,1.33h-.33V10.8h1c.61,0,.87.26.87.73a.72.72,0,0,1-.67.75l.79,1.18h-.38l-.76-1.18h-.55v1.18ZM77.6,12c.41,0,.81,0,.81-.47s-.31-.45-.64-.45h-.61V12Z"/></svg>